<svg version="1.1"
	 id="svg3965" xmlns:svg="http://www.w3.org/2000/svg" xmlns:cc="http://creativecommons.org/ns#" xmlns:dc="http://purl.org/dc/elements/1.1/" xmlns:rdf="http://www.w3.org/1999/02/22-rdf-syntax-ns#"
	 xmlns="http://www.w3.org/2000/svg" xmlns:xlink="http://www.w3.org/1999/xlink" x="0px" y="0px" width="744.094px"
	 height="222.471px" viewBox="0 0 744.094 222.471" enable-background="new 0 0 744.094 222.471" xml:space="preserve">
<g id="layer1">
	<path id="path3051" fill="#1B73B9" d="M17.778,86.884h88.596l31.268-25.097H48.085L17.778,86.884z"/>
	<path id="path3053" fill="#0BA79C" d="M140.86,64.051l-0.138,83.242l-30.993,31.269l-0.271-89.141L140.86,64.051z"/>
	<path id="path3057" fill="#1B73B9" d="M168.267,78.219v12.209h14.125l-0.048,54.497c-0.019,11.149,3.648,19.82,18.537,20.946
		h18.036V153.65h-12.412c-7.752-0.498-10.087-4.729-10.376-10.376v-52.85h23.176V78.161h-22.303V56.682L182.069,62.5l0.052,15.661
		L168.267,78.219z"/>
	<path id="path3061" fill="#1B73B9" d="M233.359,37.926v125.756h14.399v-56.228c0.241-19.183,41.39-29.396,42.65,0v56.639h15.083
		v-55.267c-0.41-44.938-49.693-34.443-58.281-16.457V37.788L233.359,37.926z"/>
	<rect id="rect3063" x="323.733" y="78.519" fill="#1B73B9" width="15.636" height="86.944"/>
	<path id="path3833" fill="#1B73B9" d="M355.841,150.066l-4.752,10.477c29.931,12.629,53.229,1.202,55.878-15.2
		c4.833-29.97-27.128-29.969-36.336-38.917c-8.177-7.944,1.412-26.097,30.104-14.247l4.17-10.474
		c-26.834-14.847-60.474,1.292-48.104,29.842c4,9.23,19.103,12.646,25.958,16.271C398.398,136.088,399.602,164.671,355.841,150.066
		L355.841,150.066z"/>
	<path id="path3837" fill="#0BA79C" d="M416.352,77.628l26.067,86.106h13.938l21.857-67.488l20.81,67.488h14.548l27.194-86.106
		h-14.544l-19.886,69.235l-20.894-69.235h-13.759l-21.49,69.565L431.15,77.629L416.352,77.628L416.352,77.628z"/>
	<path id="path3839" fill="#0BA79C" d="M702.222,77.628c-9.916,29.204-21.545,61.87-33.534,88.626
		c-8.238,18.389-19.423,27.251-36.866,37.824l-4.85-12.605c16.932-10.287,22.688-15.814,27.54-30.256l-32.775-83.589h15.709
		l25.795,69.237l22.69-69.237H702.222L702.222,77.628z"/>
	<path fill="#0BA79C" d="M612.545,101.695c0-10.271-15.336-39.606-59.933-18.102l3.564,9.873
		c25.454-13.257,43.267-2.757,42.235,15.635c-91.491,0.426-44.265,90.636,1.233,44.437l0.273,10.561h14.262L612.545,101.695z
		 M597.867,141.327c-21.896,36.18-58.867-6.56-18.925-19.062c8.702-1.867,12.955-2.031,19.062-1.099L597.867,141.327z"/>
</g>
</svg>