<svg width="468" height="662" viewBox="0 0 468 662" fill="none" xmlns="http://www.w3.org/2000/svg">
<path d="M465.879 515.003L465.698 546.684L268.982 660.598L0.784912 505.953V474.271L202.44 371.211H202.468L465.866 515.003H465.879Z" fill="black" stroke="white" stroke-width="0.75" stroke-miterlimit="10"/>
<path d="M202.65 371.113L465.893 514.821L269.136 628.749L269.024 628.805L268.912 628.749L0.784912 474.131L202.02 371.183C202.02 371.183 202.104 371.253 202.048 371.267L195.752 396.459L202.594 371.113C202.594 371.113 202.622 371.113 202.636 371.113H202.65Z" fill="black" stroke="white" stroke-width="0.75" stroke-miterlimit="10" stroke-linecap="round"/>
<path d="M269.248 628.945V660.599" stroke="white" stroke-width="0.75" stroke-miterlimit="10" stroke-linecap="round"/>
<path d="M16.8057 492.991L22.9198 496.487V498.194L18.4846 495.648V498.278L22.7239 500.712V502.432L18.4846 499.998V503.006L23.1017 505.649V507.356L16.8057 503.747V492.977V492.991Z" fill="white"/>
<path d="M25.5378 501.256L27.0909 502.151V502.487C27.0909 502.697 27.0909 502.921 27.0349 503.2C27.3847 502.641 27.9723 502.417 29.0216 503.005C30.4487 503.816 31.2882 505.494 31.2882 507.355V512.055L29.7212 511.159V506.739C29.7212 505.62 29.2875 504.641 28.49 504.194C27.6645 503.718 27.1049 504.222 27.1049 505.285V509.649L25.5518 508.753V501.242L25.5378 501.256Z" fill="white"/>
<path d="M33.9318 509.803C33.9318 507.439 35.2469 506.572 37.0658 507.607C38.9826 508.698 40.0599 510.922 40.0599 513.37V513.789L35.5268 511.188C35.5547 512.39 36.1703 513.649 37.1078 514.181C37.7793 514.573 38.339 514.419 38.4509 513.705L40.0179 514.6C39.892 516.069 38.7867 516.629 37.1078 515.664C35.2469 514.6 33.9318 512.404 33.9318 509.803ZM37.0518 508.991C36.2123 508.516 35.6107 508.894 35.5268 509.817L38.4789 511.509C38.4789 510.488 37.9053 509.467 37.0658 508.991H37.0518Z" fill="white"/>
<path d="M43.5306 511.555L45.0837 512.45V513.331C45.0837 513.611 45.0837 513.849 45.0417 514.156C45.4474 513.359 46.3009 512.911 47.728 513.723C48.0638 513.919 48.2736 514.072 48.5115 514.226V516.031C48.3016 515.877 48.0498 515.709 47.7 515.499C46.2309 514.66 45.0977 514.8 45.0977 516.73V519.961L43.5446 519.066V511.555H43.5306Z" fill="white"/>
<path d="M51.2829 524.027L52.8639 524.936C52.9059 525.845 53.3676 526.643 54.2211 527.132C55.0186 527.594 55.7181 527.398 55.7181 526.279V525.468C55.7181 525.132 55.7181 524.824 55.7741 524.558C55.4103 525.02 54.7947 525.244 53.8293 524.698C52.1923 523.761 51.0171 521.663 51.0171 519.285C51.0171 516.907 52.3882 516.39 53.7314 517.159C54.8227 517.789 55.3963 518.642 55.7601 519.649C55.7041 519.355 55.7041 519.145 55.7041 518.88V518.544L57.2572 519.439V526.713C57.2572 529.174 55.998 529.636 54.1511 528.587C52.3183 527.538 51.2689 525.747 51.2689 524.041L51.2829 524.027ZM55.8161 522.013C55.8161 520.782 55.1585 519.453 54.2351 518.922C53.2977 518.39 52.6121 518.949 52.6121 520.18C52.6121 521.551 53.2837 522.88 54.2351 523.412C55.1585 523.943 55.8161 523.398 55.8161 522.013Z" fill="white"/>
<path d="M62.0526 529.61L59.6182 520.77L61.3671 521.777L62.6962 527.386C62.7522 527.679 62.8361 528.001 62.8921 528.393C62.9621 528.071 63.018 527.833 63.102 527.623L64.3612 523.497L65.9981 524.434L62.7242 533.204L61.0593 532.253L62.0806 529.638L62.0526 529.61Z" fill="white"/>
<path d="M465.879 469.795L465.698 501.477L268.982 615.391L0.784912 460.746V429.064L202.44 326.004H202.468L465.866 469.795H465.879Z" fill="black" stroke="white" stroke-width="0.75" stroke-linecap="round"/>
<path d="M202.65 325.906L465.893 469.614L269.136 583.542L269.024 583.598L268.912 583.542L0.784912 428.938L202.02 325.99C202.02 325.99 202.104 326.06 202.048 326.074L195.752 351.266L202.594 325.92C202.594 325.92 202.622 325.92 202.636 325.92L202.65 325.906Z" fill="black" stroke="white" stroke-width="0.75" stroke-miterlimit="10" stroke-linecap="round"/>
<path d="M269.248 583.738V615.392" stroke="white" stroke-width="0.75" stroke-miterlimit="10" stroke-linecap="round"/>
<path d="M466.611 155.307L466.429 456.024L406.519 490.489L138.294 334.682L138.322 35.2099L198.106 0.632812L466.611 155.307Z" fill="#547796" stroke="white" stroke-width="0.75" stroke-miterlimit="10"/>
<path d="M406.546 188.941V490.456" stroke="white" stroke-width="0.75" stroke-miterlimit="10" stroke-linecap="round"/>
<path d="M198.453 0.473919L466.482 155.232L406.67 189.753L406.558 189.809L406.446 189.753L138.347 35.135L198.244 0.473919L198.355 0.417969L198.467 0.473919H198.453Z" fill="#547796" stroke="white" stroke-width="0.75" stroke-miterlimit="10" stroke-linecap="round"/>
<path d="M435.575 191.261C438.835 189.4 441.34 189.386 441.34 192.338C441.34 194.492 439.871 196.926 437.198 198.632V196.52C438.905 195.401 439.591 194.212 439.591 193.261C439.591 191.736 437.912 191.946 435.561 193.289C433.225 194.632 431.532 196.408 431.532 197.863C431.532 198.926 432.288 199.234 434.036 198.366V200.478C431.336 201.835 429.783 201.178 429.783 198.912C429.783 196.044 432.287 193.135 435.547 191.275L435.575 191.261Z" fill="white"/>
<path d="M433.883 202.845C436.388 201.404 437.983 202.089 437.983 204.355C437.983 206.621 436.388 209.139 433.883 210.566C431.337 212.021 429.812 211.293 429.812 209.041C429.812 206.789 431.351 204.299 433.883 202.845ZM433.883 208.65C435.548 207.698 436.472 206.37 436.472 205.209C436.472 204.048 435.548 203.782 433.883 204.733C432.246 205.67 431.309 206.971 431.309 208.16C431.309 209.349 432.246 209.573 433.883 208.636V208.65Z" fill="white"/>
<path d="M437.746 210.82V212.485L437.242 212.779C437.06 212.89 436.809 213.016 436.641 213.072C437.466 212.89 437.984 213.072 437.984 213.842C437.984 214.499 437.592 215.324 436.627 216.136C437.396 215.968 437.984 216.108 437.984 217.045C437.984 218.178 436.962 219.507 435.507 220.346L430.079 223.451V221.787L435.172 218.877C435.941 218.443 436.459 217.94 436.459 217.436C436.459 216.695 435.717 216.933 434.752 217.492L430.079 220.164V218.513L435.172 215.604C435.941 215.17 436.459 214.681 436.459 214.163C436.459 213.506 435.717 213.66 434.752 214.219L430.079 216.891V215.226L437.732 210.848L437.746 210.82Z" fill="white"/>
<path d="M437.746 221.199V222.864L437.242 223.157C437.06 223.269 436.809 223.395 436.641 223.451C437.466 223.269 437.984 223.451 437.984 224.221C437.984 224.878 437.592 225.703 436.627 226.514C437.396 226.347 437.984 226.486 437.984 227.424C437.984 228.557 436.962 229.885 435.507 230.725L430.079 233.83V232.165L435.172 229.256C435.941 228.822 436.459 228.319 436.459 227.815C436.459 227.074 435.717 227.312 434.752 227.871L430.079 230.543V228.892L435.172 225.983C435.941 225.549 436.459 225.06 436.459 224.542C436.459 223.885 435.717 224.039 434.752 224.598L430.079 227.27V225.605L437.732 221.227L437.746 221.199Z" fill="white"/>
<path d="M432.19 235.355C433.91 234.362 434.498 235.355 434.708 236.88L434.862 237.985C434.946 238.544 435.17 238.628 435.575 238.39C436.107 238.083 436.541 237.397 436.541 236.53C436.541 235.579 436.037 235.299 435.24 235.691V233.746C436.835 232.935 437.968 233.579 437.968 235.635C437.968 237.985 436.751 239.607 434.61 240.838L430.063 243.44V241.691L430.371 241.51C430.623 241.37 430.86 241.258 431.112 241.16C430.357 241.202 429.783 240.74 429.783 239.342C429.783 237.943 430.692 236.208 432.162 235.355H432.19ZM433.057 239.901L433.882 239.425C433.771 239.383 433.645 239.16 433.575 238.754L433.435 238.041C433.281 237.229 432.973 236.81 432.26 237.229C431.588 237.621 431.224 238.348 431.224 239.062C431.224 240.139 431.98 240.53 433.057 239.901Z" fill="white"/>
<path d="M437.748 242.67V244.545L437.398 244.74C437.174 244.866 436.95 244.992 436.642 245.104C437.412 245.076 437.985 245.454 437.985 246.713C437.985 248.433 436.768 250.14 434.865 251.217L430.08 253.958V252.07L434.572 249.496C435.719 248.839 436.446 247.902 436.446 246.936C436.446 245.971 435.607 245.747 434.516 246.363L430.066 248.909V247.034L437.72 242.656L437.748 242.67Z" fill="white"/>
<path d="M433.883 254.559C436.625 252.993 437.983 253.916 437.983 255.664C437.983 256.839 437.367 257.902 436.639 258.756C436.919 258.532 437.157 258.392 437.395 258.266L441.061 256.168V258.042L430.092 264.323V262.448L430.399 262.267C430.665 262.113 430.875 262.001 431.141 261.903C430.581 261.931 429.812 261.693 429.812 260.308C429.812 258.322 431.197 256.084 433.883 254.545V254.559ZM433.897 260.378C435.464 259.483 436.472 258.07 436.472 256.951C436.472 255.832 435.422 255.581 433.897 256.448C432.316 257.357 431.309 258.77 431.309 259.903C431.309 261.036 432.358 261.259 433.897 260.378Z" fill="white"/>
<path d="M433.91 275.762C436.471 274.294 437.982 275.133 437.982 277.329C437.982 279.525 436.639 281.469 434.848 282.672V280.77C435.715 280.21 436.457 279.259 436.457 278.196C436.457 277.133 435.547 276.728 433.882 277.679C432.357 278.546 431.294 279.945 431.294 281.106C431.294 282.267 432.078 282.337 432.987 281.903V283.819C431.042 284.672 429.783 284.155 429.783 281.931C429.783 279.539 431.35 277.231 433.882 275.776L433.91 275.762Z" fill="white"/>
<path d="M433.94 286.128C436.346 284.744 437.997 285.387 437.997 287.569C437.997 289.877 436.36 292.115 433.87 293.542L433.45 293.779V288.31C432.247 289.038 431.323 290.297 431.323 291.444C431.323 292.255 431.799 292.647 432.597 292.339V294.227C431.03 294.968 429.826 294.339 429.826 292.311C429.826 290.059 431.295 287.639 433.954 286.114L433.94 286.128ZM436.57 288.38C436.57 287.359 435.828 287.065 434.835 287.527V291.08C435.87 290.464 436.57 289.387 436.57 288.38Z" fill="white"/>
<path d="M437.748 294.608V296.482L437.398 296.678C437.174 296.804 436.95 296.93 436.642 297.042C437.412 297.014 437.985 297.391 437.985 298.65C437.985 300.371 436.768 302.077 434.865 303.154L430.08 305.896V304.007L434.572 301.434C435.719 300.776 436.446 299.839 436.446 298.874C436.446 297.909 435.607 297.685 434.516 298.3L430.066 300.846V298.972L437.72 294.594L437.748 294.608Z" fill="white"/>
<path d="M433.408 309.314L436.234 307.691V305.02L437.759 304.152V306.824L440.515 305.243V307.118L437.759 308.698V311.859L436.234 312.727V309.579L433.589 311.09C431.98 312.013 431.561 313.16 431.561 314.489C431.561 314.853 431.589 315.188 431.645 315.496L430.12 316.363C430.022 316.042 429.966 315.622 429.966 315.119C429.966 312.881 430.931 310.726 433.408 309.314Z" fill="white"/>
<path d="M433.94 317.288C436.346 315.904 437.997 316.547 437.997 318.729C437.997 321.037 436.36 323.275 433.87 324.702L433.45 324.94V319.471C432.247 320.198 431.323 321.457 431.323 322.604C431.323 323.415 431.799 323.807 432.597 323.499V325.387C431.03 326.129 429.826 325.499 429.826 323.471C429.826 321.219 431.295 318.799 433.954 317.274L433.94 317.288ZM436.57 319.526C436.57 318.505 435.828 318.212 434.835 318.673V322.226C435.87 321.625 436.57 320.534 436.57 319.526Z" fill="white"/>
<path d="M437.746 326.676V328.55L436.851 329.068C436.571 329.236 436.319 329.375 435.983 329.515C437.033 329.403 437.984 329.893 437.984 331.599C437.984 332.005 437.956 332.271 437.928 332.579L436.095 333.628C436.123 333.362 436.151 333.04 436.151 332.606C436.151 330.844 435.354 329.921 433.381 331.054L430.093 332.942V331.068L437.746 326.69V326.676Z" fill="white"/>
<path d="M397.367 193.993L397.185 496.067L337.541 530.686L69.3582 376.041V73.9803L129.31 39.2773L397.367 194.007V193.993Z" fill="#547796" stroke="white" stroke-width="0.75" stroke-miterlimit="10"/>
<path d="M129.478 39.1653L397.381 193.811L337.709 228.458L337.597 228.514L337.485 228.458L69.3584 73.8403L129.255 39.1653L129.367 39.1094L129.478 39.1653Z" fill="#547796" stroke="white" stroke-width="0.75" stroke-miterlimit="10" stroke-linecap="round"/>
<path d="M337.818 228.656V530.702" stroke="white" stroke-width="0.75" stroke-miterlimit="10"/>
<path d="M328.794 458.942L328.612 536.014L268.968 570.633L0.784912 416.001V338.93L60.7371 304.227L328.794 458.956V458.942Z" fill="#547796" stroke="white" stroke-width="0.75" stroke-miterlimit="10"/>
<path d="M60.905 304.115L328.808 458.76L269.136 493.407L269.024 493.463L268.912 493.407L0.784912 338.79L60.6811 304.115L60.7931 304.059L60.905 304.115Z" fill="#547796" stroke="white" stroke-width="0.75" stroke-miterlimit="10" stroke-linecap="round"/>
<path d="M269.248 493.59V570.647" stroke="white" stroke-width="0.75" stroke-miterlimit="10" stroke-linecap="round"/>
<path d="M16.3293 361.759C16.3293 358.556 17.5186 356.779 19.9671 358.178C21.7579 359.199 23.0731 361.395 23.227 364.109L21.4781 363.102C21.3662 361.353 20.6946 360.304 19.9111 359.843C18.6519 359.115 18.0223 360.402 18.0223 362.71C18.0223 365.018 18.6939 367.046 19.8971 367.732C20.7785 368.235 21.3942 367.843 21.5061 366.193L23.255 367.2C23.1011 369.76 21.8139 370.543 19.9391 369.466C17.5606 368.109 16.3433 364.948 16.3433 361.745L16.3293 361.759Z" fill="white"/>
<path d="M25.1317 368.459C25.1317 365.997 26.4609 365.186 28.3357 366.263C30.2105 367.34 31.5397 369.662 31.5397 372.124C31.5397 374.586 30.2105 375.369 28.3357 374.292C26.4469 373.215 25.1317 370.949 25.1317 368.459ZM29.9587 371.215C29.9587 369.578 29.3011 368.291 28.3357 367.746C27.3703 367.2 26.7127 367.718 26.7127 369.355C26.7127 370.991 27.3563 372.25 28.3357 372.809C29.3011 373.369 29.9587 372.809 29.9587 371.215Z" fill="white"/>
<path d="M33.5819 369.508L34.967 370.291V370.781C34.967 370.963 34.967 371.2 34.925 371.34C35.1629 370.669 35.5686 370.375 36.1982 370.753C36.7439 371.06 37.2476 371.732 37.4435 372.809C37.6673 372.179 38.0731 371.83 38.8426 372.277C39.78 372.823 40.3956 374.166 40.3956 375.606V380.936L39.0105 380.152V375.145C39.0105 374.389 38.8426 373.788 38.4228 373.55C37.8072 373.201 37.6533 373.83 37.6533 374.781V379.369L36.2822 378.586V373.578C36.2822 372.823 36.1283 372.235 35.6946 371.984C35.1489 371.676 34.925 372.263 34.925 373.215V377.802L33.5399 377.019V369.508H33.5819Z" fill="white"/>
<path d="M42.6481 374.709L44.2011 375.604V375.94C44.2011 376.178 44.2011 376.36 44.1451 376.654C44.5509 376.094 45.2085 375.94 46.1878 376.5C47.8388 377.437 48.9161 379.731 48.9161 382.109C48.9161 384.487 47.6989 385.396 46.1179 384.487C45.0685 383.885 44.5369 383.046 44.1451 382.039C44.1871 382.374 44.2011 382.57 44.2011 382.794V386.235L42.6481 385.34V374.695V374.709ZM47.3491 381.171C47.3491 379.689 46.7475 378.304 45.7541 377.731C44.8167 377.199 44.1451 377.773 44.1451 379.339C44.1451 380.906 44.8027 382.263 45.7541 382.794C46.7055 383.34 47.3491 382.682 47.3491 381.171Z" fill="white"/>
<path d="M51.2391 384.359V379.617L52.7922 380.512V384.946C52.7922 386.009 53.1699 387.017 54.0094 387.492C54.8768 387.996 55.4225 387.562 55.4225 386.443V382.023L56.9895 382.918V390.43L55.4505 389.548V389.241C55.4505 389.003 55.4785 388.765 55.5204 388.555C55.1846 389.087 54.639 389.352 53.5477 388.737C52.2185 387.982 51.2391 386.345 51.2391 384.373V384.359Z" fill="white"/>
<path d="M61.5228 389.777V387.007L59.2982 385.734V384.238L61.5228 385.51V382.797L63.0758 383.692V386.406L65.6922 387.902V389.399L63.0758 387.902V390.504C63.0758 392.085 63.8314 392.924 64.9367 393.553C65.2445 393.721 65.5383 393.861 65.8041 393.973V395.47C65.4963 395.386 65.1185 395.232 64.6988 394.994C62.852 393.931 61.5228 392.224 61.5228 389.791V389.777Z" fill="white"/>
<path d="M68.394 393.188C68.394 390.81 69.7092 389.957 71.5281 390.992C73.4449 392.083 74.5222 394.307 74.5222 396.755V397.174L69.989 394.587C70.017 395.79 70.6326 397.049 71.57 397.58C72.2416 397.972 72.8013 397.818 72.9132 397.104L74.4802 398C74.3543 399.468 73.249 400.028 71.57 399.063C69.7092 398 68.394 395.79 68.394 393.202V393.188ZM71.5141 392.391C70.6746 391.901 70.073 392.293 69.989 393.216L72.9412 394.908C72.9412 393.887 72.3675 392.866 71.5281 392.391H71.5141Z" fill="white"/>
<path d="M181.845 285.01L181.663 362.081L122.018 396.7L0.784912 326.161V249.09L60.7371 214.387L181.845 285.01Z" fill="#547796" stroke="white" stroke-width="0.75" stroke-miterlimit="10"/>
<path d="M60.905 214.289L181.873 284.828L122.2 319.475L122.088 319.531L121.976 319.475L0.784912 248.95L60.6811 214.275L60.7931 214.219L60.905 214.275V214.289Z" fill="#547796" stroke="white" stroke-width="0.75" stroke-miterlimit="10" stroke-linecap="round"/>
<path d="M121.879 319.656V396.713" stroke="white" stroke-width="0.75" stroke-miterlimit="10" stroke-linecap="round"/>
<path d="M16.2191 272.768L17.954 273.761C18.0379 275.3 18.7515 276.489 19.8848 277.132C20.7522 277.636 21.5357 277.566 21.5357 276.573C21.5357 275.776 21.06 275.118 20.0806 274.279L18.8774 273.258C17.6322 272.195 16.5409 270.586 16.5409 268.852C16.5409 266.949 18.0099 266.446 19.7868 267.467C21.7596 268.6 23.0188 270.768 23.1167 272.908L21.3818 271.915C21.3398 270.908 20.7522 269.719 19.6889 269.117C18.9054 268.67 18.2058 268.768 18.2058 269.621C18.2058 270.474 18.7795 271.076 19.6749 271.859L20.7802 272.824C22.1233 273.971 23.1867 275.482 23.1867 277.286C23.1867 279.286 21.8015 279.958 19.7868 278.811C17.6042 277.566 16.345 275.272 16.2051 272.782L16.2191 272.768Z" fill="white"/>
<path d="M27.076 279.429V276.659L24.8514 275.387V273.89L27.076 275.163V272.449L28.6291 273.344V276.058L31.2454 277.555V279.051L28.6291 277.555V280.156C28.6291 281.737 29.3846 282.576 30.4899 283.206C30.7977 283.373 31.0915 283.513 31.3573 283.625V285.122C31.0495 285.038 30.6718 284.884 30.252 284.646C28.4052 283.583 27.076 281.877 27.076 279.443V279.429Z" fill="white"/>
<path d="M33.7502 282.787C33.7502 280.326 35.0794 279.514 36.9542 280.591C38.829 281.668 40.1582 283.99 40.1582 286.452C40.1582 288.914 38.829 289.697 36.9542 288.62C35.0654 287.543 33.7502 285.277 33.7502 282.787ZM38.5632 285.543C38.5632 283.906 37.9056 282.62 36.9402 282.074C35.9888 281.529 35.3173 282.046 35.3173 283.683C35.3173 285.319 35.9609 286.578 36.9402 287.138C37.9056 287.697 38.5632 287.138 38.5632 285.543Z" fill="white"/>
<path d="M43.5298 284.602L45.0828 285.497V286.378C45.0828 286.658 45.0828 286.895 45.0408 287.203C45.4466 286.406 46.3 285.958 47.7271 286.77C48.0629 286.951 48.2728 287.119 48.5106 287.273V289.078C48.3008 288.924 48.0489 288.756 47.6992 288.546C46.2301 287.707 45.0968 287.833 45.0968 289.777V293.008L43.5438 292.113V284.602H43.5298Z" fill="white"/>
<path d="M51.2968 294.494C51.2968 292.801 52.3881 292.857 53.7592 293.431L54.7526 293.851C55.2563 294.06 55.4242 293.934 55.4242 293.529C55.4242 293.011 55.0604 292.368 54.3329 291.948C53.5354 291.501 53.0737 291.71 53.0177 292.466L51.4087 291.543C51.4927 290.032 52.57 289.528 54.2629 290.507C56.2217 291.626 56.9772 293.263 56.9772 295.361V299.823L55.5221 298.984V298.676C55.5221 298.424 55.5501 298.215 55.5781 297.991C55.2563 298.55 54.5987 298.732 53.4374 298.075C52.2762 297.403 51.2688 295.935 51.2688 294.494H51.2968ZM55.4801 296.047V295.235C55.3962 295.291 55.1444 295.277 54.7806 295.137L54.123 294.9C53.3675 294.62 52.8918 294.634 52.8918 295.347C52.8918 296.005 53.3255 296.606 53.9271 296.956C54.8226 297.473 55.4941 297.124 55.4941 296.061L55.4801 296.047Z" fill="white"/>
<path d="M59.9021 302.004L61.4831 302.913C61.525 303.822 61.9867 304.619 62.8402 305.109C63.6377 305.57 64.3373 305.375 64.3373 304.256V303.444C64.3373 303.109 64.3373 302.801 64.3932 302.535C64.0295 302.997 63.4139 303.22 62.4485 302.675C60.8115 301.738 59.6362 299.64 59.6362 297.262C59.6362 294.884 61.0074 294.366 62.3505 295.136C63.4418 295.765 64.0155 296.618 64.3792 297.625C64.3233 297.332 64.3233 297.122 64.3233 296.856V296.52L65.8763 297.416V304.689C65.8763 307.151 64.6171 307.613 62.7703 306.563C60.9374 305.514 59.8881 303.724 59.8881 302.018L59.9021 302.004ZM64.4352 299.989C64.4352 298.758 63.7776 297.43 62.8542 296.898C61.9168 296.367 61.2312 296.926 61.2312 298.157C61.2312 299.528 61.9028 300.857 62.8542 301.388C63.7776 301.92 64.4352 301.374 64.4352 299.989Z" fill="white"/>
<path d="M68.3932 302.579C68.3932 300.201 69.7084 299.347 71.5272 300.383C73.444 301.474 74.5213 303.698 74.5213 306.145V306.565L69.9882 303.977C70.0162 305.18 70.6318 306.439 71.5692 306.971C72.2408 307.362 72.8004 307.208 72.9123 306.495L74.4793 307.39C74.3534 308.859 73.2481 309.418 71.5692 308.453C69.7084 307.39 68.3932 305.18 68.3932 302.593V302.579ZM71.5132 301.781C70.6737 301.292 70.0721 301.683 69.9882 302.607L72.9403 304.299C72.9403 303.278 72.3667 302.257 71.5272 301.781H71.5132Z" fill="white"/>
<path d="M328.794 370.446L328.612 447.517L268.967 482.136L127.181 399.54V322.469L187.133 287.766L328.794 370.432V370.446Z" fill="#547796" stroke="white" stroke-width="0.75" stroke-miterlimit="10"/>
<path d="M187.301 287.681L328.822 370.263L269.15 404.91L269.038 404.966L268.926 404.91L127.195 322.356L187.092 287.681L187.203 287.625L187.315 287.681H187.301Z" fill="#547796" stroke="white" stroke-width="0.75" stroke-miterlimit="10" stroke-linecap="round"/>
<path d="M269.248 405.102V482.145" stroke="white" stroke-width="0.75" stroke-miterlimit="10" stroke-linecap="round"/>
<path d="M144.855 339.754L147.205 341.097L149.836 351.364C149.794 350.734 149.794 350.147 149.794 349.559V342.593L151.263 343.433V354.203L148.912 352.86L146.268 342.579C146.324 343.195 146.324 343.754 146.324 344.314V351.378L144.855 350.538V339.768V339.754Z" fill="white"/>
<path d="M153.655 351.809C153.655 349.431 154.97 348.578 156.789 349.613C158.706 350.704 159.783 352.928 159.783 355.376V355.795L155.25 353.208C155.278 354.411 155.894 355.67 156.831 356.201C157.503 356.593 158.062 356.439 158.174 355.726L159.741 356.621C159.615 358.089 158.51 358.649 156.831 357.684C154.97 356.621 153.655 354.411 153.655 351.823V351.809ZM156.775 350.998C155.936 350.522 155.334 350.9 155.25 351.823L158.202 353.516C158.202 352.494 157.629 351.473 156.789 350.998H156.775Z" fill="white"/>
<path d="M164.019 358.257V355.488L161.794 354.215V352.718L164.019 353.991V351.277L165.572 352.173V354.886L168.188 356.383V357.879L165.572 356.383V358.984C165.572 360.565 166.328 361.404 167.433 362.034C167.741 362.202 168.034 362.341 168.3 362.453V363.95C167.993 363.866 167.615 363.712 167.195 363.474C165.348 362.411 164.019 360.705 164.019 358.271V358.257Z" fill="white"/>
<path d="M170.344 357.631L171.813 358.47L172.331 363.828C172.359 364.037 172.373 364.317 172.387 364.527L172.499 363.912L173.143 361.03L174.696 361.925L175.297 365.52C175.339 365.744 175.381 366.038 175.409 366.261L175.479 365.632L176.039 360.89L177.438 361.688L176.221 368.499L174.64 367.59L173.982 363.688C173.94 363.478 173.912 363.268 173.884 362.988C173.842 363.226 173.814 363.408 173.786 363.576L173.101 366.709L171.548 365.814L170.358 357.617L170.344 357.631Z" fill="white"/>
<path d="M179.313 366.541C179.313 364.08 180.642 363.268 182.517 364.345C184.392 365.422 185.721 367.744 185.721 370.206C185.721 372.668 184.392 373.451 182.517 372.374C180.628 371.297 179.313 369.031 179.313 366.541ZM184.14 369.311C184.14 367.674 183.482 366.387 182.517 365.842C181.566 365.296 180.894 365.828 180.894 367.451C180.894 369.073 181.538 370.346 182.517 370.905C183.482 371.465 184.14 370.905 184.14 369.311Z" fill="white"/>
<path d="M189.105 368.359L190.658 369.255V370.136C190.658 370.416 190.658 370.653 190.616 370.961C191.021 370.164 191.875 369.716 193.302 370.527C193.638 370.723 193.848 370.877 194.085 371.031V372.835C193.876 372.681 193.624 372.514 193.274 372.304C191.805 371.465 190.672 371.59 190.672 373.535V376.766L189.119 375.871V368.359H189.105Z" fill="white"/>
<path d="M197.203 369.746L198.756 370.641V376.88C198.882 376.74 199.064 376.572 199.204 376.474L200.995 375.187L203.023 376.348L200.435 378.069L203.219 383.971L201.218 382.824L199.4 378.74L198.756 379.174V381.426L197.203 380.53V369.76V369.746Z" fill="white"/>
<path d="M205.209 383.606L208.021 385.215V380.697L205.74 379.396V377.899L209.588 380.095V386.11L211.995 387.495V388.991L205.223 385.117V383.62L205.209 383.606ZM207.811 375.871L209.602 376.892V379.004L207.811 377.983V375.871Z" fill="white"/>
<path d="M214.179 382.723L215.732 383.618V383.954C215.732 384.163 215.732 384.387 215.676 384.667C216.026 384.107 216.614 383.87 217.649 384.471C219.076 385.296 219.916 386.961 219.916 388.835V393.535L218.349 392.64V388.22C218.349 387.101 217.915 386.122 217.117 385.674C216.292 385.198 215.718 385.702 215.718 386.765V391.129L214.165 390.234V382.723H214.179Z" fill="white"/>
<path d="M222.696 395.638L224.277 396.547C224.319 397.456 224.78 398.254 225.634 398.743C226.431 399.205 227.131 399.009 227.131 397.89V397.079C227.131 396.743 227.131 396.435 227.187 396.183C226.823 396.645 226.207 396.869 225.242 396.323C223.605 395.386 222.43 393.288 222.43 390.91C222.43 388.532 223.801 388.015 225.144 388.784C226.235 389.414 226.809 390.267 227.173 391.274C227.117 390.98 227.117 390.77 227.117 390.505V390.169L228.67 391.064V398.338C228.67 400.799 227.411 401.261 225.564 400.212C223.717 399.163 222.682 397.372 222.682 395.666L222.696 395.638ZM227.215 393.624C227.215 392.393 226.557 391.064 225.634 390.533C224.696 390.001 224.011 390.561 224.011 391.791C224.011 393.162 224.682 394.491 225.634 395.023C226.557 395.554 227.215 395.009 227.215 393.624Z" fill="white"/>
<path d="M328.794 278.825L328.612 355.896L268.968 390.515L0.784912 235.884V158.812L60.7371 124.109L328.794 278.839V278.825Z" fill="#547796" stroke="white" stroke-width="0.75" stroke-miterlimit="10"/>
<path d="M60.905 123.997L328.808 278.643L269.136 313.29L269.024 313.346L268.912 313.29L0.784912 158.672L60.6811 123.997L60.7931 123.941L60.905 123.997Z" fill="#547796" stroke="white" stroke-width="0.75" stroke-miterlimit="10" stroke-linecap="round"/>
<path d="M269.248 313.469V390.512" stroke="white" stroke-width="0.75" stroke-miterlimit="10" stroke-linecap="round"/>
<path d="M16.1929 182.871C16.1929 179.667 17.3541 177.877 19.7047 179.22C22.0552 180.563 23.2164 183.696 23.2164 186.885C23.2164 190.074 21.9992 191.85 19.7047 190.536C17.4101 189.221 16.1929 186.06 16.1929 182.857V182.871ZM21.4955 185.906C21.4955 183.598 20.9359 181.626 19.7047 180.926C18.4734 180.227 17.9138 181.556 17.9138 183.864C17.9138 186.172 18.5574 188.186 19.7047 188.843C20.8519 189.501 21.4955 188.2 21.4955 185.906Z" fill="white"/>
<path d="M26.3069 186.535L27.8599 187.43V188.312C27.8599 188.591 27.8599 188.829 27.8179 189.137C28.2237 188.34 29.0771 187.892 30.5042 188.703C30.84 188.899 31.0499 189.053 31.2877 189.207V191.011C31.0779 190.857 30.826 190.689 30.4763 190.48C29.0072 189.64 27.8739 189.78 27.8739 191.711V194.942L26.3209 194.046V186.535H26.3069Z" fill="white"/>
<path d="M33.9474 194.658C33.9474 192.154 35.3605 191.468 37.1794 192.503C38.9982 193.539 39.9776 195.427 40.1315 197.273L38.5505 196.364C38.4945 195.483 38.0608 194.504 37.1794 194C36.2699 193.483 35.5284 193.944 35.5284 195.581C35.5284 197.077 36.172 198.49 37.1374 199.036C38.0748 199.581 38.5225 199.064 38.6065 198.21L40.1875 199.12C39.9636 200.91 38.9562 201.553 37.0954 200.49C35.1226 199.357 33.9474 197.147 33.9474 194.658Z" fill="white"/>
<path d="M42.9282 192.787L44.4812 193.683V197.291C44.4812 197.501 44.4812 197.725 44.4253 197.991C44.7751 197.445 45.3627 197.193 46.398 197.795C47.8391 198.62 48.6646 200.285 48.6646 202.145V206.845L47.1116 205.95V201.53C47.1116 200.411 46.6779 199.431 45.8804 198.984C45.0549 198.508 44.4952 199.012 44.4952 200.075V204.439L42.9422 203.544V192.773L42.9282 192.787Z" fill="white"/>
<path d="M51.1702 204.508C51.1702 202.13 52.4853 201.277 54.3042 202.312C56.221 203.403 57.2983 205.627 57.2983 208.075V208.495L52.7652 205.907C52.7931 207.11 53.4088 208.369 54.3462 208.9C55.0177 209.292 55.5774 209.138 55.6893 208.425L57.2563 209.32C57.1304 210.789 56.0251 211.348 54.3462 210.383C52.4853 209.32 51.1702 207.11 51.1702 204.522V204.508ZM54.2762 203.711C53.4367 203.235 52.8351 203.613 52.7512 204.536L55.7033 206.229C55.7033 205.208 55.1297 204.187 54.2902 203.711H54.2762Z" fill="white"/>
<path d="M59.9967 210.747L61.5777 211.656C61.6196 212.565 62.0674 213.391 62.9068 213.88C63.6064 214.286 64.0401 214.132 64.0401 213.559C64.0401 213.055 63.6903 212.621 63.0327 212.09L62.2772 211.474C60.976 210.425 60.2205 209.25 60.2205 208.005C60.2205 206.691 61.2559 206.299 62.7809 207.18C64.4459 208.131 65.4812 209.782 65.5372 211.376L63.9841 210.481C63.9282 209.712 63.4805 208.985 62.7809 208.579C62.1933 208.243 61.7595 208.271 61.7595 208.817C61.7595 209.264 61.9974 209.628 62.7949 210.271L63.5504 210.887C64.7816 211.88 65.5791 213.013 65.5791 214.342C65.5791 215.769 64.5438 216.23 62.9348 215.307C61.1579 214.286 60.0806 212.565 59.9827 210.761L59.9967 210.747Z" fill="white"/>
<path d="M70.1395 215.894V213.124L67.9149 211.851V210.355L70.1395 211.628V208.914L71.6925 209.809V212.523L74.3089 214.019V215.516L71.6925 214.019V216.621C71.6925 218.202 72.4481 219.041 73.5534 219.67C73.8612 219.852 74.155 219.978 74.4208 220.09V221.587C74.113 221.503 73.7352 221.349 73.3155 221.111C71.4687 220.048 70.1395 218.342 70.1395 215.908V215.894Z" fill="white"/>
<path d="M77.986 216.133L79.539 217.028V217.909C79.539 218.189 79.539 218.427 79.497 218.734C79.9028 217.937 80.7562 217.49 82.1833 218.301C82.5191 218.497 82.729 218.651 82.9668 218.804V220.609C82.757 220.455 82.5051 220.287 82.1553 220.077C80.6863 219.238 79.553 219.364 79.553 221.308V224.539L78 223.644V216.133H77.986Z" fill="white"/>
<path d="M85.7547 226.023C85.7547 224.33 86.846 224.386 88.2171 224.96L89.2105 225.379C89.7142 225.589 89.8821 225.463 89.8821 225.058C89.8821 224.54 89.5183 223.897 88.7908 223.477C87.9933 223.03 87.5315 223.239 87.4756 224.009L85.8666 223.086C85.9505 221.575 87.0279 221.071 88.7208 222.05C90.6796 223.169 91.4351 224.806 91.4351 226.904V231.366L89.98 230.541V230.233C89.98 229.981 90.008 229.772 90.036 229.548C89.7142 230.107 89.0566 230.289 87.8953 229.632C86.734 228.974 85.7267 227.492 85.7267 226.051L85.7547 226.023ZM89.938 227.576V226.764C89.8541 226.82 89.6022 226.806 89.2385 226.666L88.5809 226.429C87.8254 226.149 87.3497 226.163 87.3497 226.876C87.3497 227.534 87.7834 228.135 88.385 228.485C89.2804 229.002 89.952 228.639 89.952 227.59L89.938 227.576Z" fill="white"/>
<path d="M95.9922 230.695V227.925L93.7676 226.652V225.156L95.9922 226.428V223.715L97.5452 224.61V227.324L100.162 228.82V230.317L97.5452 228.82V231.422C97.5452 233.003 98.3007 233.842 99.406 234.471C99.7138 234.639 100.008 234.779 100.273 234.891V236.388C99.9657 236.304 99.5879 236.15 99.1682 235.912C97.3213 234.849 95.9922 233.142 95.9922 230.709V230.695Z" fill="white"/>
<path d="M102.712 236.303L105.524 237.912V233.394L103.243 232.079V230.582L107.091 232.778V238.793L109.497 240.178V241.674L102.726 237.8V236.303H102.712ZM105.314 228.582L107.105 229.603V231.715L105.314 230.694V228.582Z" fill="white"/>
<path d="M111.274 238.971C111.274 236.509 112.603 235.698 114.478 236.775C116.353 237.852 117.682 240.174 117.682 242.636C117.682 245.098 116.353 245.881 114.478 244.804C112.589 243.727 111.274 241.461 111.274 238.971ZM116.101 241.741C116.101 240.104 115.443 238.817 114.478 238.272C113.526 237.726 112.855 238.244 112.855 239.88C112.855 241.517 113.498 242.776 114.478 243.335C115.443 243.895 116.101 243.335 116.101 241.741Z" fill="white"/>
<path d="M120.297 240.358L121.85 241.253V241.589C121.85 241.798 121.85 242.022 121.794 242.302C122.144 241.743 122.732 241.505 123.767 242.106C125.194 242.917 126.034 244.596 126.034 246.456V251.156L124.467 250.261V245.841C124.467 244.722 124.033 243.743 123.236 243.295C122.41 242.82 121.836 243.323 121.836 244.386V248.75L120.283 247.855V240.344L120.297 240.358Z" fill="white"/>
<path d="M328.612 233.085L328.43 264.767L268.968 299.666L0.784912 145.02V113.338L60.5692 78.3555L328.626 233.085H328.612Z" fill="#7799B6" stroke="white" stroke-width="0.75"/>
<path d="M60.7231 78.2552L328.626 232.901L269.122 267.814L269.01 267.87L268.898 267.814L0.784912 113.196L60.5132 78.2552L60.6252 78.1992L60.7371 78.2552H60.7231Z" fill="#7799B6" stroke="white" stroke-width="0.75" stroke-miterlimit="10" stroke-linecap="round"/>
<path d="M269.248 267.996V299.65" stroke="white" stroke-width="0.75" stroke-miterlimit="10" stroke-linecap="round"/>
<path d="M102.63 554.885V546.576L93.5774 541.387V549.695L96.2358 551.22V552.605L87.7291 547.723V549.108L102.63 557.654V556.269L99.9714 554.745V553.36L102.63 554.885ZM99.9714 551.961V549.877L101.566 550.8V552.884L99.9714 551.961ZM98.9081 549.276V551.36L97.3131 550.437V548.353L98.9081 549.276ZM97.3131 546.982V544.898L98.9081 545.821V547.905L97.3131 546.982ZM101.566 549.416L99.9714 548.492V546.408L101.566 547.331V549.416ZM96.2497 544.296V546.38L94.6548 545.471V543.387L96.2497 544.296ZM94.6548 548.912V546.828L96.2497 547.737V549.821L94.6548 548.912ZM98.9081 554.129L97.3131 553.206V551.821L98.9081 552.745V554.129Z" fill="white"/>
<path d="M91.6283 540.94C91.3625 540.479 91.1666 539.975 91.0407 539.472C90.9148 538.968 90.8868 538.479 90.9428 538.059C90.9987 537.639 91.1386 537.29 91.3485 537.038C91.5584 536.8 91.8522 536.66 92.174 536.66C92.4958 536.66 92.8596 536.786 93.2093 537.024C93.5591 537.262 93.9089 537.611 94.2027 538.031C94.4965 538.451 94.7484 538.94 94.9163 539.444C95.0842 539.947 95.1681 540.451 95.1681 540.912L94.1048 540.297C94.1048 540.059 94.0628 539.807 93.9789 539.556C93.8949 539.304 93.769 539.066 93.6291 538.856C93.4752 538.646 93.3073 538.479 93.1254 538.353C92.9435 538.227 92.7756 538.171 92.6077 538.171C92.4398 538.171 92.2999 538.241 92.202 538.353C92.09 538.479 92.0201 538.646 91.9921 538.856C91.9641 539.066 91.9921 539.318 92.0341 539.57C92.0901 539.821 92.202 540.073 92.3279 540.311L91.6143 540.94H91.6283Z" fill="white"/>
<path d="M93.5899 533.065L92.5266 532.449V535.219L93.5899 535.834V533.065Z" fill="white"/>
<path d="M89.8703 537.162L87.7437 535.945V537.33L89.8703 538.547V537.162Z" fill="white"/>
<path d="M89.6692 532.363L88.9137 532.909L90.4247 535.734L91.1803 535.189L89.6692 532.363Z" fill="white"/>
<path d="M94.9325 537.345L95.688 538.758L97.1991 537.667L96.4435 536.254L94.9325 537.345Z" fill="white"/>
<path d="M247.52 632.027C248.457 631.117 249.422 629.635 248.779 627.565C248.135 625.536 246.358 624.487 245.351 624.04C245.127 623.942 244.917 623.872 244.707 623.802L244.609 623.76C244.134 621.508 243.042 618.696 241.531 617.997C240.188 617.368 239.223 618.892 238.789 620.417C237.838 619.62 235.697 618.067 234.788 619.158C233.878 620.235 234.788 622.893 235.431 624.375C235.459 624.431 235.515 624.557 235.585 624.711C235.669 624.907 235.823 625.215 235.865 625.313C235.361 625.774 233.836 627.383 234.62 629.775C235.263 631.789 237.04 632.838 238.034 633.271C238.188 633.341 238.341 633.397 238.481 633.439C238.579 633.467 238.677 633.509 238.761 633.537C238.985 634.432 239.223 635.314 239.573 636.195C240.16 637.677 240.902 638.741 241.657 639.188C241.657 639.188 241.671 639.188 241.685 639.202C242.427 639.622 243.126 639.454 243.714 638.699C244.092 638.223 244.358 637.566 244.595 636.88C245.743 637.803 247.715 639.146 248.583 638.125C249.702 636.81 248.107 633.215 247.506 631.985L247.52 632.027ZM238.034 625.55V627.579L237.166 626.068C237.306 625.956 237.782 625.676 238.034 625.55ZM236.509 624.795C236.019 623.746 235.515 622.557 235.389 621.564C235.291 620.892 235.389 620.459 235.641 620.277C235.977 620.025 236.607 620.221 237.278 620.613C237.684 620.851 238.104 621.144 238.495 621.466C238.341 622.179 238.215 622.991 238.118 623.942C237.46 624.208 236.942 624.487 236.523 624.795H236.509ZM236.509 626.613C237.054 627.634 237.642 628.586 238.104 629.313C238.202 630.348 238.313 631.313 238.481 632.222C237.74 631.957 236.97 631.607 236.257 630.936C235.781 630.474 235.487 629.984 235.375 629.453C235.137 628.236 235.949 627.117 236.495 626.613H236.509ZM240.51 632.642L239.433 632.46L239.195 630.88L240.524 632.642H240.51ZM242.861 624.711L243.938 624.893L244.176 626.474L242.847 624.711H242.861ZM239.475 629.817L239.391 629.691C239.293 629.551 239.069 629.243 239.041 629.173C239.027 629.117 239.013 628.921 239.013 628.865V628.823C238.957 627.956 238.971 627.089 238.985 626.348C238.985 626.25 238.985 626.138 238.985 626.04C238.985 625.746 238.985 625.438 239.041 625.159C239.852 624.865 240.748 624.711 241.699 624.683C242.497 625.606 243.238 626.571 243.938 627.565L243.994 627.634C244.232 627.97 244.372 628.18 244.386 628.222C244.386 628.278 244.386 628.362 244.4 628.432V628.544C244.47 629.411 244.442 630.278 244.428 631.019C244.428 631.117 244.428 631.229 244.428 631.327C244.428 631.621 244.428 631.929 244.372 632.208C243.56 632.502 242.665 632.656 241.713 632.684C240.944 631.789 240.174 630.796 239.489 629.817H239.475ZM239.699 621.242C239.936 620.571 240.216 619.913 240.636 619.522C241.042 619.144 241.461 619.13 241.867 619.466C242.651 620.109 243.308 621.956 243.686 623.522C243.098 623.396 242.469 623.326 241.699 623.298C241.098 622.627 240.412 621.886 239.713 621.242H239.699ZM241.517 637.887C240.734 637.244 240.062 635.328 239.699 633.831C240.286 633.957 240.916 634.027 241.685 634.055C242.287 634.726 242.972 635.467 243.672 636.111C243.448 636.754 243.154 637.44 242.735 637.831C242.329 638.209 241.923 638.223 241.517 637.887ZM239.181 623.592L239.419 622.291L240.496 623.354L239.167 623.592H239.181ZM244.19 633.747L243.952 635.048L242.875 633.985L244.204 633.747H244.19ZM246.218 631.285C246.079 631.397 245.603 631.677 245.351 631.803V629.775L246.218 631.285ZM247.981 627.886C248.219 629.117 247.408 630.222 246.862 630.726C246.428 629.914 245.911 629.047 245.267 628.026C245.169 626.963 245.043 626.012 244.889 625.117C245.589 625.369 246.372 625.704 247.114 626.404C247.59 626.865 247.883 627.355 247.995 627.886H247.981ZM245.253 633.411C245.911 633.146 246.414 632.88 246.848 632.558C247.31 633.537 247.827 634.754 247.967 635.789C248.065 636.447 247.981 636.88 247.729 637.076C247.17 637.482 245.855 636.712 244.861 635.901C245.015 635.188 245.141 634.376 245.239 633.411H245.253Z" fill="white"/>
<path d="M241.463 626.44C240.316 625.95 239.7 627.335 240.288 628.958C240.918 630.692 242.485 631.587 243.1 630.538C243.772 629.377 242.806 627.013 241.463 626.44Z" fill="white"/>
<path d="M175.743 599.422V595.52L181.829 599.016V603.087" fill="black"/>
<path d="M182.345 604.07L181.309 603.469V599.398L176.258 596.503V600.405L175.223 599.804V594.559L182.345 598.643V604.07Z" fill="white"/>
<path d="M178.872 594.68C179.656 595.128 180.425 595.785 181.013 596.541L181.083 596.639C181.685 597.436 181.964 598.177 181.964 598.709C181.964 599.24 181.699 599.674 181.083 599.786C180.467 599.898 179.642 599.674 178.816 599.198C177.991 598.723 177.179 598.023 176.564 597.198L176.508 597.128C175.948 596.345 175.71 595.66 175.724 595.142C175.724 594.61 176.018 594.205 176.648 594.093C177.263 593.995 178.075 594.219 178.886 594.694L178.872 594.68Z" fill="black"/>
<path d="M178.805 599.856C177.854 599.31 176.973 598.513 176.301 597.618L176.245 597.534C175.308 596.247 175.196 595.268 175.21 594.806C175.21 594.33 175.392 593.505 176.385 593.351C177.057 593.239 177.952 593.477 178.875 594.009C179.757 594.526 180.61 595.268 181.268 596.093L181.352 596.205C182.345 597.52 182.485 598.527 182.485 599.002C182.485 599.492 182.331 600.331 181.338 600.513C180.652 600.639 179.757 600.415 178.805 599.869V599.856ZM178.875 595.352C178.134 594.932 177.406 594.736 176.889 594.82C176.483 594.89 176.245 595.114 176.231 595.449C176.231 595.757 176.427 596.205 176.777 596.694L176.833 596.764C177.336 597.436 178.05 598.079 178.805 598.513C179.561 598.946 180.288 599.142 180.82 599.044C181.226 598.974 181.45 598.737 181.45 598.401C181.45 598.079 181.226 597.59 180.834 597.072L180.764 596.974C180.274 596.345 179.603 595.771 178.875 595.352Z" fill="white"/>
<path d="M178.849 586.413C181.017 587.657 182.78 590.972 182.78 593.798C182.78 596.623 181.017 597.91 178.849 596.665C176.68 595.421 174.917 592.105 174.917 589.28C174.917 586.455 176.68 585.168 178.849 586.413Z" fill="black"/>
<path d="M178.853 597.339C176.391 595.926 174.404 592.177 174.404 588.988C174.404 585.799 176.405 584.344 178.853 585.743C181.302 587.142 183.302 590.904 183.302 594.094C183.302 597.283 181.302 598.737 178.853 597.339ZM178.853 587.086C176.964 586.009 175.439 587.114 175.439 589.576C175.439 592.037 176.978 594.905 178.853 595.982C180.728 597.059 182.267 595.954 182.267 593.492C182.267 591.03 180.728 588.163 178.853 587.086Z" fill="white"/>
<path d="M178.596 581.992C179.897 584.608 181.03 586.804 181.828 588.832C182.639 590.916 183.073 592.805 182.947 594.805C182.863 596.217 182.121 597.155 180.862 597.169C180.974 597.085 181.086 596.987 181.184 596.875C182.513 595.364 181.072 591.056 179.435 587.349C179.211 588.524 178.903 590.399 178.386 591.504C178.19 590.678 177.882 589.727 177.504 589.056L177.378 588.818L177.308 588.986L176.399 591.168C176.287 591.448 176.203 591.769 176.161 592.133C176.119 592.679 176.189 593.196 176.357 593.756C176.455 594.077 176.595 594.427 176.763 594.777C174.594 592.119 174.132 588.203 175.448 586.454C176.945 584.468 177.742 583.321 178.176 582.65C178.386 582.314 178.512 582.118 178.596 581.992Z" fill="black"/>
<path d="M181.074 597.897L180.487 596.471C180.598 596.387 180.682 596.303 180.766 596.219C181.746 595.114 180.85 591.981 179.689 589.085C179.493 590.106 179.227 591.253 178.85 592.051L178.318 593.17L177.898 591.435C177.786 590.974 177.646 590.526 177.506 590.148L176.863 591.701C176.765 591.953 176.695 592.219 176.667 592.484C176.639 592.89 176.667 593.268 176.821 593.715C176.905 593.967 177.003 594.247 177.157 594.568L176.527 595.24C175.436 593.897 174.652 592.191 174.344 590.442C174.009 588.554 174.26 586.833 175.03 585.812C176.233 584.218 177.143 582.945 177.744 582.036C177.954 581.714 178.08 581.504 178.15 581.392L178.5 580.805L178.976 581.742C179.157 582.106 179.339 582.469 179.507 582.805C180.598 584.987 181.55 586.875 182.249 588.694C183.201 591.155 183.579 593.142 183.453 595.142C183.341 596.848 182.445 597.869 181.06 597.897H181.074ZM178.696 583.155C178.696 583.155 178.654 583.225 178.626 583.253C178.01 584.19 177.087 585.463 175.883 587.071C175.282 587.868 175.086 589.211 175.352 590.68C175.422 591.072 175.52 591.449 175.646 591.827C175.646 591.799 175.646 591.785 175.646 591.757C175.674 591.351 175.772 590.974 175.911 590.624L177.185 587.561L177.842 588.75C178.024 589.071 178.178 589.421 178.318 589.771C178.542 588.987 178.696 588.092 178.836 587.365L179.157 585.63L179.829 587.155C181.41 590.736 182.207 593.519 182.207 595.394C182.319 595.128 182.403 594.806 182.417 594.443C182.529 592.75 182.207 591.058 181.382 588.931C180.724 587.239 179.801 585.407 178.738 583.281C178.71 583.239 178.696 583.197 178.668 583.141L178.696 583.155Z" fill="white"/>
<path d="M154.882 578.817C154.812 577.936 154.602 577.013 154.28 576.076L155.287 574.635L153.287 573.488L153.608 568.9L152.755 569.026C152.755 569.026 152.657 569.04 152.055 569.879C151.985 569.683 151.915 569.501 151.845 569.306C151.398 568.047 150.922 566.746 150.488 565.473C150.334 565.053 150.153 564.718 149.929 564.438C149.845 564.34 149.747 564.27 149.663 564.214C149.565 564.158 149.467 564.13 149.369 564.144C149.187 564.172 149.033 564.284 148.907 564.466C148.851 564.536 148.809 564.62 148.767 564.704C148.739 564.76 148.711 564.802 148.683 564.844C148.334 565.403 147.984 565.977 147.648 566.536L146.599 568.27C146.221 568.886 145.857 569.501 145.479 570.117C145.424 570.201 145.382 570.285 145.326 570.355C145.144 570.662 144.948 570.97 144.794 571.376C144.444 572.327 144.346 573.502 144.486 574.859C144.584 575.754 144.808 576.663 145.13 577.572C145.731 579.223 146.571 580.677 147.648 581.88C148.236 582.538 148.865 583.069 149.579 583.517C149.621 583.545 149.649 583.559 149.691 583.587C149.887 583.699 150.069 583.769 150.222 583.839L150.348 583.895C151.02 584.188 151.692 584.272 152.307 584.16C153.175 583.992 153.86 583.461 154.336 582.552C154.7 581.866 154.896 580.985 154.924 579.88C154.924 579.558 154.91 579.237 154.882 578.929V578.817ZM153.371 574.887L151.817 577.097L151.985 574.957L150.74 574.243C151.244 573.53 151.831 572.691 152.321 571.991L152.167 574.187L153.385 574.887H153.371ZM153.329 581.279C152.951 581.992 152.419 582.412 151.734 582.538C151.244 582.636 150.74 582.566 150.222 582.342L150.083 582.286C149.915 582.216 149.761 582.146 149.621 582.062C149.047 581.699 148.544 581.265 148.082 580.761C147.228 579.81 146.585 578.705 146.109 577.39C145.857 576.691 145.689 575.992 145.619 575.306C145.493 574.229 145.577 573.334 145.857 572.565C145.969 572.257 146.137 571.991 146.305 571.725C146.361 571.641 146.417 571.558 146.459 571.474C146.837 570.858 147.2 570.243 147.578 569.627L148.628 567.893C148.963 567.333 149.313 566.76 149.663 566.214C149.663 566.214 149.663 566.214 149.663 566.2C150.055 567.319 150.46 568.438 150.852 569.529C151.02 569.991 151.188 570.453 151.342 570.914C150.866 571.6 150.209 572.523 149.327 573.796L148.809 574.537L150.824 575.698L150.558 579.027L151.51 580.006L153.51 577.153C153.608 577.558 153.678 577.964 153.72 578.369V578.481C153.748 578.747 153.776 578.985 153.762 579.209C153.734 580.09 153.58 580.775 153.301 581.307L153.329 581.279Z" fill="white"/>
<path d="M203.349 606.959C203.572 607.336 203.852 607.63 204.146 607.798C204.44 607.966 204.72 607.994 204.944 607.882C205.167 607.77 205.321 607.504 205.363 607.169C205.419 606.819 205.363 606.399 205.209 605.994C205.056 605.588 204.832 605.196 204.552 604.917V599.308L203.726 598.832V604.441C203.447 604.413 203.223 604.525 203.069 604.763C202.915 605.001 202.873 605.364 202.915 605.77C202.971 606.175 203.111 606.595 203.335 606.973L203.349 606.959Z" fill="white"/>
<path d="M202.552 608.4C203.027 609.085 203.587 609.617 204.161 609.952C204.734 610.274 205.294 610.386 205.77 610.246C206.245 610.106 206.623 609.743 206.833 609.183C207.057 608.624 207.113 607.91 207.015 607.113C206.903 606.316 206.637 605.49 206.245 604.735V600.245C206.245 599.532 206.021 598.72 205.644 597.993C205.252 597.266 204.734 596.678 204.175 596.37C203.615 596.063 203.097 596.035 202.705 596.315C202.314 596.594 202.104 597.154 202.104 597.867V602.357C201.698 602.665 201.432 603.168 201.334 603.84C201.222 604.511 201.292 605.295 201.516 606.106C201.74 606.917 202.104 607.714 202.58 608.4H202.552ZM202.146 604.399C202.244 603.924 202.468 603.574 202.775 603.392L202.915 603.308V598.343C202.915 597.909 203.041 597.573 203.279 597.406C203.517 597.238 203.825 597.252 204.161 597.434C204.496 597.629 204.804 597.979 205.042 598.413C205.28 598.846 205.406 599.336 205.406 599.769V604.735L205.546 604.973C205.853 605.518 206.077 606.12 206.175 606.707C206.273 607.295 206.245 607.84 206.091 608.26C205.937 608.679 205.672 608.973 205.336 609.085C204.986 609.197 204.58 609.127 204.161 608.889C203.741 608.652 203.335 608.246 202.985 607.742C202.635 607.239 202.37 606.637 202.23 606.05C202.076 605.448 202.048 604.889 202.146 604.413V604.399Z" fill="white"/>
<path d="M200.368 608.746V609.921L215.325 618.509V617.334L200.368 608.746Z" fill="white"/>
<path d="M209.87 611.435L210.709 612.288L214.599 606.763L212.556 605.588L212.78 601.672L212.122 600.902C212.122 600.902 212.08 601 208.555 605.91L208.093 606.567L210.164 607.756L209.884 611.421L209.87 611.435ZM209.772 606.371C210.388 605.49 211.157 604.399 211.745 603.56L211.549 606.218L212.906 607.001L210.947 609.77L211.143 607.169L209.744 606.371H209.772Z" fill="white"/>
<path d="M202.191 614.186L202.877 615.473L204.122 614.564V619.096L205.088 619.641V615.123L206.347 617.459L207.032 616.955L204.612 612.438L202.191 614.186Z" fill="white"/>
<path d="M208.68 617.913L209.352 619.199L210.611 618.29V622.822L211.576 623.368V618.85L212.822 621.186L213.507 620.682L211.087 616.164L208.68 617.913Z" fill="white"/>
<path d="M119.949 554.301C119.949 553.601 119.739 552.79 119.348 552.077C118.97 551.363 118.438 550.776 117.906 550.468C117.375 550.16 116.843 550.132 116.465 550.412C116.088 550.692 115.864 551.237 115.864 551.951L116.885 552.538C116.885 552.273 116.941 552.049 117.053 551.895C117.165 551.741 117.319 551.657 117.515 551.671C117.697 551.671 117.906 551.769 118.102 551.937C118.298 552.105 118.48 552.328 118.62 552.594C118.76 552.86 118.858 553.154 118.9 553.434C118.942 553.713 118.914 553.965 118.844 554.175C118.76 554.371 118.634 554.511 118.466 554.552C118.298 554.608 118.102 554.566 117.892 554.455L113.807 552.105V553.434L117.892 555.783C118.438 556.091 118.956 556.105 119.334 555.839C119.711 555.56 119.935 555.014 119.935 554.301H119.949Z" fill="white"/>
<path d="M122.723 567.769V559.67C123.03 559.712 123.296 559.6 123.478 559.362L127.871 563.419L128.137 562.286L123.744 558.229C123.716 557.754 123.562 557.236 123.324 556.761C123.072 556.285 122.751 555.894 122.401 555.642L121.296 549.669L120.302 549.445L121.393 555.362C121.072 555.432 120.848 555.712 120.736 556.117C120.638 556.523 120.666 557.041 120.834 557.572L117.616 559.908L118.343 561.265L121.561 558.929C121.561 558.929 121.659 559.041 121.701 559.083V567.181L115.055 563.363V564.692L129.354 572.902V571.574L122.709 567.755L122.723 567.769ZM122.723 557.796C122.723 557.922 122.695 558.034 122.639 558.118C122.583 558.201 122.499 558.229 122.415 558.229C122.317 558.229 122.219 558.174 122.121 558.104C122.023 558.02 121.925 557.908 121.855 557.768C121.785 557.628 121.729 557.488 121.715 557.348C121.701 557.208 121.715 557.082 121.743 556.985C121.785 556.887 121.841 556.817 121.925 556.789C122.009 556.761 122.107 556.789 122.205 556.845C122.345 556.929 122.471 557.068 122.569 557.25C122.667 557.432 122.723 557.628 122.723 557.81V557.796Z" fill="white"/>
<path d="M373.903 229.319V232.284C373.903 235.291 371.972 238.313 368.405 240.355C365.103 242.243 362.934 241.684 362.934 238.606V235.585L373.903 229.305V229.319ZM368.391 238.285C370.755 236.928 372.154 235.068 372.154 233.305V232.354L364.669 236.648V237.613C364.669 239.166 365.858 239.739 368.405 238.299L368.391 238.285Z" fill="white"/>
<path d="M366.768 243.746C369.175 242.361 370.826 243.004 370.826 245.186C370.826 247.494 369.189 249.732 366.698 251.159L366.279 251.397V245.928C365.075 246.655 364.152 247.914 364.152 249.061C364.152 249.872 364.628 250.264 365.425 249.956V251.844C363.858 252.586 362.655 251.956 362.655 249.928C362.655 247.676 364.124 245.256 366.782 243.732L366.768 243.746ZM369.399 245.997C369.399 244.976 368.657 244.683 367.664 245.144V248.697C368.699 248.096 369.399 247.005 369.399 245.997Z" fill="white"/>
<path d="M370.571 251.686V253.714L365.52 258.246C365.184 258.554 364.918 258.778 364.527 259.085C364.918 258.931 365.184 258.861 365.52 258.778L370.571 257.519V259.463L362.918 261.085V258.903L370.571 251.672V251.686Z" fill="white"/>
<path d="M366.768 264.519C369.175 263.134 370.826 263.778 370.826 265.96C370.826 268.268 369.189 270.506 366.698 271.932L366.279 272.17V266.701C365.075 267.428 364.152 268.687 364.152 269.834C364.152 270.645 364.628 271.037 365.425 270.729V272.618C363.858 273.359 362.655 272.73 362.655 270.701C362.655 268.449 364.124 266.03 366.782 264.505L366.768 264.519ZM369.399 266.771C369.399 265.75 368.657 265.456 367.664 265.918V269.471C368.699 268.869 369.399 267.778 369.399 266.771Z" fill="white"/>
<path d="M364.445 275.985V279.453L372.378 274.908V272.082L373.903 271.215V275.929L364.459 281.342V284.307L362.934 285.174V276.866L364.459 275.999L364.445 275.985Z" fill="white"/>
<path d="M366.726 285.075C369.231 283.635 370.826 284.32 370.826 286.586C370.826 288.852 369.231 291.356 366.726 292.796C364.18 294.251 362.655 293.524 362.655 291.272C362.655 289.02 364.194 286.53 366.726 285.075ZM366.726 290.894C368.391 289.943 369.315 288.614 369.315 287.453C369.315 286.292 368.391 286.026 366.726 286.978C365.089 287.915 364.152 289.216 364.152 290.404C364.152 291.593 365.089 291.817 366.726 290.88V290.894Z" fill="white"/>
<path d="M370.57 293.609V295.484L370.22 295.68C369.982 295.819 369.786 295.917 369.465 296.043C370.276 296.071 370.808 296.547 370.808 297.736C370.808 299.722 369.115 302.002 366.68 303.387C364.204 304.799 362.623 304.254 362.623 302.338C362.623 301.079 363.169 300.114 363.952 299.19C363.644 299.414 363.434 299.554 363.21 299.68L359.699 301.694V299.82L370.542 293.609H370.57ZM366.736 301.47C368.247 300.603 369.311 299.274 369.311 298.071C369.311 296.952 368.317 296.701 366.736 297.61C365.197 298.491 364.148 299.89 364.148 301.037C364.148 302.184 365.197 302.366 366.736 301.484V301.47Z" fill="white"/>
<path d="M366.768 306.054C369.175 304.669 370.826 305.313 370.826 307.495C370.826 309.803 369.189 312.041 366.698 313.467L366.279 313.705V308.236C365.075 308.964 364.152 310.222 364.152 311.369C364.152 312.181 364.628 312.572 365.425 312.265V314.153C363.858 314.894 362.655 314.265 362.655 312.237C362.655 309.985 364.124 307.565 366.782 306.04L366.768 306.054ZM369.399 308.306C369.399 307.285 368.657 306.991 367.664 307.453V311.006C368.699 310.39 369.399 309.313 369.399 308.306Z" fill="white"/>
<path d="M370.571 315.445V317.32L369.675 317.837C369.396 318.005 369.144 318.145 368.808 318.285C369.857 318.173 370.809 318.662 370.809 320.369C370.809 320.775 370.781 321.054 370.753 321.348L368.92 322.397C368.948 322.131 368.976 321.81 368.976 321.376C368.976 319.6 368.178 318.69 366.206 319.823L362.918 321.712V319.837L370.571 315.459V315.445Z" fill="white"/>
<path d="M370.57 335.152V337.027L370.22 337.222C369.982 337.362 369.786 337.46 369.465 337.586C370.276 337.614 370.808 338.09 370.808 339.279C370.808 341.265 369.115 343.545 366.68 344.93C364.204 346.342 362.623 345.797 362.623 343.881C362.623 342.622 363.169 341.657 363.952 340.733C363.644 340.957 363.434 341.097 363.21 341.223L359.699 343.237V341.363L370.542 335.152H370.57ZM366.736 343.013C368.247 342.146 369.311 340.817 369.311 339.614C369.311 338.495 368.317 338.244 366.736 339.153C365.197 340.034 364.148 341.433 364.148 342.58C364.148 343.727 365.197 343.909 366.736 343.027V343.013Z" fill="white"/>
<path d="M364.445 348.674V352.129L372.378 347.583V344.758L373.903 343.891V348.604L364.459 354.018V356.983L362.934 357.85V349.542L364.459 348.674H364.445Z" fill="white"/>
<path d="M365.031 359.14C366.752 358.147 367.339 359.14 367.549 360.665L367.703 361.77C367.787 362.329 368.011 362.413 368.417 362.175C368.948 361.868 369.382 361.182 369.382 360.315C369.382 359.364 368.878 359.084 368.081 359.476V357.532C369.676 356.72 370.809 357.364 370.809 359.42C370.809 361.77 369.592 363.392 367.451 364.609L362.904 367.211V365.463L363.212 365.281C363.464 365.141 363.702 365.029 363.953 364.931C363.198 364.973 362.624 364.511 362.624 363.113C362.624 361.714 363.534 359.979 365.003 359.126L365.031 359.14ZM365.884 363.686L366.71 363.211C366.598 363.169 366.472 362.945 366.402 362.539L366.262 361.826C366.108 361.015 365.8 360.595 365.087 361.015C364.415 361.406 364.051 362.134 364.051 362.847C364.051 363.924 364.807 364.316 365.884 363.686Z" fill="white"/>
<path d="M366.236 370.775L369.063 369.152V366.48L370.588 365.613V368.285L373.344 366.704V368.579L370.588 370.159V373.32L369.063 374.188V371.04L366.418 372.551C364.809 373.474 364.39 374.621 364.39 375.95C364.39 376.314 364.418 376.649 364.474 376.957L362.948 377.824C362.85 377.503 362.795 377.083 362.795 376.579C362.795 374.341 363.76 372.187 366.236 370.775Z" fill="white"/>
<path d="M369.048 379.492V377.059L370.573 376.191V378.625L370.881 378.443C373.385 377.003 374.169 378.234 374.169 380.052C374.169 380.681 374.113 381.213 374.015 381.675L372.532 382.528C372.574 382.15 372.616 381.786 372.616 381.479C372.616 380.024 372.056 379.646 371.021 380.234L370.587 380.486V383.577L369.062 384.444V381.353L362.934 384.864V382.989L369.062 379.478L369.048 379.492Z" fill="white"/>
<path d="M366.726 388.935C369.231 387.494 370.826 388.179 370.826 390.445C370.826 392.711 369.231 395.229 366.726 396.656C364.18 398.11 362.655 397.397 362.655 395.131C362.655 392.865 364.194 390.389 366.726 388.935ZM366.726 394.753C368.391 393.802 369.315 392.473 369.315 391.312C369.315 390.152 368.391 389.886 366.726 390.837C365.089 391.774 364.152 393.075 364.152 394.264C364.152 395.453 365.089 395.677 366.726 394.739V394.753Z" fill="white"/>
<path d="M370.571 398.527V400.402L369.675 400.919C369.396 401.087 369.144 401.227 368.808 401.367C369.857 401.255 370.809 401.744 370.809 403.451C370.809 403.857 370.781 404.122 370.753 404.43L368.92 405.479C368.948 405.213 368.976 404.892 368.976 404.458C368.976 402.696 368.178 401.772 366.206 402.905L362.918 404.794V402.919L370.571 398.541V398.527Z" fill="white"/>
<path d="M370.572 407.297V408.961L370.069 409.255C369.887 409.367 369.635 409.493 369.467 409.549C370.292 409.367 370.81 409.549 370.81 410.318C370.81 410.976 370.418 411.801 369.453 412.612C370.223 412.444 370.81 412.584 370.81 413.521C370.81 414.654 369.789 415.983 368.334 416.822L362.905 419.928V418.263L367.998 415.354C368.767 414.92 369.285 414.416 369.285 413.913C369.285 413.172 368.544 413.409 367.578 413.969L362.905 416.641V414.99L367.998 412.081C368.767 411.647 369.285 411.157 369.285 410.64C369.285 409.982 368.544 410.136 367.578 410.696L362.905 413.367V411.703L370.558 407.325L370.572 407.297Z" fill="white"/>
<path d="M16.3293 448.541L18.7918 449.954C21.2822 451.381 22.8772 454.178 22.8772 457.689C22.8772 460.934 21.3802 462.207 18.8338 460.738L16.3293 459.298V448.527V448.541ZM21.1563 456.71C21.1563 454.388 20.2749 452.514 18.8058 451.675L18.0083 451.227V458.584L18.8198 459.046C20.107 459.787 21.1563 459.214 21.1563 456.724V456.71Z" fill="white"/>
<path d="M24.3898 461.866C24.3898 460.174 25.4811 460.23 26.8522 460.803L27.8456 461.223C28.3493 461.432 28.5172 461.307 28.5172 460.901C28.5172 460.383 28.1534 459.74 27.4259 459.32C26.6284 458.873 26.1667 459.083 26.1107 459.852L24.5017 458.929C24.5857 457.404 25.663 456.915 27.3559 457.894C29.3147 459.013 30.0702 460.649 30.0702 462.747V467.209L28.6151 466.37V466.062C28.6151 465.811 28.6431 465.601 28.6711 465.377C28.3493 465.936 27.6917 466.118 26.5304 465.461C25.3692 464.789 24.3618 463.321 24.3618 461.88L24.3898 461.866ZM28.5871 463.419V462.607C28.5032 462.663 28.2514 462.649 27.8876 462.51L27.23 462.272C26.4745 461.992 25.9988 462.006 25.9988 462.719C25.9988 463.377 26.4325 463.978 27.0341 464.328C27.9296 464.845 28.6011 464.496 28.6011 463.433L28.5871 463.419Z" fill="white"/>
<path d="M33.9868 466.175V463.406L31.7622 462.133V460.636L33.9868 461.909V459.195L35.5398 460.09V462.804L38.1562 464.301V465.797L35.5398 464.301V466.902C35.5398 468.483 36.2953 469.322 37.4007 469.952C37.7085 470.12 38.0023 470.259 38.2681 470.371V471.868C37.9603 471.784 37.5825 471.63 37.1628 471.392C35.316 470.329 33.9868 468.623 33.9868 466.189V466.175Z" fill="white"/>
<path d="M40.3543 471.003C40.3543 469.31 41.4456 469.366 42.8167 469.94L43.8101 470.359C44.3138 470.569 44.4817 470.443 44.4817 470.038C44.4817 469.52 44.1179 468.877 43.3904 468.457C42.5929 468.01 42.1312 468.219 42.0752 468.989L40.4662 468.065C40.5502 466.541 41.6275 466.051 43.3204 467.03C45.2792 468.149 46.0347 469.786 46.0347 471.884V476.346L44.5796 475.507V475.199C44.5796 474.947 44.6076 474.737 44.6356 474.514C44.3138 475.073 43.6562 475.255 42.4949 474.598C41.3337 473.94 40.3263 472.458 40.3263 471.017L40.3543 471.003ZM44.5376 472.555V471.744C44.4537 471.8 44.2018 471.786 43.8381 471.646L43.1805 471.408C42.425 471.129 41.9493 471.143 41.9493 471.856C41.9493 472.513 42.383 473.115 42.9846 473.465C43.8801 473.982 44.5516 473.619 44.5516 472.569L44.5376 472.555Z" fill="white"/>
<path d="M56.1942 478.388C56.1942 475.884 57.6073 475.199 59.4262 476.234C61.245 477.269 62.2244 479.157 62.3783 481.004L60.7973 480.094C60.7413 479.213 60.3076 478.234 59.4262 477.731C58.5167 477.213 57.7752 477.675 57.7752 479.311C57.7752 480.808 58.4188 482.221 59.3842 482.766C60.3356 483.312 60.7833 482.794 60.8533 481.941L62.4343 482.85C62.2104 484.64 61.2031 485.284 59.3422 484.221C57.3555 483.088 56.1942 480.878 56.1942 478.388Z" fill="white"/>
<path d="M64.1532 482.932C64.1532 480.568 65.4684 479.701 67.2872 480.736C69.204 481.827 70.2813 484.051 70.2813 486.498V486.918L65.7482 484.33C65.7762 485.533 66.3918 486.792 67.3292 487.324C68.0008 487.715 68.5604 487.562 68.6723 486.848L70.2394 487.743C70.1134 489.212 69.0081 489.772 67.3292 488.806C65.4684 487.743 64.1532 485.547 64.1532 482.946V482.932ZM67.2732 482.12C66.4338 481.631 65.8321 482.022 65.7342 482.946L68.6863 484.638C68.6863 483.617 68.1127 482.596 67.2732 482.12Z" fill="white"/>
<path d="M72.3494 483.883L73.9025 484.778V485.114C73.9025 485.324 73.9025 485.547 73.8465 485.827C74.1963 485.268 74.7839 485.044 75.8192 485.631C77.2463 486.457 78.0858 488.121 78.0858 489.995V494.695L76.5188 493.8V489.38C76.5188 488.261 76.0851 487.282 75.2876 486.834C74.4621 486.359 73.8885 486.862 73.8885 487.925V492.289L72.3354 491.394V483.883H72.3494Z" fill="white"/>
<path d="M81.8515 493.593V490.824L79.627 489.551V488.054L81.8515 489.327V486.613L83.4046 487.509V490.222L86.0209 491.719V493.215L83.4046 491.719V494.32C83.4046 495.901 84.1601 496.74 85.2654 497.37C85.5732 497.538 85.867 497.677 86.1328 497.789V499.286C85.825 499.202 85.4473 499.048 85.0275 498.81C83.1807 497.747 81.8515 496.041 81.8515 493.607V493.593Z" fill="white"/>
<path d="M88.0782 496.627C88.0782 494.263 89.3934 493.396 91.2123 494.431C93.1291 495.522 94.2064 497.746 94.2064 500.194V500.613L89.6732 498.026C89.7012 499.229 90.3168 500.488 91.2542 501.019C91.9258 501.411 92.4855 501.257 92.5974 500.544L94.1644 501.439C94.0385 502.907 92.9332 503.467 91.2542 502.502C89.3934 501.439 88.0782 499.229 88.0782 496.627ZM91.1983 495.83C90.3588 495.34 89.7572 495.732 89.6732 496.655L92.6254 498.347C92.6254 497.326 92.0517 496.305 91.2123 495.83H91.1983Z" fill="white"/>
<path d="M97.0448 498.027L98.5978 498.923V499.804C98.5978 500.084 98.5978 500.321 98.5558 500.629C98.9616 499.832 99.8151 499.384 101.242 500.195C101.578 500.391 101.788 500.545 102.026 500.699V502.503C101.816 502.35 101.564 502.182 101.214 501.972C99.7451 501.133 98.6118 501.272 98.6118 503.203V506.434L97.0588 505.539V498.027H97.0448Z" fill="white"/>
<path d="M104.25 507.075L105.831 507.984C105.873 508.894 106.321 509.719 107.16 510.208C107.86 510.614 108.293 510.46 108.293 509.887C108.293 509.383 107.944 508.949 107.286 508.418L106.53 507.803C105.229 506.753 104.474 505.579 104.474 504.334C104.474 503.019 105.509 502.627 107.034 503.508C108.699 504.46 109.734 506.11 109.79 507.705L108.237 506.809C108.181 506.04 107.734 505.313 107.034 504.907C106.446 504.571 106.013 504.599 106.013 505.145C106.013 505.592 106.251 505.956 107.048 506.6L107.804 507.215C109.035 508.208 109.832 509.341 109.832 510.67C109.832 512.097 108.797 512.558 107.188 511.635C105.411 510.614 104.334 508.894 104.236 507.089L104.25 507.075Z" fill="white"/>
<path d="M113.96 508.184L116.072 509.4V511.918L113.96 510.701V508.184ZM113.96 512.702L116.072 513.918V516.436L113.96 515.219V512.702Z" fill="white"/>
<path d="M126.483 522.563C124.315 521.318 123.042 518.633 123.042 515.849C123.042 513.066 124.427 511.933 126.567 513.15C128.134 514.045 129.394 515.891 129.729 518.031L128.694 517.444C128.47 516.185 127.729 514.898 126.525 514.213C125.182 513.443 124.147 514.101 124.147 516.479C124.147 518.857 125.154 520.717 126.567 521.528C127.771 522.214 128.512 521.822 128.75 520.787L129.785 521.374C129.45 523.193 128.148 523.514 126.511 522.563H126.483Z" fill="white"/>
<path d="M133.384 520.711C132.502 520.208 132.069 520.543 132.069 522.04V525.593L131.117 525.047V518.277L132.055 518.809V519.998C132.334 519.396 132.908 519.298 133.636 519.69C133.734 519.746 133.817 519.788 133.915 519.858V521.075C133.72 520.935 133.538 520.809 133.384 520.725V520.711Z" fill="white"/>
<path d="M136.794 528.465C135.493 527.71 135.003 526.381 135.003 524.828V520.492L135.954 521.038V525.024C135.954 526.073 136.094 527.066 137.13 527.654C138.025 528.171 138.557 527.71 138.557 526.255V522.52L139.508 523.066V529.836L138.557 529.29V528.325C138.235 528.787 137.717 528.983 136.794 528.451V528.465Z" fill="white"/>
<path d="M143.162 526.027C142.602 525.706 141.987 525.594 141.987 526.209C141.987 526.755 142.294 527.188 142.84 527.622L143.638 528.265C144.659 529.091 145.568 530.07 145.568 531.385C145.568 532.699 144.561 532.909 143.274 532.182C141.805 531.343 140.965 529.692 140.853 528.447L141.861 529.021C142.001 529.972 142.448 530.741 143.288 531.231C144.001 531.636 144.589 531.594 144.589 530.965C144.589 530.28 144.057 529.692 143.456 529.189L142.616 528.503C141.861 527.874 141.021 526.965 141.021 525.706C141.021 524.447 142.029 524.391 143.274 525.104C144.491 525.804 145.317 527.09 145.484 528.475L144.491 527.902C144.337 527.006 143.819 526.391 143.162 526.027Z" fill="white"/>
<path d="M149.345 535.653C148.043 534.897 146.644 533.037 146.644 530.589C146.644 528.141 148.029 527.862 149.345 528.603C150.646 529.358 152.045 531.219 152.045 533.667C152.045 536.114 150.66 536.394 149.345 535.653ZM151.024 533.079C151.024 531.275 150.198 530.086 149.345 529.596C148.491 529.107 147.666 529.302 147.666 531.149C147.666 532.995 148.491 534.142 149.345 534.632C150.198 535.121 151.024 534.814 151.024 533.079Z" fill="white"/>
<path d="M155.894 538.396C156.733 538.871 157.195 538.689 157.433 538.158L158.412 538.717C158.146 539.739 157.265 540.186 155.894 539.403C154.117 538.382 153.138 536.284 153.138 534.283C153.138 532.143 154.327 531.458 155.866 532.339C157.573 533.318 158.608 535.654 158.482 537.724L154.159 535.249C154.201 536.731 155.054 537.934 155.894 538.41V538.396ZM157.489 536.158C157.475 535.193 156.873 533.892 155.866 533.318C155.026 532.829 154.257 532.955 154.173 534.269L157.489 536.172V536.158Z" fill="white"/>
<path d="M164.484 538.227C163.925 537.905 163.309 537.793 163.309 538.409C163.309 538.954 163.617 539.388 164.163 539.821L164.96 540.465C165.981 541.29 166.877 542.269 166.877 543.584C166.877 544.899 165.869 545.109 164.596 544.381C163.127 543.542 162.288 541.892 162.176 540.647L163.183 541.22C163.323 542.171 163.785 542.941 164.61 543.43C165.338 543.836 165.911 543.808 165.911 543.165C165.911 542.479 165.38 541.892 164.778 541.388L163.939 540.703C163.183 540.073 162.344 539.178 162.344 537.905C162.344 536.632 163.351 536.59 164.596 537.304C165.813 538.003 166.639 539.29 166.807 540.675L165.813 540.101C165.674 539.206 165.142 538.591 164.484 538.227Z" fill="white"/>
<path d="M169.286 541.193C169.635 540.675 170.223 540.549 171.118 541.067C172.406 541.808 173.525 543.739 173.525 545.963C173.525 548.187 172.406 548.844 171.118 548.117C170.223 547.599 169.621 546.802 169.286 545.879V549.096L168.334 548.55V539.57L169.286 540.116V541.193ZM172.489 545.375C172.489 543.767 171.846 542.466 170.88 541.906C170.041 541.417 169.244 541.724 169.244 543.515C169.244 545.305 170.041 546.508 170.88 546.998C171.846 547.557 172.489 546.998 172.489 545.375Z" fill="white"/>
<path d="M178.362 547.933V547.765C178.362 546.534 177.789 545.793 177.089 545.387C176.305 544.94 175.844 545.192 175.802 546.003L174.822 545.443C174.92 544.031 175.984 543.821 177.075 544.45C178.628 545.331 179.328 546.632 179.314 548.521V550.073C179.3 551.206 179.342 552.003 179.453 552.717L178.488 552.171C178.46 551.906 178.432 551.612 178.418 551.192C178.068 551.682 177.495 551.752 176.501 551.192C175.452 550.591 174.571 549.374 174.571 548.129C174.571 546.534 176.068 546.912 178.376 547.919L178.362 547.933ZM175.62 548.716C175.62 549.36 176.026 550.017 176.711 550.409C177.593 550.912 178.446 550.912 178.446 549.318V548.884C176.725 548.115 175.62 547.779 175.62 548.716Z" fill="white"/>
<path d="M183.26 549.274C182.379 548.77 181.945 549.106 181.945 550.602V554.155L180.994 553.61V546.84L181.931 547.371V548.56C182.211 547.959 182.785 547.847 183.512 548.253C183.61 548.309 183.694 548.351 183.792 548.42V549.637C183.596 549.497 183.414 549.372 183.26 549.288V549.274Z" fill="white"/>
<path d="M185.919 552.701L188.186 550.952L189.361 551.624L187.221 553.204L189.655 558.562L188.494 557.89L186.577 553.68L185.919 554.156V556.422L184.968 555.876V546.742L185.919 547.288V552.687V552.701Z" fill="white"/>
<path d="M194.453 552.841V554.533L195.517 555.149V556.072L194.453 555.456V559.471C194.453 560.17 194.495 560.38 195.041 560.688L195.517 560.967V561.919L194.831 561.527C193.754 560.912 193.502 560.478 193.502 559.065V554.911L192.621 554.407V553.484L193.502 553.988V552.281L194.453 552.827V552.841Z" fill="white"/>
<path d="M199.168 564.172C197.867 563.417 196.467 561.557 196.467 559.109C196.467 556.661 197.853 556.381 199.168 557.123C200.469 557.864 201.868 559.738 201.868 562.186C201.868 564.634 200.483 564.914 199.168 564.172ZM200.847 561.613C200.847 559.808 200.021 558.619 199.168 558.13C198.314 557.64 197.489 557.836 197.489 559.682C197.489 561.529 198.314 562.676 199.168 563.165C200.021 563.655 200.847 563.347 200.847 561.613Z" fill="white"/>
<path d="M211.397 564.549C211.145 563.388 210.46 562.269 209.242 561.584C207.899 560.815 206.864 561.486 206.864 563.85C206.864 566.214 207.843 568.074 209.242 568.871C210.25 569.459 211.481 569.655 211.481 567.766V567.529L209.48 566.382V565.277L212.488 566.997V571.655L211.649 571.179L211.593 570.004C211.103 570.648 210.208 570.522 209.2 569.948C207.018 568.704 205.773 566.018 205.773 563.234C205.773 560.451 207.158 559.318 209.298 560.549C210.865 561.444 212.125 563.22 212.432 565.165L211.397 564.577V564.549Z" fill="white"/>
<path d="M221.775 567.836L222.894 568.479L221.005 576.522L219.704 575.781L218.249 567.444L216.822 574.13L215.521 573.389L213.604 563.164L214.779 563.835L216.248 572.34L217.648 565.472L218.907 566.185L220.404 574.704L221.803 567.836H221.775Z" fill="white"/>
<path d="M223.57 573.992L226.9 575.895V576.972L223.57 575.069V573.992Z" fill="white"/>
<path d="M230.358 575.955C229.798 575.633 229.183 575.521 229.183 576.137C229.183 576.682 229.491 577.102 230.036 577.549L230.834 578.193C231.855 579.018 232.751 579.997 232.751 581.312C232.751 582.627 231.743 582.837 230.456 582.109C228.987 581.27 228.147 579.62 228.05 578.375L229.057 578.948C229.197 579.899 229.645 580.669 230.484 581.158C231.212 581.578 231.785 581.536 231.785 580.906C231.785 580.221 231.254 579.634 230.652 579.13L229.812 578.445C229.057 577.815 228.217 576.906 228.217 575.647C228.217 574.388 229.225 574.332 230.47 575.046C231.687 575.745 232.513 577.032 232.681 578.417L231.687 577.843C231.533 576.948 231.016 576.332 230.358 575.969V575.955Z" fill="white"/>
<path d="M237.923 581.7C237.783 580.819 237.21 579.909 236.468 579.49C235.629 579 234.845 579.35 234.845 581.056C234.845 582.763 235.629 584.05 236.468 584.525C237.266 584.987 237.825 584.665 237.965 584.022L238.944 584.581C238.763 585.742 237.741 586.26 236.44 585.518C234.831 584.595 233.81 582.539 233.81 580.483C233.81 578.427 234.859 577.573 236.524 578.525C237.881 579.308 238.749 581.028 238.874 582.245L237.909 581.7H237.923Z" fill="white"/>
<path d="M243.741 585.374V585.207C243.741 583.976 243.168 583.234 242.468 582.829C241.685 582.381 241.223 582.633 241.181 583.444L240.202 582.885C240.299 581.472 241.363 581.262 242.454 581.892C244.007 582.773 244.707 584.074 244.693 585.962V587.515C244.679 588.648 244.721 589.445 244.833 590.158L243.867 589.613C243.839 589.347 243.811 589.053 243.797 588.634C243.448 589.123 242.86 589.193 241.88 588.634C240.831 588.032 239.95 586.815 239.95 585.57C239.95 583.976 241.447 584.353 243.755 585.36L243.741 585.374ZM240.999 586.158C240.999 586.801 241.405 587.459 242.09 587.85C242.972 588.354 243.825 588.354 243.825 586.759V586.326C242.104 585.556 240.999 585.221 240.999 586.158Z" fill="white"/>
<path d="M246.371 591.04V581.906L247.322 582.452V591.586L246.371 591.04Z" fill="white"/>
<path d="M251.467 593.114C252.307 593.59 252.768 593.408 253.006 592.877L253.986 593.436C253.72 594.457 252.838 594.905 251.467 594.122C249.69 593.101 248.711 591.002 248.711 589.002C248.711 586.862 249.9 586.177 251.439 587.058C253.16 588.037 254.182 590.373 254.056 592.443L249.732 589.967C249.774 591.45 250.628 592.653 251.467 593.128V593.114ZM253.048 590.876C253.034 589.911 252.433 588.611 251.425 588.037C250.586 587.547 249.816 587.673 249.732 588.988L253.048 590.89V590.876Z" fill="white"/>
<g clip-path="url(#clip0)">
<path d="M16.0718 132.246L18.2229 133.47L19.1649 138.924C19.2352 139.355 19.3055 139.814 19.3758 140.329C19.446 139.884 19.5163 139.508 19.5866 139.16L20.5286 134.764L22.6516 135.961V146.673L21.2316 145.866L21.3019 138.771L21.3581 137.143L20.1209 142.764L18.6165 141.915L17.3512 134.959C17.3793 135.418 17.4074 135.905 17.4215 136.726L17.5058 143.765L16.0858 142.958V132.246H16.0718Z" fill="white"/>
<path d="M25.1117 146.034C25.1117 144.351 26.2084 144.406 27.5862 144.977L28.5844 145.394C29.0906 145.603 29.2593 145.477 29.2593 145.074C29.2593 144.559 28.8937 143.919 28.1626 143.502C27.3613 143.057 26.8973 143.265 26.8411 144.031L25.2242 143.112C25.3086 141.61 26.3911 141.109 28.0923 142.083C30.0607 143.196 30.8199 144.824 30.8199 146.91V151.348L29.3577 150.528V150.221C29.3577 149.971 29.3858 149.762 29.4139 149.54C29.0906 150.096 28.4298 150.277 27.2628 149.623C26.0959 148.969 25.0836 147.495 25.0836 146.062L25.1117 146.034ZM29.3155 147.578V146.771C29.2312 146.827 28.9781 146.813 28.6125 146.674L27.9517 146.437C27.1925 146.159 26.7145 146.173 26.7145 146.883C26.7145 147.536 27.1504 148.135 27.7549 148.482C28.6547 148.997 29.3296 148.635 29.3296 147.592L29.3155 147.578Z" fill="white"/>
<path d="M33.8571 145.573L35.4177 146.463V146.797C35.4177 147.005 35.4177 147.228 35.3614 147.506C35.7129 146.95 36.3034 146.727 37.3438 147.312C38.7779 148.118 39.6215 149.788 39.6215 151.638V156.313L38.0468 155.422V151.026C38.0468 149.913 37.611 148.939 36.8096 148.494C35.9801 148.021 35.4036 148.522 35.4036 149.579V153.92L33.843 153.029V145.559L33.8571 145.573Z" fill="white"/>
<path d="M42.4333 155.838C42.4333 154.155 43.5299 154.21 44.9077 154.781L45.906 155.198C46.4121 155.407 46.5808 155.282 46.5808 154.878C46.5808 154.363 46.2153 153.723 45.4842 153.306C44.6828 152.861 44.2188 153.07 44.1626 153.835L42.5457 152.917C42.6301 151.4 43.7127 150.913 45.4139 151.887C47.3822 153 48.1414 154.628 48.1414 156.715V161.152L46.6792 160.318V160.012C46.6792 159.761 46.7073 159.553 46.7355 159.33C46.4121 159.886 45.7513 160.067 44.5844 159.413C43.4174 158.746 42.4052 157.285 42.4052 155.852L42.4333 155.838ZM46.6371 157.382V156.575C46.5527 156.631 46.2996 156.617 45.9341 156.478L45.2733 156.242C44.5141 155.963 44.036 155.977 44.036 156.687C44.036 157.341 44.4719 157.939 45.0764 158.287C45.9763 158.801 46.6511 158.44 46.6511 157.396L46.6371 157.382Z" fill="white"/>
<path d="M51.0656 163.308L52.6543 164.213C52.6965 165.117 53.1605 165.91 54.0181 166.397C54.8195 166.856 55.5224 166.661 55.5224 165.548V164.741C55.5224 164.408 55.5224 164.101 55.5787 163.837C55.2131 164.296 54.5945 164.519 53.6244 163.976C51.9795 163.044 50.7985 160.957 50.7985 158.592C50.7985 156.227 52.1763 155.712 53.526 156.478C54.6226 157.104 55.1991 157.952 55.5646 158.954C55.5084 158.662 55.5084 158.453 55.5084 158.189V157.855L57.069 158.745V165.98C57.069 168.428 55.8036 168.887 53.9478 167.844C52.106 166.8 51.0515 165.02 51.0515 163.322L51.0656 163.308ZM55.6209 161.319C55.6209 160.095 54.9601 158.773 54.0321 158.244C53.0902 157.716 52.4012 158.272 52.4012 159.497C52.4012 160.86 53.0761 162.182 54.0321 162.71C54.9601 163.239 55.6209 162.696 55.6209 161.319Z" fill="white"/>
<path d="M59.6138 163.896C59.6138 161.531 60.9354 160.683 62.7631 161.712C64.6892 162.797 65.7718 165.009 65.7718 167.444V167.861L61.2166 165.274C61.2447 166.47 61.8633 167.722 62.8053 168.251C63.4801 168.64 64.0425 168.487 64.155 167.778L65.7296 168.668C65.6031 170.129 64.4924 170.686 62.8053 169.726C60.9354 168.668 59.6138 166.47 59.6138 163.896ZM62.749 163.09C61.9055 162.603 61.3009 162.992 61.2025 163.91L64.169 165.594C64.169 164.578 63.5926 163.563 62.749 163.09Z" fill="white"/>
<path d="M67.8952 168.625C67.8952 165.94 69.3152 165.425 70.7774 166.246C71.7475 166.803 72.352 167.735 72.7176 168.667C72.6613 168.361 72.6613 168.138 72.6613 167.902V164.312L74.2219 165.203V175.915L72.6613 175.025V174.719C72.6613 174.454 72.6613 174.26 72.7176 174.023C72.4786 174.441 71.9021 174.872 70.7492 174.218C69.0902 173.286 67.8811 171.255 67.8811 168.611L67.8952 168.625ZM72.7597 171.366C72.7597 169.836 72.0708 168.458 71.1288 167.93C70.1869 167.401 69.4839 168.027 69.4839 169.502C69.4839 170.976 70.1869 172.423 71.1288 172.952C72.0708 173.481 72.7597 172.855 72.7597 171.352V171.366Z" fill="white"/>
<path d="M87.5362 172.744L89.6732 173.955L92.3726 186.197L90.5449 185.168L89.8982 181.885L87.1988 180.354L86.552 182.9L84.8508 181.926L87.5362 172.73V172.744ZM89.5326 179.979L88.8578 176.501C88.7312 175.861 88.6469 175.346 88.5766 174.817C88.5204 175.276 88.4219 175.708 88.2954 176.195L87.6065 178.894L89.5467 179.993L89.5326 179.979Z" fill="white"/>
<path d="M94.1438 185.499L96.4214 186.793V179.475L94.1438 178.182V176.484L100.4 180.032V181.729L98.1226 180.435V187.753L100.4 189.047V190.744L94.1438 187.197V185.499Z" fill="white"/>
<path d="M111.775 194.628L113.363 195.532C113.406 196.436 113.856 197.257 114.699 197.744C115.402 198.147 115.838 197.994 115.838 197.424C115.838 196.923 115.486 196.492 114.826 195.963L114.066 195.351C112.759 194.308 112 193.139 112 191.901C112 190.593 113.04 190.204 114.573 191.08C116.246 192.026 117.286 193.668 117.342 195.254L115.782 194.363C115.725 193.598 115.276 192.875 114.573 192.471C113.982 192.137 113.546 192.165 113.546 192.708C113.546 193.153 113.785 193.515 114.587 194.155L115.346 194.767C116.583 195.754 117.384 196.881 117.384 198.203C117.384 199.622 116.344 200.081 114.727 199.163C112.942 198.147 111.859 196.436 111.761 194.642L111.775 194.628Z" fill="white"/>
<path d="M120.21 198.234C120.21 195.883 121.532 195.02 123.36 196.05C125.286 197.135 126.368 199.347 126.368 201.781V202.199L121.813 199.625C121.841 200.822 122.46 202.074 123.402 202.602C124.077 202.992 124.639 202.839 124.752 202.129L126.326 203.02C126.2 204.48 125.089 205.037 123.402 204.077C121.532 203.02 120.21 200.822 120.21 198.234ZM123.346 197.441C122.502 196.954 121.898 197.344 121.813 198.262L124.78 199.945C124.78 198.93 124.203 197.914 123.36 197.441H123.346Z" fill="white"/>
<path d="M129.855 199.98L131.416 200.871V201.747C131.416 202.026 131.416 202.262 131.374 202.568C131.781 201.775 132.639 201.33 134.073 202.137C134.41 202.332 134.621 202.485 134.86 202.638V204.432C134.649 204.279 134.396 204.112 134.045 203.904C132.569 203.069 131.43 203.194 131.43 205.128V208.342L129.869 207.451V199.98H129.855Z" fill="white"/>
<path d="M137.306 204.199L138.994 205.159L140.371 210.863C140.47 211.239 140.526 211.531 140.596 211.962C140.667 211.614 140.723 211.392 140.821 211.127L142.185 206.968L143.802 207.886L141.51 214.049L139.697 213.019L137.32 204.213L137.306 204.199Z" fill="white"/>
<path d="M146.038 215.133L148.864 216.732V212.239L146.572 210.931V209.443L150.438 211.627V217.609L152.857 218.986V220.475L146.052 216.607V215.119L146.038 215.133ZM148.667 207.453L150.466 208.469V210.569L148.667 209.554V207.453Z" fill="white"/>
<path d="M154.853 217.886C154.853 215.395 156.273 214.714 158.1 215.743C159.928 216.773 160.912 218.651 161.067 220.487L159.478 219.583C159.422 218.706 158.986 217.733 158.1 217.232C157.186 216.717 156.441 217.176 156.441 218.804C156.441 220.292 157.102 221.698 158.058 222.24C159.014 222.783 159.464 222.268 159.534 221.419L161.123 222.324C160.898 224.104 159.886 224.744 158.016 223.687C156.034 222.56 154.853 220.362 154.853 217.886Z" fill="white"/>
<path d="M163.499 222.773C163.499 220.422 164.821 219.559 166.649 220.589C168.575 221.674 169.657 223.886 169.657 226.321V226.738L165.102 224.164C165.13 225.361 165.749 226.613 166.691 227.141C167.366 227.531 167.928 227.378 168.04 226.668L169.615 227.559C169.489 229.02 168.378 229.576 166.691 228.616C164.821 227.559 163.499 225.361 163.499 222.773ZM166.635 221.966C165.791 221.493 165.186 221.869 165.102 222.787L168.069 224.47C168.069 223.455 167.492 222.439 166.649 221.966H166.635Z" fill="white"/>
<path d="M172.371 228.975L173.96 229.88C174.002 230.784 174.452 231.605 175.295 232.092C175.998 232.495 176.434 232.342 176.434 231.772C176.434 231.271 176.083 230.839 175.422 230.311L174.663 229.699C173.355 228.655 172.596 227.487 172.596 226.248C172.596 224.941 173.636 224.551 175.169 225.428C176.856 226.388 177.882 228.015 177.938 229.601L176.378 228.711C176.322 227.946 175.872 227.222 175.169 226.819C174.578 226.485 174.142 226.513 174.142 227.041C174.142 227.487 174.381 227.848 175.183 228.488L175.942 229.1C177.179 230.088 177.981 231.215 177.981 232.537C177.981 233.956 176.94 234.415 175.323 233.497C173.538 232.481 172.455 230.77 172.357 228.975H172.371Z" fill="white"/>
</g>
<defs>
<clipPath id="clip0">
<rect width="161.923" height="101.739" fill="white" transform="translate(16.0718 132.246)"/>
</clipPath>
</defs>
</svg>
