<svg width="311" height="229" viewBox="0 0 311 229" fill="none" xmlns="http://www.w3.org/2000/svg">
<path d="M287.613 136.898C287.009 132.029 285.314 98.9737 249.894 82.1486C243.669 49.9866 217.741 17.4939 196.492 5.62121C191.06 2.5869 182.288 1.02428 176.683 0.801046C173.069 0.660492 169.498 1.56169 166.298 3.24833L149.87 13.0375C148.067 11.632 146.53 10.3339 144.653 9.29214C137.542 5.3153 130.895 4.6208 125.265 6.68777C117.873 9.39136 71.9534 35.3194 71.9534 35.3194C70.8042 40.0155 254.376 226.944 254.376 226.944C254.376 226.944 297.311 202.909 300.841 201.313C306.728 198.651 310.605 190.73 310.605 179.288C310.605 160.991 301.999 144.753 289.762 137.924C289.762 137.924 288.72 137.345 287.613 136.89V136.898Z" fill="#e8f5f3" stroke="#181717" stroke-width="0.5" stroke-miterlimit="10"/>
<mask id="mask0_322_3138" style="mask-type:luminance" maskUnits="userSpaceOnUse" x="71" y="0" width="240" height="228">
<path d="M287.613 136.899C287.01 132.029 285.315 98.9738 249.895 82.1487C243.67 49.9867 217.742 17.494 196.493 5.62136C191.061 2.58706 182.289 1.02443 176.684 0.801198C173.07 0.660644 169.499 1.56184 166.299 3.24849L149.871 13.0376C148.068 11.6321 146.531 10.334 144.654 9.29229C137.543 5.31545 130.896 4.62095 125.266 6.68792C117.874 9.39151 71.9544 35.3195 71.9544 35.3195C70.8052 40.0157 254.377 226.944 254.377 226.944C254.377 226.944 297.312 202.909 300.842 201.314C306.729 198.651 310.606 190.731 310.606 179.288C310.606 160.991 302 144.753 289.763 137.924C289.763 137.924 288.721 137.345 287.613 136.89V136.899Z" fill="#f0faf9" stroke="white" stroke-width="0.5" stroke-miterlimit="10"/>
</mask>
<g mask="url(#mask0_322_3138)">
<path d="M239.018 164.943L287.617 136.898Z" fill="#f0faf9"/>
<path d="M239.018 164.943L287.617 136.898" stroke="#1a8a7e" stroke-width="0.5" stroke-miterlimit="10"/>
<path d="M203.176 108.772L250.327 81.769Z" fill="#f0faf9"/>
<path d="M203.176 108.772L250.327 81.769" stroke="#1a8a7e" stroke-width="0.5" stroke-miterlimit="10"/>
<path d="M114.743 34.1145L149.873 13.048Z" fill="#f0faf9"/>
<path d="M114.743 34.1145L149.873 13.048" stroke="#1a8a7e" stroke-width="0.5" stroke-miterlimit="10"/>
</g>
<path d="M287.613 136.898C287.009 132.029 285.314 98.9737 249.894 82.1486C243.669 49.9866 217.741 17.4939 196.492 5.62121C191.06 2.5869 182.288 1.02428 176.683 0.801046C173.069 0.660492 169.498 1.56169 166.298 3.24833L149.87 13.0375C148.067 11.632 146.53 10.3339 144.653 9.29214C137.542 5.3153 130.895 4.6208 125.265 6.68777C117.873 9.39136 71.9534 35.3194 71.9534 35.3194C70.8042 40.0155 254.376 226.944 254.376 226.944C254.376 226.944 297.311 202.909 300.841 201.313C306.728 198.651 310.605 190.73 310.605 179.288C310.605 160.991 301.999 144.753 289.762 137.924C289.762 137.924 288.72 137.345 287.613 136.89V136.898Z" stroke="#010101" stroke-width="0.5" stroke-miterlimit="10"/>
<path d="M239.013 164.939C232.861 127.337 203.18 108.768 203.18 108.768C191.282 66.5271 170.712 44.8239 149.769 32.4221C133.539 22.9058 111.009 29.239 107.768 43.4845C102.113 40.5825 59.9967 9.80949 59.9967 70.2063C59.9967 100.706 76.1521 133.869 96.21 145.626V145.659C96.21 145.659 239.798 225.849 240.716 226.361C252.944 233.191 262.865 223.898 262.865 205.601C262.865 177.664 240.245 165.46 239.013 164.939Z" fill="#f0faf9"/>
<path d="M239.013 164.939C232.861 127.337 203.18 108.768 203.18 108.768C191.282 66.5271 170.712 44.8239 149.769 32.4221C133.539 22.9058 111.009 29.239 107.768 43.4845C102.113 40.5825 59.9967 9.80949 59.9967 70.2063C59.9967 100.706 76.1521 133.869 96.21 145.626V145.659C96.21 145.659 239.798 225.849 240.716 226.361C252.944 233.191 262.865 223.898 262.865 205.601C262.865 177.664 240.245 165.46 239.013 164.939Z" stroke="#010101" stroke-width="0.5" stroke-miterlimit="10"/>
<g style="mix-blend-mode:multiply">
<path d="M167.486 185.329V173.536L179.386 180.189V191.981L177.156 190.951L167.486 185.329Z" fill="#0BA79C"/>
</g>
<g style="mix-blend-mode:multiply">
<path d="M155.391 154.79V142.695L167.291 149.347L167.486 161.442L165.067 160.232L155.391 154.79Z" fill="#0BA79C"/>
</g>
<g style="mix-blend-mode:multiply">
<path d="M131.504 117.296V104.898L143.296 111.551L143.599 123.948L141.482 122.738L131.504 117.296Z" fill="#0BA79C"/>
</g>
<g style="mix-blend-mode:multiply">
<path d="M167.486 125.157V112.76L179.279 119.412L179.581 131.809L177.464 130.6L167.486 125.157Z" fill="#0BA79C"/>
</g>
<g style="mix-blend-mode:multiply">
<path d="M179.278 180.189V168.094L191.373 174.746V186.841L189.257 185.631L179.278 180.189Z" fill="#0BA79C"/>
</g>
<g style="mix-blend-mode:multiply">
<path d="M203.166 193.795V181.7L215.261 188.353V200.447L213.144 199.238L203.166 193.795Z" fill="#0BA79C"/>
</g>
<g style="mix-blend-mode:multiply">
<path d="M203.166 169.001V156.906L215.261 163.558V175.653L213.144 174.444L203.166 169.001Z" fill="#0BA79C"/>
</g>
<g style="mix-blend-mode:multiply">
<path d="M191.071 150.254V138.159L203.166 144.811V156.906L201.049 155.697L191.071 150.254Z" fill="#0BA79C"/>
</g>
<g style="mix-blend-mode:multiply">
<path d="M191.071 113.969V101.875L203.166 108.527V120.622L201.049 119.412L191.071 113.969Z" fill="#0BA79C"/>
</g>
<g style="mix-blend-mode:multiply">
<path d="M226.75 182.305V170.21L238.845 176.863V188.957L236.729 187.748L226.75 182.305Z" fill="#0BA79C"/>
</g>
<g style="mix-blend-mode:multiply">
<path d="M238.846 213.147V201.052L250.941 207.704V219.799L248.824 218.59L238.846 213.147Z" fill="#0BA79C"/>
</g>
<g style="mix-blend-mode:multiply">
<path d="M226.75 218.59V206.495L238.845 213.147V225.242L236.729 224.032L226.75 218.59Z" fill="#0BA79C"/>
</g>
<g style="mix-blend-mode:multiply">
<path d="M214.656 211.938V199.843L226.75 206.495V218.59L224.634 217.38L214.656 211.938Z" fill="#0BA79C"/>
</g>
<g style="mix-blend-mode:multiply">
<path d="M191.071 198.633V186.539L203.166 193.191V205.285L201.049 204.076L191.071 198.633Z" fill="#0BA79C"/>
</g>
<g style="mix-blend-mode:multiply">
<path d="M131.806 165.372L131.504 153.58L143.599 160.232V172.025L141.482 171.118L131.806 165.372Z" fill="#0BA79C"/>
</g>
<g style="mix-blend-mode:multiply">
<path d="M131.504 153.58V141.485L143.296 147.835V159.93L141.18 158.72L131.504 153.58Z" fill="#0BA79C"/>
</g>
<g style="mix-blend-mode:multiply">
<path d="M119.711 147.23V135.135L131.504 141.485V153.58L129.387 152.371L119.711 147.23Z" fill="#0BA79C"/>
</g>
<g style="mix-blend-mode:multiply">
<path d="M84.0316 115.179L83.7292 102.782L95.824 109.434V121.529L93.7074 120.319L84.0316 115.179Z" fill="#0BA79C"/>
</g>
<g style="mix-blend-mode:multiply">
<path d="M72.239 96.1296L71.9366 83.7325L84.0315 90.3846V102.479L81.9149 101.27L72.239 96.1296Z" fill="#0BA79C"/>
</g>
<g style="mix-blend-mode:multiply">
<path d="M95.8242 133.624L95.5218 121.226L107.617 127.879V139.973L105.5 138.764L95.8242 133.624Z" fill="#0BA79C"/>
</g>
<g style="mix-blend-mode:multiply">
<path d="M143.297 172.025V159.93L155.391 166.582V178.677L153.275 177.467L143.297 172.025Z" fill="#0BA79C"/>
</g>
<g style="mix-blend-mode:multiply">
<path d="M131.504 141.485V129.39L143.296 135.74V147.835L141.18 146.626L131.504 141.485Z" fill="#0BA79C"/>
</g>
<g style="mix-blend-mode:multiply">
<path d="M107.617 127.878V115.784L119.711 122.436V134.531L117.595 133.321L107.617 127.878Z" fill="#0BA79C"/>
</g>
<g style="mix-blend-mode:multiply">
<path d="M95.5218 97.0368V84.942L107.617 91.5941V103.689L105.5 102.479L95.5218 97.0368Z" fill="#0BA79C"/>
</g>
<g style="mix-blend-mode:multiply">
<path d="M119.711 86.1513V74.0565L131.806 80.7086V92.8035L129.69 91.594L119.711 86.1513Z" fill="#0BA79C"/>
</g>
<g style="mix-blend-mode:multiply">
<path d="M143.297 63.1712V51.0764L155.391 57.7286V69.8234L153.275 68.6139L143.297 63.1712Z" fill="#0BA79C"/>
</g>
<g style="mix-blend-mode:multiply">
<path d="M119.711 37.7721V30.5152L125.154 28.701L131.806 32.3294V44.4242L129.69 43.2147L119.711 37.7721Z" fill="#0BA79C"/>
</g>
<g style="mix-blend-mode:multiply">
<path d="M83.7292 78.5922L84.0316 66.4973L95.824 73.1495V85.2443L94.0098 84.3372L83.7292 78.5922Z" fill="#0BA79C"/>
</g>
<g style="mix-blend-mode:multiply">
<path d="M71.9366 47.7503V35.6555L83.7291 42.3076L84.0315 54.4024L82.2172 53.193L71.9366 47.7503Z" fill="#0BA79C"/>
</g>
<path d="M94.3425 132.305C91.8125 116.414 82.0978 101.987 71.457 96.0507C66.5459 93.3057 59.0139 91.1891 55.1197 92.603C49.4397 94.6534 31.0602 105.567 31.0602 105.567L8.42279 117.853C8.42279 131.09 30.6964 150.718 39.4852 156.009V156.026L90.9196 202.26L120.552 186.361C132.896 178.911 122.271 138.969 94.3425 132.305Z" fill="#e8f5f3" stroke="#181717" stroke-width="0.5" stroke-miterlimit="10"/>
<mask id="mask1_322_3138" style="mask-type:luminance" maskUnits="userSpaceOnUse" x="8" y="92" width="118" height="111">
<path d="M94.3442 132.304C91.8142 116.413 82.0995 101.986 71.4587 96.0494C66.5476 93.3045 59.0156 91.1879 55.1214 92.6017C49.4414 94.6521 31.0619 105.566 31.0619 105.566L8.4245 117.852C8.4245 131.089 30.6981 150.717 39.4869 156.008V156.025L90.9213 202.258L120.553 186.359C132.897 178.91 122.273 138.968 94.3442 132.304Z" fill="#f0faf9"/>
</mask>
<g mask="url(#mask1_322_3138)">
<path d="M28.7549 110.672C27.6801 110.069 26.6466 109.672 25.6545 109.457" stroke="#010101" stroke-width="0.5" stroke-miterlimit="10"/>
<path d="M69.8187 145.725L95.9617 131.422" stroke="#1a8a7e" stroke-width="0.5" stroke-miterlimit="10"/>
</g>
<path d="M94.3428 132.305C91.8129 116.414 82.0981 101.987 71.4574 96.0507C66.5463 93.3057 59.0142 91.1891 55.1201 92.603C49.44 94.6534 31.0606 105.567 31.0606 105.567L8.42316 117.853C8.42316 131.09 30.6968 150.718 39.4855 156.009V156.026L90.9199 202.26L120.552 186.361C132.896 178.911 122.272 138.969 94.3428 132.305Z" stroke="#010101" stroke-width="0.5" stroke-miterlimit="10"/>
<path d="M97.2199 186.753C97.2199 156.807 71.6639 146.149 69.969 145.802C67.8441 123.099 57.9144 112.615 47.2819 106.679C35.2191 99.932 22.4783 106.769 19.7747 122.073C19.7747 122.073 17.559 119.411 15.5251 118.278C8.50565 113.772 0.295654 122.363 0.295654 135.848C0.295654 149.332 7.33987 163.785 16.1286 169.084V169.101L77.4266 203.09C87.3976 208.762 97.2199 200.387 97.2199 186.761V186.753Z" fill="#f0faf9"/>
<mask id="mask2_322_3138" style="mask-type:luminance" maskUnits="userSpaceOnUse" x="0" y="104" width="98" height="101">
<path d="M97.219 186.754C97.219 156.808 71.663 146.151 69.9681 145.803C67.8433 123.1 57.9136 112.616 47.2811 106.68C35.2183 99.9332 22.4775 106.771 19.7739 122.075C19.7739 122.075 17.5581 119.412 15.5242 118.28C8.50479 113.774 0.2948 122.364 0.2948 135.849C0.2948 149.334 7.33902 163.786 16.1278 169.086V169.102L77.4257 203.091C87.3968 208.763 97.219 200.388 97.219 186.762V186.754Z" fill="#f0faf9"/>
</mask>
<g mask="url(#mask2_322_3138)">
<path d="M-0.246582 28.9785L0.290837 309.243" stroke="#1a8a7e" stroke-width="0.5" stroke-miterlimit="10"/>
<path d="M97.3485 28.4896L103.235 309.242" stroke="#1a8a7e" stroke-width="0.5" stroke-miterlimit="10"/>
<path d="M216.582 191.154L-28.1796 39.8441" stroke="#1a8a7e" stroke-width="0.5" stroke-miterlimit="10"/>
<path d="M215.448 199.732L-29.3142 49.662" stroke="#1a8a7e" stroke-width="0.5" stroke-miterlimit="10"/>
<path d="M214.316 208.315L-30.4454 59.4855" stroke="#1a8a7e" stroke-width="0.5" stroke-miterlimit="10"/>
<path d="M205.238 276.985L-39.524 138.068" stroke="#1a8a7e" stroke-width="0.5" stroke-miterlimit="10"/>
<path d="M204.104 285.561L-40.6578 147.884" stroke="#1a8a7e" stroke-width="0.5" stroke-miterlimit="10"/>
<path d="M202.973 294.146L-41.7889 157.709" stroke="#1a8a7e" stroke-width="0.5" stroke-miterlimit="10"/>
</g>
<path d="M97.2199 186.753C97.2199 156.807 71.6639 146.149 69.969 145.802C67.8441 123.099 57.9144 112.615 47.2819 106.679C35.2191 99.932 22.4783 106.769 19.7747 122.073C19.7747 122.073 17.559 119.411 15.5251 118.278C8.50565 113.772 0.295654 122.363 0.295654 135.848C0.295654 149.332 7.33987 163.785 16.1286 169.084V169.101L77.4266 203.09C87.3976 208.762 97.2199 200.387 97.2199 186.761V186.753Z" stroke="#010101" stroke-width="0.5" stroke-miterlimit="10"/>
<g style="mix-blend-mode:multiply">
<path d="M49.8902 128.365L49.5615 118.202L59.5398 124.25V134.53L49.8902 128.365Z" fill="#0BA79C"/>
</g>
<g style="mix-blend-mode:multiply">
<path d="M29.9078 157.208V147.23L39.886 152.975L40.1884 163.256L29.9078 157.208Z" fill="#0BA79C"/>
</g>
<g style="mix-blend-mode:multiply">
<path d="M19.9293 131.204V120.924L29.9076 126.669V136.95L19.9293 131.204Z" fill="#0BA79C"/>
</g>
<g style="mix-blend-mode:multiply">
<path d="M29.6055 116.388V106.108L39.5838 112.155V122.363L29.6055 116.388Z" fill="#0BA79C"/>
</g>
<g style="mix-blend-mode:multiply">
<path d="M9.95093 155.999V145.718L19.9292 151.463V161.744L9.95093 155.999Z" fill="#0BA79C"/>
</g>
<g style="mix-blend-mode:multiply">
<path d="M6.62545 158.72C5.1136 155.999 3.60175 152.37 3.60175 152.37L9.95153 155.999V163.558C9.95153 163.558 8.13731 161.442 6.62545 158.72Z" fill="#0BA79C"/>
</g>
<g style="mix-blend-mode:multiply">
<path d="M40.1884 173.234V163.256L50.1666 168.878V178.979L40.1884 173.234Z" fill="#0BA79C"/>
</g>
<g style="mix-blend-mode:multiply">
<path d="M50.469 188.05V178.979L60.4472 184.724V193.795L50.469 188.05Z" fill="#0BA79C"/>
</g>
<g style="mix-blend-mode:multiply">
<path d="M70.734 199.322V190.894L80.8194 196.214V204.342L78.59 203.773L70.734 199.322Z" fill="#0BA79C"/>
</g>
<g style="mix-blend-mode:multiply">
<path d="M81.0079 204.642L80.7056 196.516L90.9862 202.261L88.5672 203.773C88.5672 203.773 87.0553 204.378 85.2411 204.68C83.4269 204.983 81.0079 204.642 81.0079 204.642Z" fill="#0BA79C"/>
</g>
<g style="mix-blend-mode:multiply">
<path d="M30.2101 176.862L29.9078 167.489L40.1884 173.234V182.305L30.2101 176.862Z" fill="#0BA79C"/>
</g>
<g style="mix-blend-mode:multiply">
<path d="M19.9293 171.42V161.744L30.2099 167.489V176.862L19.9293 171.42Z" fill="#0BA79C"/>
</g>
<g style="mix-blend-mode:multiply">
<path d="M0.577438 140.275C0.577438 140.275 -0.329697 136.345 0.879785 130.297C1.78692 130.6 9.95093 135.437 9.95093 135.437V145.718L0.577438 140.275Z" fill="#0BA79C"/>
</g>
<g style="mix-blend-mode:multiply">
<path d="M49.8902 158.621V148.536L59.9756 154.587V164.672L49.8902 158.621Z" fill="#0BA79C"/>
</g>
<g style="mix-blend-mode:multiply">
<path d="M70.7336 190.894L70.0613 180.809L80.819 186.188V196.273L70.7336 190.894Z" fill="#0BA79C"/>
</g>
<g style="mix-blend-mode:multiply">
<path d="M80.1464 176.102V166.689L90.2318 172.068L90.9042 182.826L80.1464 176.102Z" fill="#0BA79C"/>
</g>
</svg>
