<svg xmlns="http://www.w3.org/2000/svg" viewBox="0 0 1080 1080" width="1080" height="1080" preserveAspectRatio="xMidYMid meet"><defs><clipPath id="clip0"><rect width="1080" height="1080" x="0" y="0"></rect></clipPath></defs><g clip-path="url(#clip0)"><g transform="matrix(1,0,0,1,0,0)" opacity="1"><rect width="1080" height="1080" fill="#00000000"></rect></g><g transform="matrix(1,0,0,1,-13,20)" opacity="1"><g opacity="0" transform="matrix(1,0,0,1,0,0)"><g opacity="1" transform="matrix(1,0,0,1,0,0)"><path stroke-linecap="butt" stroke-linejoin="miter" fill-opacity="0" stroke-miterlimit="4" stroke="rgb(163,163,163)" stroke-opacity="1" stroke-width="5" d=" M328.7030029296875,398.75299072265625 C328.7030029296875,398.75299072265625 420.8909912109375,398.75299072265625 420.8909912109375,398.75299072265625"></path></g><g opacity="1" transform="matrix(1,0,0,1,0,0)"><path stroke-linecap="butt" stroke-linejoin="miter" fill-opacity="0" stroke-miterlimit="4" stroke="rgb(163,163,163)" stroke-opacity="1" stroke-width="5" d=" M450.3940124511719,398.75299072265625 C450.3940124511719,398.75299072265625 542.5809936523438,398.75299072265625 542.5809936523438,398.75299072265625"></path></g><g opacity="1" transform="matrix(1,0,0,1,0,0)"><path stroke-linecap="butt" stroke-linejoin="miter" fill-opacity="0" stroke-miterlimit="4" stroke="rgb(163,163,163)" stroke-opacity="1" stroke-width="5" d=" M435.6419982910156,384.38299560546875 C435.6419982910156,384.38299560546875 435.6419982910156,294.32598876953125 435.6419982910156,294.32598876953125"></path></g></g><g opacity="0" transform="matrix(1,0,0,1,0,0)"><g opacity="1" transform="matrix(1,0,0,1,0,0)"><path stroke-linecap="butt" stroke-linejoin="miter" fill-opacity="0" stroke-miterlimit="4" stroke="rgb(163,163,163)" stroke-opacity="1" stroke-width="5" d=" M92.69000244140625,517.6489868164062 C92.69000244140625,517.6489868164062 184.88400268554688,517.6489868164062 184.88400268554688,517.6489868164062"></path></g><g opacity="1" transform="matrix(1,0,0,1,0,0)"><path stroke-linecap="butt" stroke-linejoin="miter" fill-opacity="0" stroke-miterlimit="4" stroke="rgb(163,163,163)" stroke-opacity="1" stroke-width="5" d=" M214.38699340820312,517.6489868164062 C214.38699340820312,517.6489868164062 306.57501220703125,517.6489868164062 306.57501220703125,517.6489868164062"></path></g><g opacity="1" transform="matrix(1,0,0,1,0,0)"><path stroke-linecap="butt" stroke-linejoin="miter" fill-opacity="0" stroke-miterlimit="4" stroke="rgb(163,163,163)" stroke-opacity="1" stroke-width="5" d=" M199.62899780273438,503.1929931640625 C199.62899780273438,503.1929931640625 199.62899780273438,413.135986328125 199.62899780273438,413.135986328125"></path></g></g><g opacity="0" transform="matrix(1,0,0,1,0,0)"><g opacity="1" transform="matrix(1,0,0,1,0,0)"><path stroke-linecap="butt" stroke-linejoin="miter" fill-opacity="0" stroke-miterlimit="4" stroke="rgb(163,163,163)" stroke-opacity="1" stroke-width="5" d=" M328.7030029296875,517.6489868164062 C328.7030029296875,517.6489868164062 420.8909912109375,517.6489868164062 420.8909912109375,517.6489868164062"></path></g><g opacity="1" transform="matrix(1,0,0,1,0,0)"><path stroke-linecap="butt" stroke-linejoin="miter" fill-opacity="0" stroke-miterlimit="4" stroke="rgb(163,163,163)" stroke-opacity="1" stroke-width="5" d=" M450.3940124511719,517.6489868164062 C450.3940124511719,517.6489868164062 542.5809936523438,517.6489868164062 542.5809936523438,517.6489868164062"></path></g><g opacity="1" transform="matrix(1,0,0,1,0,0)"><path stroke-linecap="butt" stroke-linejoin="miter" fill-opacity="0" stroke-miterlimit="4" stroke="rgb(163,163,163)" stroke-opacity="1" stroke-width="5" d=" M435.6419982910156,503.1929931640625 C435.6419982910156,503.1929931640625 435.6419982910156,413.135986328125 435.6419982910156,413.135986328125"></path></g></g><g opacity="1" transform="matrix(1,0,0,1,0,0)"><g opacity="1" transform="matrix(1,0,0,1,0,0)"><path stroke-linecap="butt" stroke-linejoin="miter" fill-opacity="0" stroke-miterlimit="4" stroke="rgb(163,163,163)" stroke-opacity="1" stroke-width="5" d=" M92.69000244140625,636.4710083007812 C92.69000244140625,636.4710083007812 184.88400268554688,636.4710083007812 184.88400268554688,636.4710083007812"></path></g><g opacity="1" transform="matrix(1,0,0,1,0,0)"><path stroke-linecap="butt" stroke-linejoin="miter" fill-opacity="0" stroke-miterlimit="4" stroke="rgb(163,163,163)" stroke-opacity="1" stroke-width="5" d=" M214.38699340820312,636.4710083007812 C214.38699340820312,636.4710083007812 306.57501220703125,636.4710083007812 306.57501220703125,636.4710083007812"></path></g><g opacity="1" transform="matrix(1,0,0,1,0,0)"><path stroke-linecap="butt" stroke-linejoin="miter" fill-opacity="0" stroke-miterlimit="4" stroke="rgb(163,163,163)" stroke-opacity="1" stroke-width="5" d=" M199.62899780273438,622.0830078125 C199.62899780273438,622.0830078125 199.62899780273438,532.031982421875 199.62899780273438,532.031982421875"></path></g></g><g opacity="1" transform="matrix(1,0,0,1,0,0)"><g opacity="1" transform="matrix(1,0,0,1,0,0)"><path stroke-linecap="butt" stroke-linejoin="miter" fill-opacity="0" stroke-miterlimit="4" stroke="rgb(163,163,163)" stroke-opacity="1" stroke-width="5" d=" M328.7030029296875,636.4710083007812 C328.7030029296875,636.4710083007812 420.8909912109375,636.4710083007812 420.8909912109375,636.4710083007812"></path></g><g opacity="1" transform="matrix(1,0,0,1,0,0)"><path stroke-linecap="butt" stroke-linejoin="miter" fill-opacity="0" stroke-miterlimit="4" stroke="rgb(163,163,163)" stroke-opacity="1" stroke-width="5" d=" M450.3940124511719,636.4710083007812 C450.3940124511719,636.4710083007812 542.5809936523438,636.4710083007812 542.5809936523438,636.4710083007812"></path></g><g opacity="1" transform="matrix(1,0,0,1,0,0)"><path stroke-linecap="butt" stroke-linejoin="miter" fill-opacity="0" stroke-miterlimit="4" stroke="rgb(163,163,163)" stroke-opacity="1" stroke-width="5" d=" M435.6419982910156,622.0830078125 C435.6419982910156,622.0830078125 435.6419982910156,532.031982421875 435.6419982910156,532.031982421875"></path></g></g><g opacity="1" transform="matrix(1,0,0,1,0,0)"><g opacity="1" transform="matrix(1,0,0,1,0,0)"><path stroke-linecap="butt" stroke-linejoin="miter" fill-opacity="0" stroke-miterlimit="4" stroke="rgb(163,163,163)" stroke-opacity="1" stroke-width="5" d=" M564.708984375,636.4710083007812 C564.708984375,636.4710083007812 656.89697265625,636.4710083007812 656.89697265625,636.4710083007812"></path></g><g opacity="1" transform="matrix(1,0,0,1,0,0)"><path stroke-linecap="butt" stroke-linejoin="miter" fill-opacity="0" stroke-miterlimit="4" stroke="rgb(163,163,163)" stroke-opacity="1" stroke-width="5" d=" M686.4010009765625,636.4710083007812 C686.4010009765625,636.4710083007812 778.594970703125,636.4710083007812 778.594970703125,636.4710083007812"></path></g><g opacity="1" transform="matrix(1,0,0,1,0,0)"><path stroke-linecap="butt" stroke-linejoin="miter" fill-opacity="0" stroke-miterlimit="4" stroke="rgb(163,163,163)" stroke-opacity="1" stroke-width="5" d=" M671.6489868164062,622.0830078125 C671.6489868164062,622.0830078125 671.6489868164062,532.031982421875 671.6489868164062,532.031982421875"></path></g></g><g opacity="1" transform="matrix(1,0,0,1,0,0)"><g opacity="1" transform="matrix(1,0,0,1,0,0)"><path stroke-linecap="butt" stroke-linejoin="miter" fill-opacity="0" stroke-miterlimit="4" stroke="rgb(163,163,163)" stroke-opacity="1" stroke-width="5" d=" M92.69000244140625,755.281005859375 C92.69000244140625,755.281005859375 184.88400268554688,755.281005859375 184.88400268554688,755.281005859375"></path></g><g opacity="1" transform="matrix(1,0,0,1,0,0)"><path stroke-linecap="butt" stroke-linejoin="miter" fill-opacity="0" stroke-miterlimit="4" stroke="rgb(163,163,163)" stroke-opacity="1" stroke-width="5" d=" M214.38699340820312,755.281005859375 C214.38699340820312,755.281005859375 306.57501220703125,755.281005859375 306.57501220703125,755.281005859375"></path></g><g opacity="1" transform="matrix(1,0,0,1,0,0)"><path stroke-linecap="butt" stroke-linejoin="miter" fill-opacity="0" stroke-miterlimit="4" stroke="rgb(163,163,163)" stroke-opacity="1" stroke-width="5" d=" M199.62899780273438,740.905029296875 C199.62899780273438,740.905029296875 199.62899780273438,650.85400390625 199.62899780273438,650.85400390625"></path></g></g><g opacity="1" transform="matrix(1,0,0,1,0,0)"><g opacity="1" transform="matrix(1,0,0,1,0,0)"><path stroke-linecap="butt" stroke-linejoin="miter" fill-opacity="0" stroke-miterlimit="4" stroke="rgb(163,163,163)" stroke-opacity="1" stroke-width="5" d=" M328.7030029296875,755.281005859375 C328.7030029296875,755.281005859375 420.8909912109375,755.281005859375 420.8909912109375,755.281005859375"></path></g><g opacity="1" transform="matrix(1,0,0,1,0,0)"><path stroke-linecap="butt" stroke-linejoin="miter" fill-opacity="0" stroke-miterlimit="4" stroke="rgb(163,163,163)" stroke-opacity="1" stroke-width="5" d=" M450.3940124511719,755.281005859375 C450.3940124511719,755.281005859375 542.5809936523438,755.281005859375 542.5809936523438,755.281005859375"></path></g><g opacity="1" transform="matrix(1,0,0,1,0,0)"><path stroke-linecap="butt" stroke-linejoin="miter" fill-opacity="0" stroke-miterlimit="4" stroke="rgb(163,163,163)" stroke-opacity="1" stroke-width="5" d=" M435.6419982910156,740.905029296875 C435.6419982910156,740.905029296875 435.6419982910156,650.85400390625 435.6419982910156,650.85400390625"></path></g></g><g opacity="1" transform="matrix(1,0,0,1,0,0)"><g opacity="1" transform="matrix(1,0,0,1,0,0)"><path stroke-linecap="butt" stroke-linejoin="miter" fill-opacity="0" stroke-miterlimit="4" stroke="rgb(163,163,163)" stroke-opacity="1" stroke-width="5" d=" M564.708984375,755.281005859375 C564.708984375,755.281005859375 656.89697265625,755.281005859375 656.89697265625,755.281005859375"></path></g><g opacity="1" transform="matrix(1,0,0,1,0,0)"><path stroke-linecap="butt" stroke-linejoin="miter" fill-opacity="0" stroke-miterlimit="4" stroke="rgb(163,163,163)" stroke-opacity="1" stroke-width="5" d=" M686.4010009765625,755.281005859375 C686.4010009765625,755.281005859375 778.594970703125,755.281005859375 778.594970703125,755.281005859375"></path></g><g opacity="1" transform="matrix(1,0,0,1,0,0)"><path stroke-linecap="butt" stroke-linejoin="miter" fill-opacity="0" stroke-miterlimit="4" stroke="rgb(163,163,163)" stroke-opacity="1" stroke-width="5" d=" M671.6489868164062,740.905029296875 C671.6489868164062,740.905029296875 671.6489868164062,650.85400390625 671.6489868164062,650.85400390625"></path></g></g><g opacity="1" transform="matrix(1,0,0,1,0,0)"><g opacity="1" transform="matrix(1,0,0,1,0,0)"><path stroke-linecap="butt" stroke-linejoin="miter" fill-opacity="0" stroke-miterlimit="4" stroke="rgb(163,163,163)" stroke-opacity="1" stroke-width="5" d=" M800.7230224609375,755.281005859375 C800.7230224609375,755.281005859375 892.9110107421875,755.281005859375 892.9110107421875,755.281005859375"></path></g><g opacity="1" transform="matrix(1,0,0,1,0,0)"><path stroke-linecap="butt" stroke-linejoin="miter" fill-opacity="0" stroke-miterlimit="4" stroke="rgb(163,163,163)" stroke-opacity="1" stroke-width="5" d=" M922.4140014648438,755.281005859375 C922.4140014648438,755.281005859375 1014.6019897460938,755.281005859375 1014.6019897460938,755.281005859375"></path></g><g opacity="1" transform="matrix(1,0,0,1,0,0)"><path stroke-linecap="butt" stroke-linejoin="miter" fill-opacity="0" stroke-miterlimit="4" stroke="rgb(163,163,163)" stroke-opacity="1" stroke-width="5" d=" M907.6619873046875,740.8989868164062 C907.6619873046875,740.8989868164062 907.6619873046875,650.8480224609375 907.6619873046875,650.8480224609375"></path></g></g><g opacity="1" transform="matrix(1,0,0,1,0,0)"><g opacity="1" transform="matrix(1,0,0,1,0,0)"><path stroke-linecap="butt" stroke-linejoin="miter" fill-opacity="0" stroke-miterlimit="4" stroke="rgb(163,163,163)" stroke-opacity="1" stroke-width="5" d=" M199.62899780273438,859.7150268554688 C199.62899780273438,859.7150268554688 199.62899780273438,769.6640014648438 199.62899780273438,769.6640014648438"></path></g><g opacity="1" transform="matrix(1,0,0,1,0,0)"><path stroke-linecap="butt" stroke-linejoin="miter" fill-opacity="0" stroke-miterlimit="4" stroke="rgb(163,163,163)" stroke-opacity="1" stroke-width="5" d=" M92.69000244140625,874.0910034179688 C92.69000244140625,874.0910034179688 184.88400268554688,874.0910034179688 184.88400268554688,874.0910034179688"></path></g><g opacity="1" transform="matrix(1,0,0,1,0,0)"><path stroke-linecap="butt" stroke-linejoin="miter" fill-opacity="0" stroke-miterlimit="4" stroke="rgb(163,163,163)" stroke-opacity="1" stroke-width="5" d=" M214.38699340820312,874.0910034179688 C214.38699340820312,874.0910034179688 306.57501220703125,874.0910034179688 306.57501220703125,874.0910034179688"></path></g><g opacity="1" transform="matrix(1,0,0,1,0,0)"><path stroke-linecap="butt" stroke-linejoin="miter" fill-opacity="0" stroke-miterlimit="4" stroke="rgb(163,163,163)" stroke-opacity="1" stroke-width="5" d=" M199.62899780273438,978.60498046875 C199.62899780273438,978.60498046875 199.62899780273438,888.5540161132812 199.62899780273438,888.5540161132812"></path></g></g><g opacity="1" transform="matrix(1,0,0,1,0,0)"><g opacity="1" transform="matrix(1,0,0,1,0,0)"><path stroke-linecap="butt" stroke-linejoin="miter" fill-opacity="0" stroke-miterlimit="4" stroke="rgb(163,163,163)" stroke-opacity="1" stroke-width="5" d=" M435.6419982910156,859.7150268554688 C435.6419982910156,859.7150268554688 435.6419982910156,769.6640014648438 435.6419982910156,769.6640014648438"></path></g><g opacity="1" transform="matrix(1,0,0,1,0,0)"><path stroke-linecap="butt" stroke-linejoin="miter" fill-opacity="0" stroke-miterlimit="4" stroke="rgb(163,163,163)" stroke-opacity="1" stroke-width="5" d=" M328.7030029296875,874.0910034179688 C328.7030029296875,874.0910034179688 420.8909912109375,874.0910034179688 420.8909912109375,874.0910034179688"></path></g><g opacity="1" transform="matrix(1,0,0,1,0,0)"><path stroke-linecap="butt" stroke-linejoin="miter" fill-opacity="0" stroke-miterlimit="4" stroke="rgb(163,163,163)" stroke-opacity="1" stroke-width="5" d=" M450.3940124511719,874.0910034179688 C450.3940124511719,874.0910034179688 542.5809936523438,874.0910034179688 542.5809936523438,874.0910034179688"></path></g><g opacity="1" transform="matrix(1,0,0,1,0,0)"><path stroke-linecap="butt" stroke-linejoin="miter" fill-opacity="0" stroke-miterlimit="4" stroke="rgb(163,163,163)" stroke-opacity="1" stroke-width="5" d=" M435.6419982910156,978.60498046875 C435.6419982910156,978.60498046875 435.6419982910156,888.5540161132812 435.6419982910156,888.5540161132812"></path></g></g><g opacity="1" transform="matrix(1,0,0,1,0,0)"><g opacity="1" transform="matrix(1,0,0,1,0,0)"><path stroke-linecap="butt" stroke-linejoin="miter" fill-opacity="0" stroke-miterlimit="4" stroke="rgb(163,163,163)" stroke-opacity="1" stroke-width="5" d=" M671.6489868164062,859.7150268554688 C671.6489868164062,859.7150268554688 671.6489868164062,769.6640014648438 671.6489868164062,769.6640014648438"></path></g><g opacity="1" transform="matrix(1,0,0,1,0,0)"><path stroke-linecap="butt" stroke-linejoin="miter" fill-opacity="0" stroke-miterlimit="4" stroke="rgb(163,163,163)" stroke-opacity="1" stroke-width="5" d=" M564.708984375,874.0910034179688 C564.708984375,874.0910034179688 656.89697265625,874.0910034179688 656.89697265625,874.0910034179688"></path></g><g opacity="1" transform="matrix(1,0,0,1,0,0)"><path stroke-linecap="butt" stroke-linejoin="miter" fill-opacity="0" stroke-miterlimit="4" stroke="rgb(163,163,163)" stroke-opacity="1" stroke-width="5" d=" M686.4010009765625,874.0910034179688 C686.4010009765625,874.0910034179688 778.594970703125,874.0910034179688 778.594970703125,874.0910034179688"></path></g><g opacity="1" transform="matrix(1,0,0,1,0,0)"><path stroke-linecap="butt" stroke-linejoin="miter" fill-opacity="0" stroke-miterlimit="4" stroke="rgb(163,163,163)" stroke-opacity="1" stroke-width="5" d=" M671.6489868164062,978.60498046875 C671.6489868164062,978.60498046875 671.6489868164062,888.5540161132812 671.6489868164062,888.5540161132812"></path></g></g><g opacity="1" transform="matrix(1,0,0,1,0,0)"><g opacity="1" transform="matrix(1,0,0,1,0,0)"><path stroke-linecap="butt" stroke-linejoin="miter" fill-opacity="0" stroke-miterlimit="4" stroke="rgb(163,163,163)" stroke-opacity="1" stroke-width="5" d=" M907.6619873046875,859.7210083007812 C907.6619873046875,859.7210083007812 907.6619873046875,769.6699829101562 907.6619873046875,769.6699829101562"></path></g><g opacity="1" transform="matrix(1,0,0,1,0,0)"><path stroke-linecap="butt" stroke-linejoin="miter" fill-opacity="0" stroke-miterlimit="4" stroke="rgb(163,163,163)" stroke-opacity="1" stroke-width="5" d=" M800.7230224609375,874.0850219726562 C800.7230224609375,874.0850219726562 892.9110107421875,874.0850219726562 892.9110107421875,874.0850219726562"></path></g><g opacity="1" transform="matrix(1,0,0,1,0,0)"><path stroke-linecap="butt" stroke-linejoin="miter" fill-opacity="0" stroke-miterlimit="4" stroke="rgb(163,163,163)" stroke-opacity="1" stroke-width="5" d=" M922.4140014648438,874.0850219726562 C922.4140014648438,874.0850219726562 1014.6019897460938,874.0850219726562 1014.6019897460938,874.0850219726562"></path></g><g opacity="1" transform="matrix(1,0,0,1,0,0)"><path stroke-linecap="butt" stroke-linejoin="miter" fill-opacity="0" stroke-miterlimit="4" stroke="rgb(163,163,163)" stroke-opacity="1" stroke-width="5" d=" M907.6619873046875,978.60498046875 C907.6619873046875,978.60498046875 907.6619873046875,888.5540161132812 907.6619873046875,888.5540161132812"></path></g></g></g><g style="display: none;" transform="matrix(1,0,0,1,-13,137)" opacity="1"><g opacity="1" transform="matrix(1,0,0,1,0,0)"><path stroke-linecap="butt" stroke-linejoin="miter" fill-opacity="0" stroke-miterlimit="4" stroke="rgb(163,163,163)" stroke-opacity="1" stroke-width="5" d=" M199.62899780273438,265.55999755859375 C199.62899780273438,265.55999755859375 199.62899780273438,175.50900268554688 199.62899780273438,175.50900268554688"></path></g><g opacity="1" transform="matrix(1,0,0,1,0,0)"><path stroke-linecap="butt" stroke-linejoin="miter" fill-opacity="0" stroke-miterlimit="4" stroke="rgb(163,163,163)" stroke-opacity="1" stroke-width="5" d=" M199.62899780273438,384.38299560546875 C199.62899780273438,384.38299560546875 199.62899780273438,294.32598876953125 199.62899780273438,294.32598876953125"></path></g><g opacity="1" transform="matrix(1,0,0,1,0,0)"><path stroke-linecap="butt" stroke-linejoin="miter" fill-opacity="0" stroke-miterlimit="4" stroke="rgb(163,163,163)" stroke-opacity="1" stroke-width="5" d=" M92.69000244140625,279.9429931640625 C92.69000244140625,279.9429931640625 184.88400268554688,279.9429931640625 184.88400268554688,279.9429931640625"></path></g><g opacity="1" transform="matrix(1,0,0,1,0,0)"><path stroke-linecap="butt" stroke-linejoin="miter" fill-opacity="0" stroke-miterlimit="4" stroke="rgb(163,163,163)" stroke-opacity="1" stroke-width="5" d=" M214.38699340820312,279.9429931640625 C214.38699340820312,279.9429931640625 306.57501220703125,279.9429931640625 306.57501220703125,279.9429931640625"></path></g></g><g style="display: none;" transform="matrix(1,0,0,1,223.5,19)" opacity="1"><g opacity="1" transform="matrix(1,0,0,1,0,0)"><path stroke-linecap="butt" stroke-linejoin="miter" fill-opacity="0" stroke-miterlimit="4" stroke="rgb(163,163,163)" stroke-opacity="1" stroke-width="5" d=" M199.62899780273438,265.55999755859375 C199.62899780273438,265.55999755859375 199.62899780273438,175.50900268554688 199.62899780273438,175.50900268554688"></path></g><g opacity="1" transform="matrix(1,0,0,1,0,0)"><path stroke-linecap="butt" stroke-linejoin="miter" fill-opacity="0" stroke-miterlimit="4" stroke="rgb(163,163,163)" stroke-opacity="1" stroke-width="5" d=" M92.69000244140625,279.9429931640625 C92.69000244140625,279.9429931640625 184.88400268554688,279.9429931640625 184.88400268554688,279.9429931640625"></path></g><g opacity="1" transform="matrix(1,0,0,1,0,0)"><path stroke-linecap="butt" stroke-linejoin="miter" fill-opacity="0" stroke-miterlimit="4" stroke="rgb(163,163,163)" stroke-opacity="1" stroke-width="5" d=" M214.38699340820312,279.9429931640625 C214.38699340820312,279.9429931640625 306.57501220703125,279.9429931640625 306.57501220703125,279.9429931640625"></path></g></g><g style="display: none;" transform="matrix(1,0,0,1,-13,19)" opacity="1"><g opacity="1" transform="matrix(1,0,0,1,0,0)"><path stroke-linecap="butt" stroke-linejoin="miter" fill-opacity="0" stroke-miterlimit="4" stroke="rgb(163,163,163)" stroke-opacity="1" stroke-width="5" d=" M199.62899780273438,265.55999755859375 C199.62899780273438,265.55999755859375 199.62899780273438,175.50900268554688 199.62899780273438,175.50900268554688"></path></g><g opacity="1" transform="matrix(1,0,0,1,0,0)"><path stroke-linecap="butt" stroke-linejoin="miter" fill-opacity="0" stroke-miterlimit="4" stroke="rgb(163,163,163)" stroke-opacity="1" stroke-width="5" d=" M92.69000244140625,279.9429931640625 C92.69000244140625,279.9429931640625 184.88400268554688,279.9429931640625 184.88400268554688,279.9429931640625"></path></g><g opacity="1" transform="matrix(1,0,0,1,0,0)"><path stroke-linecap="butt" stroke-linejoin="miter" fill-opacity="0" stroke-miterlimit="4" stroke="rgb(163,163,163)" stroke-opacity="1" stroke-width="5" d=" M214.38699340820312,279.9429931640625 C214.38699340820312,279.9429931640625 306.57501220703125,279.9429931640625 306.57501220703125,279.9429931640625"></path></g></g><g style="display: none;" transform="matrix(1,0,0,1,-13,20)" opacity="1"><g opacity="1" transform="matrix(1,0,0,1,0,0)"><path stroke-linecap="butt" stroke-linejoin="miter" fill-opacity="0" stroke-miterlimit="4" stroke="rgb(11,167,156)" stroke-opacity="1" stroke-width="5" d=" M799.1710205078125,160.53599548339844 C799.1710205078125,160.53599548339844 891.4390258789062,160.53599548339844 891.4390258789062,160.53599548339844"></path></g><g opacity="1" transform="matrix(1,0,0,1,0,0)"><path stroke-linecap="butt" stroke-linejoin="miter" fill-opacity="0" stroke-miterlimit="4" stroke="rgb(11,167,156)" stroke-opacity="1" stroke-width="5" d=" M923.958984375,160.53599548339844 C923.958984375,160.53599548339844 1016.2269897460938,160.53599548339844 1016.2269897460938,160.53599548339844"></path></g><g opacity="1" transform="matrix(1,0,0,1,0,0)"><path stroke-linecap="butt" stroke-linejoin="miter" fill-opacity="0" stroke-miterlimit="4" stroke="rgb(11,167,156)" stroke-opacity="1" stroke-width="5" d=" M908.3270263671875,270.42401123046875 C908.3270263671875,270.42401123046875 908.3270263671875,178.156005859375 908.3270263671875,178.156005859375"></path></g><g opacity="1" transform="matrix(1,0,0,1,0,0)"><path stroke-linecap="butt" stroke-linejoin="miter" fill-opacity="0" stroke-miterlimit="4" stroke="rgb(11,167,156)" stroke-opacity="1" stroke-width="5" d=" M908.3270263671875,144.01699829101562 C908.3270263671875,144.01699829101562 908.3270263671875,51.749000549316406 908.3270263671875,51.749000549316406"></path></g></g></g></svg>
