<?xml version="1.0" encoding="UTF-8"?> <!-- Generator: Adobe Illustrator 24.1.0, SVG Export Plug-In . SVG Version: 6.00 Build 0) --> <svg xmlns="http://www.w3.org/2000/svg" xmlns:xlink="http://www.w3.org/1999/xlink" version="1.1" id="Layer_1" x="0px" y="0px" viewBox="0 0 402.1 417.7" style="enable-background:new 0 0 402.1 417.7;" xml:space="preserve"> <style type="text/css"> .st0{fill:#058CC6;} .st1{fill:#C08542;} .st2{fill:#F4BD1B;} .st3{fill:#0275AE;} .st4{fill:#056F9F;} .st5{fill:#F2E6CE;} .st6{fill:#EC8B23;} .st7{fill:#2C2725;} .st8{fill:#005384;} .st9{fill:#DEBD7C;} .st10{fill:#CFA766;} .st11{fill:#9B7D5E;} .st12{fill:#935B25;} .st13{fill:#81491E;} .st14{fill:#F39A7B;} </style> <g> <path class="st0" d="M292,174.1c2.7-0.2,5.4,0.1,8,0.7c0,0.3,0,0.7,0.1,0.9c1.1,2.6,2.1,5.1,3.2,7.7c0,1,0.7,1.7,0.9,2.6 c0.3,1.5,1.5,2.6,1.6,4.2c-0.1,0.8,0.7,1.1,1,1.8c0.6,1.3,1.1,2.7,1.6,4c0.7,1.8,1.5,3.5,2.1,5.4c0.5,1.5,1.5,2.8,1.6,4.4 c1.3,1.7,1.4,3.9,2.7,5.7c0.8,1.1,0.9,2.5,1.4,3.8c0.9,2.1,1.7,4.2,2.6,6.3c1.1,2.6,2,5.3,3.1,8c0.2,0.6,0.9,0.9,1,1.7 c0.3,1.4,0.9,2.8,1.5,4.1c0.8,1.8,1.5,3.5,2.2,5.3c0.7,1.9,1.4,3.8,2.1,5.7c0.6,1.7,1,3.6,2.3,5c0.6,0.7,0.4,1.5,0.8,2.2 c0.7,1.3,1.3,2.6,1.6,4.1c0,0.4,0.2,0.6,0.6,0.7l0,0c0,0.2,0,0.4-0.1,0.6c-0.3,0-0.5,0.2-0.6,0.4c-1.4,1.4-2.8,2.8-4.2,4.2 c-1.2,1.2-2.5,2.3-3.6,3.6c-1.1,1.3-2.5,2.2-3.7,3.3c-2.2,2.1-4.4,4.3-6.9,6c-0.9,0.6-1.4,1.6-2.3,2.1c-1.6,1-3,2.1-4.4,3.4 c-1.4,1.3-3.3,1.9-4.5,3.4c-1,0-1.2,1.1-2,1.4c-0.9,0.4-1.8,1.2-2.6,1.8c-1.7,1.1-3.3,2.6-5.2,3.4c-1.1,0.5-2,1.2-2.9,1.9 c-1.1,0.9-2.4,1.6-3.6,2.4c-0.9,0.6-1.9,0.8-2.8,1.4c-1.4,0.8-2.7,1.8-4.2,2.4c-0.9,0.4-1.4,1.3-2.2,1.4c-1.4,0.2-2.3,1.2-3.5,1.7 c-1.7,0.8-3.4,1.9-5.3,2.2c-0.5,0.1-0.9,0.3-1.3,0.6c-1.5,1-3.2,1.6-4.9,2.2c-1.4,0.5-3.1,0.8-4.4,1.5c-1.8,1.1-3.9,1.4-5.8,2 c-1.8,0.5-3.4,1.4-5.2,1.7c-0.7,0.1-1.6,0.2-2.3,0.5c-1.3,0.5-2.5,1.2-4,1.1c-0.3,0-0.6,0-0.8,0.2c-0.5,0.5-1.2,0.4-1.8,0.5 c-0.3,0-0.6,0-0.8,0.1c-2,1.3-4.4,1-6.6,1.7c-1.2,0.4-2.6,0.3-4,0.8c-2,0.7-4.1,0.9-6.2,1.2c-2,0.3-4.1,0.6-6.1,0.9 c-1.9,0.3-3.9,0.5-5.8,0.8c-1.6,0.2-3.3,0.2-4.9,0.4c-1.2,0.2-2.1,0.8-3.4,0.8c-1.6,0-3.3-0.5-4.8,0.4c-0.2,0.1-0.4-0.1-0.5-0.3 c-0.2-0.1-0.4-0.2-0.6-0.1c-0.8,0.8-1.8,0.5-2.7,0.5c-2.3,0-4.7,0-7,0c-0.4,0-1.1-0.1-1.2,0.1c-0.6,0.7-1.3-0.2-1.9,0.3 c-0.6,0.5-1.4,0.2-2.2,0.2c-1.4,0-2.9,0-4.3,0c-1.4,0-2.9,0-4.3,0c-1.4,0-2.9,0-4.3,0c-1.4,0-2.9-0.1-4.3,0 c-1.4,0.1-2.7-0.7-4.1-0.1c-0.2,0.1-0.5,0-0.6-0.1c-0.9-0.8-1.9-0.5-2.9-0.5c-1.8,0-3.5,0-5.3,0c-0.5,0-1,0.1-1.4-0.2 c-0.4-0.4-1-0.4-1.5-0.4c-0.9,0-1.8,0-2.7,0c-0.8-0.7-1.1-1.7-1.6-2.6c-1.4-2.1-2.7-4.3-3.6-6.7c0-0.8,0.5-1.1,1.2-1.2 c1.1-0.3,2.1-0.8,3.2-1c1.8-0.4,3.3-1.8,5.2-1.9c0.7-0.8,1.7-0.5,2.6-1c1.5-1,3.3-1.4,4.9-2.4c0.2-0.1,0.5-0.2,0.7-0.3 c1.5-0.4,2.9-1.1,4.2-1.7c2.6-1.2,5.2-2.7,7.8-4.1c0.6-0.3,1.4-0.1,1.8-0.8c0.4-0.7,1.2-1,1.9-1.4c1.2-0.6,2.4-1.1,3.4-2 c0.6-0.5,1.2-1.2,1.8-1.4c1.8-0.5,2.7-2.1,4.2-2.9c0.9-0.5,1.7-1.4,2.6-2.1c1.2-0.9,2.2-1.9,3.2-2.9c0.9-0.9,1.3-2,2.2-2.9 c1.5-1.5,2.2-3.6,2.2-5.6c0-2.5-1.4-4.4-3.8-5.4c-2.4-1-5-1.3-7.6-1.5c-2.3-0.2-4.6,0.4-7,0.5c-2.3,0.2-4.6,0.6-6.9,1.1 c-2.2,0.5-4.3,0.9-6.5,1.5c-0.8,0.2-1.5,0.8-2.4,0.7c-1.2,0-2.2,0.6-3.3,0.9c-1.1,0.3-2.3,0.6-3.4,1c-0.9,0.4-1.8,0.8-2.8,0.9 c-1.3,0.2-2.5,1-3.7,1.5c-3,1.3-6.3,1.9-9.2,3.7c-1.4,0.8-2.9,1.3-4.4,1.9c-1.2,0.5-2.3,1.2-3.6,1.3c0-0.6-0.8-0.9-0.7-1.5 c0.1-0.5-0.3-1-0.4-1.5c-0.2-1.2-0.9-2.3-1.1-3.5c-0.2-1.2-0.3-2.4-0.8-3.5c-0.6-1.4-0.2-3-1-4.2c0.1-2-0.9-3.8-0.8-5.8 c-0.5-1.6-0.6-3.2-0.5-4.8c0-0.1,0-0.2,0-0.3c-0.3-2.9-0.6-5.8-0.9-8.8c1.1,0,1.6-0.9,2-1.6c1.5-3,4-5.4,6.1-8c1.8-2.2,4-4.1,6-6.1 c2-2.2,4.2-4.2,6.4-6.1c1.5-1.3,3.1-2.7,4.7-3.9c2-1.6,4.1-3,5.9-4.8c0.7-0.7,1.8-1.1,2.6-1.7c1.3-0.9,2.4-2,3.8-2.8 c1.4-0.9,2.8-1.7,4-2.7c0.9-0.7,1.9-1.8,3.3-1.6c0.7,2,1.9,3.1,4.1,3.6c1.9,0.4,3.7,0.2,5.5-0.3c1.3-0.3,2.5-0.8,3.5-1.9 c1.1-1.2,2.4-2.3,3.9-2.9c1.3-0.5,2.4-0.6,3.7,0.1c1.1,0.7,2,1.8,3.4,2.1c0,0.2,0.1,0.5,0.3,0.5c1,0,2.1,0.7,2.9-0.5 c0.3-0.1,0.7-0.1,1-0.3c2-1.3,2.8-3.2,3.1-5.5c0.2,0,0.4,0,0.4,0.1c1.3,2.2,2.9,4.1,4.9,5.8c1.5,1.3,3,2.4,4.7,3.4 c1.4,0.8,1.4,0.8,2.6-0.3c0.4-0.4,0.7-0.5,1.2-0.2c1.9,1.1,3.8,2.2,5.7,3.4c0.4,0.2,0.8,0.3,1.2,0.3c0,0.6,0.5,0.9,0.8,1.1 c1.8,1.5,3.7,2.9,5.7,4.2c0.4,0.4,0.6,1,1.1,1.3c3.2,2.1,5.9,4.8,9.5,6.3c1.8,0.7,3.4,1.9,5.4,1.8c0.9,0.8,3,0.8,4.3,0 c1,0.1,2.1,0.3,2.8-0.2c1.6-1,3.4-1.6,4.9-2.8c2.2-1.9,3.9-4,4.1-7.1c0.1-1.1,0.5-2.1,1.4-2.9c2-1.9,3.8-4,5-6.6 c0.2-0.4,0.3-0.8,0.3-1.2c0.2,0,0.5-0.2,0.7,0.2c0.2,0.4,0.5,0.8,0.9,1c0.6,1,1.7,1.1,2.5,1.8c1.8,2.4,4.3,2.1,6.6,1.6 c1.5-0.3,2.8-1.4,4.1-2.2c0.8-0.5,1.5-1.1,1.8-1.9c0.4-0.9,0.9-1.8,1.3-2.7c0.5-1.2,1.4-1.9,2.5-2.4c1.2-0.5,2.4-0.7,3.5-1.4 c2.1-1.4,3.9-3.1,5.6-5c2.5-2.9,3.8-6.2,4.5-9.8c0,0,0.1,0,0.1-0.1c0-0.1,0-0.1-0.1-0.2c0-0.2,0.1-0.4,0.1-0.6 c0.3,0,0.7-0.2,0.7-0.5c0-1.1,0-2.1,0-3.2c0-0.4-0.3-0.5-0.7-0.5c-0.1-0.4-0.1-0.7-0.2-1.1c-0.3-1-0.7-2-1.8-2.5 c-0.8-1.2-2.2-1.3-3.4-1.9c0-0.2,0.1-0.5-0.2-0.5c-0.7,0-1-0.6-1.6-0.8c0.8-1.5,1.3-3.1,1.2-4.8C292,175.2,292,174.7,292,174.1z"></path> <path class="st1" d="M289.7,62.1c0.1,0.2,0.1,0.5,0.2,0.6c2,1.6,3.2,3.9,4.9,5.8c0.2,0.6,0.4,1.3,1.1,1.5c0,0,0,0.1,0,0.1 c0.4,1.1,1,2.1,1.9,2.8c0,0,0,0.1,0,0.1c-0.1,0.7,0.2,1,0.8,1.1c0,0.3,0,0.6,0.2,0.8c1.3,2.1,2.2,4.5,3.3,6.7 c1.3,2.7,2,5.6,2.9,8.3c0.2,0.4,0.1,0.9,0.2,1.4c0.1,0.7-0.5,1.6,0.6,2c0,0.4,0,0.8,0.1,1.2c-0.2,0.7,0,1.5,0,2.2 c0,0.5,0.3,0.7,0.8,0.8c0,0.8,0.1,1.7,0.1,2.5c-0.1,0.2-0.2,0.4-0.2,0.6c0,2.5,0,5,0,7.5c0,0.2,0.1,0.4,0.2,0.6 c0,0.8,0,1.7-0.1,2.5c-0.6-0.1-0.8,0.6-1.4,0.6c0-0.2-0.1-0.4-0.1-0.6c0.3-0.7,0-1-0.6-1.3c0-0.2,0-0.4-0.1-0.6 c0.3-0.7,0-1-0.6-1.3c-1.1-3-2.5-5.9-4.1-8.7c-0.3-0.6-0.8-1.1-1.1-1.7c-0.2-0.2-0.3-0.4-0.6-0.3c-0.3,0.1-0.3,0.4-0.3,0.6 c0.1,1.9,0.2,3.7,0.3,5.6c0.2,3.7,0.1,7.5-0.3,11.1c-0.3,3-0.9,6-1.9,9c-0.6,1.9-1.2,3.9-2.3,5.6c-0.3,0.5,0.1,1.4-0.9,1.5 c0-1.6,0-3.3,0.1-4.9c0.3-3,0.2-6-0.6-8.9c-0.7-2.7-2.1-4.9-4.2-6.6c-0.1-0.6,0.2-1,0.4-1.5c0.9-1.8,1.7-3.7,2.6-5.5 c0.6-1.2,0.7-2.6,1.5-3.8c0.7,0.7,0.9,1.6,1.3,2.7c0.4-1.1,0.5-1.9,0.2-2.5c-0.6-1.2-0.4-2.4-0.6-3.6c0.1-0.3,0.2-0.6,0.4-0.8 c0.7-1,1.5-2,1.8-3.2c0.1,0,0.3,0,0.4,0c0.8-0.1,0.5,1,1.3,1.2c-0.2-2-0.4-3.7-1-5.4c-0.5-1.5-1.2-2.8-2.1-4.2 c-1.7-2.7-4.1-4.1-7-5.1c-2.6-0.9-5.3-0.6-7.9-0.6c-1.7,0-3.2,0.6-4.8,1c-0.3,0.1-0.5,0.2-0.5,0.5c0,0.4,0.3,0.5,0.6,0.6 c0.7,0.1,1.5,0,2.2,0.1c3.7,0.7,7.3,1.6,10.6,3.2c2.2,1.1,4.3,2.4,5.9,4.3c0.4,0.4,0.7,0.8,0.8,1.4c-2.4-0.6-4.8-0.5-7.2-0.9 c-0.1-0.2-0.2-0.1-0.3,0c-0.2,0-0.4,0-0.6,0c-0.6-0.9-1.5-1.1-2.4-1.4c-3.6-1-7.2-0.9-10.8,0c-0.8,0.2-1.6,0.5-2.1,1.3 c1,0.4,2.2-0.1,2.6,1.2c-1,0.1-1.9,0.1-2.8,0.5c-1.5,0.7-3.2,0.7-4.9,1.1c-1.2,0.3-2.4,0.7-3.6,1c-1.2,0.3-2.3,0.8-3.5,1 c-1,0.2-2,0.5-2.8,0.9c-1.7,0.9-3.5,1.2-5.2,2c-1.8,0.8-3.8,1.3-5.5,2.5c-0.9,0.6-2.1,1-3.3,0.7c-1.2-0.3-2.4-0.5-3.5-0.8 c-2.6-0.9-5.2-1-7.8-0.9c-1.6,0.1-3.3,0.1-4.9,0.5c-0.5,0.1-1.1,0.1-1.6-0.1c-2.3-0.9-4.7-1.7-7.1-2.4c-2.6-0.7-5.1-1.7-7.7-2.2 c-1.6-0.3-3.1-1-4.8-0.8c-0.2,0-0.4,0-0.6-0.1c-1.9-0.9-4-0.8-6-1c-4.9-0.5-9.9-0.3-14.9-0.1c-0.3,0-0.7,0-0.9,0.1 c-1.6,0.8-3.4,0.5-5.1,1.1c-1.5,0.5-1.6,0.4-1.6,1.9c0,0.7,0.1,1.3,0.6,1.9c0.8,0.9,1.4,1.9,2.1,2.9c0,0.2-0.1,0.4-0.1,0.6 c-2,0.1-4,0.1-6,0.6c-1.7,0.4-3.3,1-4.8,1.7c-2.3,1.2-4.6,2.5-6.4,4.5c-1,1.1-2.2,2.1-3.1,3.4c-2.4,3.7-3,7.7-1.9,12 c0.6,2.2,1.3,4.4,1,6.7c-1-0.4-1.2-1.4-1.7-2.2c-1.1-1.8-2.1-3.6-2.8-5.5c-0.7-2-1.2-4-1.6-6.1c-0.3-1.5-0.6-3-0.6-4.5 c0-2,0.6-3.9,1.2-5.8c0.2-0.6,0.1-1.2,0.7-1.8c-1.3-0.1-1.9,0.5-2.5,1.1c-1.3,1.2-1.8,2.8-2.6,4.3c-1.3,2.5-1.5,5.3-2.1,7.9 c-0.3,1.4-0.2,2.9-0.3,4.3c0,0.3,0.1,0.7-0.4,0.8c-0.4,0.1-0.6-0.3-0.7-0.7c-0.6-2.1-1.5-4.2-1.8-6.3c-0.3-1.9-0.9-3.8-0.9-5.8 c-0.1-2.6-0.7-5.2-0.4-7.8c0.4-3.3,0.6-6.6,1.6-9.9c0.9-3.1,2.1-6,3.7-8.7c1.4-2.3,2.9-4.6,5-6.4c1.4-1.2,2.4-2.8,3.9-3.8 c0.3,0.1,0.6,0.1,0.9,0.2c2.3,1.1,4.5,1.1,6.5-0.7c1-0.2,1-0.2,0.9-1.6c0.8-1,1.4-2.2,2.3-3.2c2.4-2.5,5.5-4,8.3-6 c0.3-0.2,0.7-0.3,0.6-0.8c-0.1-0.6-0.6-0.6-1-0.5c-2,0.2-3.9-0.6-5.7-1.3c-3.4-1.2-6.5-3.1-9.3-5.3c-3.2-2.6-6.2-5.6-8.9-8.8 c-0.5-0.6-0.9-1.2-1.1-2c0.2-0.8,0.8-1.1,1.5-1.2c3.1-0.3,6.3-0.1,9.3,0.9c0.7,0.2,1.5,0.3,2.2,0.5c2.1,0.8,4.2,1.6,6.3,2.5 c1.6,0.7,3.1,1.4,4.4,2.6c0.5,0.4,0.5,0.8,0,1.2c-1,0.8-2.1,1.6-3.2,2.3c-1.4,0.9-3,1.6-4.6,2.2c0.6,0.8,1.3,1.1,2.1,1.1 c0.6,0,1.2,0,1.7,0.3c1.1,0.5,2.3,0.5,3.3,0.2c2.3-0.6,4.6-0.8,6.9-1.6c2.3-0.9,4.5-1.8,6.6-3c1-0.6,1.6-1.3,1.8-2.4 c2.1-1.5,4.4-2.4,6.8-3.4c2.5-1,4.9-2.2,7.5-2.9c3.1-0.9,6.3-1.6,9.4-2.4c1.9-0.5,4-0.3,5.8-1.2c0.1,0,0.2,0,0.3,0 c6.7-0.8,13.5-0.9,20.2-0.5c1.9,0.1,3.9,0.2,5.8,0.6c1.6,0.4,3.1,0.4,4.7,0.5c0.5,0.5,1,1.1,1.9,0.9c0.2,0,0.4,0,0.6,0.1 c1.9,0.7,4,1.1,6,1.6c2.4,0.6,4.6,1.6,6.9,2.5c2.1,0.8,4.2,1.6,6.2,2.7c0.2,0.1,0.4,0.1,0.6,0c1.8-1.1,3.6-2.1,4.8-4 c0.1-0.2,0.3-0.5,0.2-0.7c-0.2-0.4-0.5-0.2-0.8-0.2c-1.4,0.1-2.8,0.1-4.2,0.1c-0.4,0-1.1,0.3-1.2-0.3c-0.1-0.5,0.5-0.6,0.8-0.8 c1.1-0.7,2.2-1.5,3.4-2.1c2.1-1.2,4.2-2.5,6.5-3.5c2.3-1,4.7-2,7.2-2.5c1.2-0.3,2.6-0.6,3.8,0.4c-4,1.7-7.8,4.2-10.4,7.3 c-0.5,0.6-1.3,1-1.7,1.7c-1.4,2.1-3,4.1-4.1,6.4c-0.4,0.8-0.1,1,0.4,1.3c0.8,0.5,1.9,0.8,2.6,1.5c0.7,0.7,1.4,1.2,2.2,1.7 c2.2,1.4,4,3.3,5.9,5c0.9,0.8,1.4,2,2.6,2.4C287.5,59.9,288.6,61,289.7,62.1z M162.4,94.1c0.6-1.1,0.6-1.1,1.9-1.9 c0.3-0.2,0.7-0.4,0.9-0.6c1.1-1.2,2.5-1.7,3.9-2.2c3.5-1.4,7.2-2.1,11-2.3c0.7,0,1.3-0.2,1.9-0.3c0.6-0.1,1.3,0.2,1.8-0.4 c-0.1-0.2-0.2-0.3-0.3-0.4c-1.8-1.4-4-1.7-6.1-2c-1.7-0.3-3.5-0.1-5.3-0.1c-0.3,0-0.6,0-0.8,0.1c-1.9,0.7-3.8,1.1-5.4,2.4 c-2.1,1.7-3.9,3.5-4.8,6.2c-0.4,0-0.7,0.2-0.5,0.7c0,0.4-0.1,0.8-0.1,1.3c-0.2,0.1-0.5,0.1-0.5,0.3c0,1.2-0.5,2.3-0.7,3.5 c0,0,0.1,0.1,0.3,0.2c1-0.6,1.1-1.8,1.6-2.7c0-0.1,0-0.2,0-0.3c0.4-0.1,0.6-0.3,0.6-0.7c0.1-0.1,0.2-0.2,0.3-0.4 C162.3,94.4,162.4,94.3,162.4,94.1z M227.3,81.3c0.2-1.9,1-3.7,0.8-5.6c0-0.1,0-0.1,0-0.2c0.7-1.2,0.5-2.6,0.5-3.9 c0-2.3-0.1-4.7,0-7c0.1-2-0.7-3.8-0.9-5.8c-0.1-1.1-0.1-2.4-0.6-3.4c-0.4-0.9-0.1-2.1-0.7-2.5c-0.8-0.7-0.6-1.6-1-2.4 c-0.5-0.9-0.5-2.1-1.4-3c-0.5,1.2-1,2.4-0.9,3.7c0,0.5,0,1.1-0.3,1.6c-0.3,0.6-0.4,1.2-0.4,1.9c0,1,0,2,0,3 c-0.1,1.1,0.2,2.3-0.5,3.4c-0.2,0.3-0.2,1.1,0,1.4c0.7,0.9,0.4,1.8,0.5,2.8c0.1,1.2-0.2,2.4,0.3,3.5c0.3,0.8,0.4,1.5,0.4,2.3 c0,1.6,0.6,3.1,1,4.6c0.4,1.8,1.1,3.6,1.7,5.4c-0.2,1.1,0.8,1,1.3,1.5C227.5,82,227.4,81.6,227.3,81.3z M237.4,66.8 c0.4-2-1-4.7-0.7-7.5c0-0.2-0.1-0.5-0.2-0.6c-0.5-0.5-0.3-1.1-0.4-1.7c0-0.5,0.1-1.1-0.1-1.4c-0.8-1.1-0.4-2.5-1-3.8 c-0.6-1.3-1.1-2.7-1.6-4c-0.1-0.3-0.1-0.7-0.5-0.7c-0.4,0.1-0.8,0.3-0.8,0.9c-0.1,1.1-0.3,2.2-0.5,3.2c-0.4,2.2-0.4,4.4-0.6,6.6 c-0.3,2.6-0.4,5.3,0.4,8c0.5,1.6,0.4,3.4,0.7,5.1c0.2,1.4,0.6,2.9,0.9,4.3c0.4,1.9,1.1,3.8,2.1,5.5c0.2,0.4,0.4,0.4,0.7,0.1 c0.4-0.3,0.5-0.7,0.5-1.1c0-0.5-0.1-1.2,0.1-1.6c0.7-1.1,0.5-2.4,0.5-3.6c0-0.7-0.1-1.5,0.1-2.1C237.5,71,237.2,69.3,237.4,66.8z M157.5,89.9c0.4-2.1,1.8-3.2,2.6-4.7c0.4-0.8,1.2-1.5,1.9-1.9c2.1-1.1,4-2.5,6.3-3.2c1.9-0.5,3.9-1.1,5.8-1.4 c1.8-0.3,3.6-0.5,5.4-0.4c0.5,0,1,0,1.4-0.3c0.4-0.3,0.5-0.7,0-0.9c-1.4-0.6-2.7-1.6-4.4-1.4c-0.4,0-0.8,0-1.1-0.2 c-0.6-0.5-1.3-0.4-2-0.4c-2.6-0.1-5.1,0.2-7.5,1.2c-2.1,0.9-3.9,2.2-5.4,4c-1.2,1.5-2,3.3-2.6,5.1 C157.6,86.8,156.8,88.1,157.5,89.9z M259.4,74.7c0-0.4,0-0.8,0-1.1c-0.2-1.3-0.8-1.6-2.1-1.1c-3,1.2-4.3,3.5-4.3,6.6 c0,1.9,0.2,2.9,2.4,1.6C257.8,79.3,259.3,77.5,259.4,74.7z M251.3,72c0.4-1-0.3-1.8-0.6-2.8c-0.2-0.8-0.8-1-1.5-0.5 c-1,0.8-1.9,1.6-2.6,2.7c-0.8,1.1-1,2.3-0.9,3.6c0.1,0.8,0.3,1.6,0.3,2.4c0,0.7,0.7,1.1,1.2,0.8c1.4-0.6,2.5-1.8,3.4-3 C251.3,74.5,251.7,73.3,251.3,72z M215.6,78c0-3.5-1.9-5.2-4.9-6.5c-0.3-0.1-0.6-0.1-0.7,0.1c-0.2,1-1,1.8-0.7,2.9 c0.5,2.1,1.3,4,3.3,5.2c0.7,0.4,1.6,1.3,2.4,0.8C215.6,80,215.6,78.9,215.6,78z M208.8,83.1c-0.2-2.2-0.7-4.2-2.8-5.5 c-1-0.6-1.9-1-3-1.2c-1-0.1-1.1-0.2-1.2,0.8c-0.3,2.2,0.9,3.8,2,5.5c0.1,0.2,0.3,0.3,0.5,0.4c0.9,0.5,1.7,0.9,2.7,1.3 C208.1,84.9,208.8,84.4,208.8,83.1z M215.3,88.3c0.1,0.8,0,1.6,0.4,2.4c0.6,1.3,1.6,2,2.5,3.1c0.3,0.4,0.9,0.7,1.4,0.6 c0.7-0.1,0.4-0.8,0.6-1.1c0-0.1,0.1-0.2,0.1-0.3c1.2-3.1-0.4-6.9-3.3-8.3c-0.5-0.2-0.9-0.2-1.1,0.4C215.5,86.1,215,87.1,215.3,88.3 z M217.1,62.7c0.2-1.3,0-2.4-0.8-3.4c-0.5-0.6-1-1.2-1.5-1.8c-0.5-0.7-1.1-0.7-1.6,0.1c-2,3.2-1.7,6.1,1.1,9c0.9,0.9,1.7,0.8,2-0.3 C216.7,65,217.5,63.9,217.1,62.7z M246.9,60.2c0-0.8-0.6-2.5-0.8-3.1c-0.4-0.9-0.9-2.2-1.9-2.1c-0.9,0-1.3,1.2-1.7,2.1 c-1.4,2.7-0.8,5.9,1.4,7.7c0.3,0.3,0.6,0.4,0.9,0C246,63.4,246.9,61.9,246.9,60.2z M246.6,86.8c0.3-1.1-0.2-2.2-0.7-3.3 c-0.6-1.1-1.4-1.3-2.1-0.3c-0.8,1.2-2,2.1-2.2,3.8c-0.1,1,0.2,2,0.1,3c-0.1,1,0.7,1.5,1.1,2.2c0.2,0.4,0.7,0.3,1.1,0 C245.5,90.8,247,89.3,246.6,86.8z"></path> <path class="st2" d="M50.6,325.3c0.2-0.3,0.5-0.7,0.7-1c-0.2-0.4-0.5-0.4-0.8-0.3c-1.8,0.1-3.6-0.2-5.3,0.6 c-0.2,0.1-0.5,0.1-0.8,0.1c-2.6-0.1-4.9,1-7.1,2.2c0,0-0.1,0.1-0.1,0.1c-0.2,0.3-0.6,0.3-0.9,0.2c-0.3-0.2-0.1-0.5,0-0.8 c0.5-2.4,2-4.3,3.5-6.1c1.8-2.1,3.9-3.8,6.2-5.2c3.4-2,7.1-3.1,11-3.6c2-0.3,4.1-0.6,6-1.4c2.8-1.1,5.5-2.5,7.1-5.3 c0.1-0.1,0.2-0.2,0.4-0.3c-0.3-0.4-0.7-0.3-1-0.2c-1.8,0.7-3.6,1.1-5.6,1.2c-0.8,0-1.5,0.6-2.4,0.6c-2.2,0-4.4-0.7-6.6-1 c-1.3-0.1-2.5-0.7-3.8-1c-0.6-0.2-1.2-0.5-1.5-1c3.4,0.2,5.6-1.7,7.5-4.2c2.1-2.7,3.6-5.7,5.9-8.2c0.8-0.9,1.3-2.1,2.2-2.9 c1.9-1.7,3.4-4,5.8-5.1c2.1-2.4,5.2-3.5,7.9-5.1c1.2-0.7,2.6-1.2,4-1.6c1.1-0.3,2.3-0.4,3.3-1c0.2-0.1,0.4-0.1,0.6-0.2 c2.8-0.2,5.5-1,8.4-0.7c0.2,0,0.4,0,0.6,0c3.5,0.1,6.8-0.5,10.2-1.4c0.2-0.1,0.5,0,0.8,0c-0.3,0.6-0.9,1-1.5,1.3 c-1.1,0.7-2.2,1.2-3.1,2.1c-1,0.9-2.2,1.5-3,2.6c-0.2,0.3-0.6,0.5-0.9,0.7c-0.8,0.4-1.4,1-1.9,1.6c-2.1,2.4-4.4,4.7-6.1,7.5 c-0.9,1.5-1.9,3-2.8,4.6c-1.3,2.3-2.7,4.7-4.6,6.6c-1,1-1.7,2.1-2.8,3.1c-0.2,0.2-0.5,0.5-0.3,0.8c0.2,0.4,0.7,0.3,1,0.2 c0.5-0.1,1.1-0.2,1.5-0.3c2.3-0.8,4.8-0.6,6.9-2.1c0.1-0.1,0.3-0.1,0.5-0.1c1,0,2-0.5,2.8-0.9c2.9-1.4,6-2.7,8.3-5 c0.4-0.4,0.8-0.8,1.1-1.3c0.9-1.5,2.2-2.7,3.6-3.7c0.2-0.2,0.4-0.3,0.7-0.3c1.5,0,3.1-0.3,4.5,0.6c1.1,0.8,2.2,1.4,2.6,2.8 c0,0.3-0.2,0.4-0.4,0.6c-1.4,0.9-2.9,1.6-4.3,2.5c-0.7,0.5-1.4,1.1-2.2,1.5c-1.8,1-3.5,2.3-5.2,3.5c-0.9,0.6-1.7,1.2-2.6,1.8 c-2.1,1.3-4,3-5.9,4.4c-1,0-1.5,0.8-2.2,1.3c-1.1,0.8-2.3,1.7-3.2,2.9l0,0c-0.5-0.1-0.7,0.4-1.2,0.4c-0.4,0-0.8-0.1-1.1,0 c-1.3,0.8-2.8,0.7-4.2,1.3c-1.7,0.8-3.6,1.3-5.3,2.1c-2.3,1-4.2,2.4-6.2,3.9c-1.5,1.1-2.5,2.5-3.8,3.7c-1.7,1.5-3.1,3.3-4.7,5 c-0.6,0.7-0.9,1.7-1.6,2.1c-1.6,1.1-2.5,2.8-3.6,4.3c-0.2,0.2-0.5,0.5-0.1,0.9c1.2-0.4,2.5-0.5,3.7-0.8c1-0.3,2-0.7,3.1-0.7 c2-0.2,3.9-1.4,6-1c0.1,0,0.3-0.1,0.4-0.2c0.5-0.6,1.2-0.4,1.8-0.4c1.2,0,2.5,0,3.7,0c0.4,0,0.9,0.1,1.1-0.1 c0.7-0.6,1.6-0.5,2.4-0.5c1.2,0,2.4-0.1,3.5,0c2.1,0.1,4.2-0.5,6.2,0.6c0.2,0.1,0.4,0,0.6,0c2.5-0.1,4.8,0.4,7.2,1.2 c2.5,0.9,5.2,1.4,7.8,1.9c2.5,0.5,5.1,0.9,7.7,1c4.4,0.2,8.8,0.2,13.2-0.6c3-0.5,6-1,8.8-2c1.6-0.5,3-1.4,4.6-1.9 c0.9-0.3,1.7-1,2.8-1c-0.7,1.4-2.1,2.3-3.1,3.4c-2.2,2.4-4.7,4.5-7.3,6.5c-3.3,2.6-6.8,4.8-10.6,6.5c-1.4,0.7-2.9,1.5-4.5,1.6 c-0.7,0-1,0.6-1.7,0.8c-6.8,1.7-13.6,1.6-20.5,0.8c-2.9-0.3-5.7-0.6-8.6-0.4c-1.4,0.1-2.7,0.2-4.1,0.8c-0.9,0.4-1.1,0.2-1.1-0.7 c0-1.1-0.3-2.3,0.5-3.4c0.3-0.4,0.3-0.9,0.1-1.4c-1.9,0.3-3.6,1.3-5.5,1.7c-1.7,0.4-3.4,0.9-5.1,1.3c-1.3,0.3-2.7,0.2-4,0.6 c-2.7,0.8-5.4,0.6-8,0.4c-1.9-0.1-3.9-0.6-5.8-0.3c-2.9,0.5-5.7,0.4-8.6,0.5c-2.8,0.1-5.5,0.5-8.2,0.9c-3.1,0.5-6.2,1-9,2.4 c-2.3,1.1-4.5,2.2-6.4,4c-0.4,0.3-0.5,0.9-1.1,1.1c-0.3-0.6-0.3-1.3-0.1-1.9c0.3-1,0.3-2.2,0.7-3.1c1-2,1.7-4.2,3-6.1 c1.4-2.1,3.1-4,4.9-5.7c1.4-1.3,3-2.6,4.8-3.6c0.6-0.3,1.1-0.9,1.7-1.3c1.6-1.1,3.3-1.8,5-2.8c2.4-1.3,4.8-2.6,7.2-4 c0.8-0.5,1.7-0.9,2.5-1.5c0.3-0.2,0.8-0.4,0.8-0.9c0.2-0.1,0.4-0.3,0.6-0.4C49.4,326.8,50.4,326.5,50.6,325.3z"></path> <path class="st3" d="M144.5,322.1c0.9,0,1.8,0,2.7,0c0.5,0,1,0,1.5,0.4c0.4,0.4,0.9,0.2,1.4,0.2c1.8,0,3.5,0,5.3,0 c1,0,2-0.2,2.9,0.5c0.1,0.1,0.4,0.1,0.6,0.1c1.4-0.6,2.7,0.2,4.1,0.1c1.4-0.1,2.9,0,4.3,0c1.4,0,2.9,0,4.3,0c1.4,0,2.9,0,4.3,0 c1.4,0,2.9,0,4.3,0c0.7,0,1.5,0.3,2.2-0.2c0.6-0.5,1.3,0.4,1.9-0.3c0.2-0.2,0.8-0.1,1.2-0.1c2.3,0,4.7,0,7,0c0.9,0,1.9,0.3,2.7-0.5 c0.2-0.2,0.4-0.1,0.6,0.1c0.2,0.1,0.3,0.4,0.5,0.3c1.5-0.9,3.2-0.4,4.8-0.4c1.2,0,2.2-0.7,3.4-0.8c1.6-0.2,3.3-0.2,4.9-0.4 c1.9-0.3,3.9-0.5,5.8-0.8c2-0.3,4.1-0.6,6.1-0.9c2.1-0.3,4.3-0.5,6.2-1.2c1.3-0.5,2.7-0.4,4-0.8c2.2-0.7,4.6-0.4,6.6-1.7 c0.2-0.1,0.5-0.1,0.8-0.1c0.6,0,1.3,0.1,1.8-0.5c0.2-0.2,0.5-0.2,0.8-0.2c1.5,0.1,2.7-0.6,4-1.1c0.7-0.3,1.6-0.4,2.3-0.5 c1.9-0.3,3.5-1.2,5.2-1.7c1.9-0.6,4-0.8,5.8-2c1.2-0.8,2.9-1,4.4-1.5c1.7-0.6,3.4-1.3,4.9-2.2c0.4-0.3,0.8-0.5,1.3-0.6 c1.9-0.4,3.5-1.4,5.3-2.2c1.2-0.6,2.1-1.5,3.5-1.7c0.8-0.1,1.4-1,2.2-1.4c1.5-0.6,2.8-1.6,4.2-2.4c0.9-0.5,1.9-0.8,2.8-1.4 c1.2-0.8,2.4-1.5,3.6-2.4c0.9-0.7,1.8-1.4,2.9-1.9c1.9-0.8,3.5-2.3,5.2-3.4c0.9-0.6,1.7-1.3,2.6-1.8c0.8-0.4,1-1.4,2-1.4 c1.2-1.6,3.1-2.1,4.5-3.4c1.4-1.2,2.8-2.4,4.4-3.4c0.9-0.6,1.4-1.5,2.3-2.1c2.5-1.7,4.7-3.9,6.9-6c1.2-1.1,2.6-2,3.7-3.3 c1.1-1.3,2.4-2.4,3.6-3.6c1.4-1.4,2.8-2.8,4.2-4.2c0.2-0.2,0.4-0.4,0.7-0.4c0.2,1.5,1.2,2.7,1.7,4.1c0.4,1.3,1.2,2.5,1.5,3.8 c0.3,1.1,0.9,2.1,1.4,3.1c0.4,0.8,0.9,0.7,1.5,0.5c0,0.2,0,0.4-0.2,0.6c-2.9,2.3-5.1,5.3-7.6,8c-2.1,2.1-4.1,4.4-6.4,6.3 c-1.3,1.1-2.5,2.2-3.7,3.4c-2,2-4.3,3.5-6.2,5.5c-0.9,1-2.2,1.7-3.2,2.5c-2.2,1.7-4.5,3.3-6.8,5.1c-2.1,1.7-4.5,3-6.7,4.6 c-1.3,1-2.7,1.7-4.1,2.5c-2,1.1-3.9,2.5-6.1,3.6c-2.5,1.3-5,2.7-7.6,3.9c-2.2,0.9-4.2,2.3-6.4,3.1c-1.8,0.7-3.6,1.5-5.4,2.2 c-2,0.8-4,1.7-6,2.5c-1.2,0.5-2.5,0.9-3.7,1.4c-1.6,0.6-3.1,1.4-4.8,1.8c-1.8,0.5-3.5,1.3-5.4,1.8c-0.9,0.3-1.9,0.5-2.7,1.1 c-0.7,0.5-1.6,0.5-2.4,0.7c-2.1,0.7-4.2,1.3-6.3,1.9c-1.2,0.3-2.3,0.9-3.7,0.9c-0.7,0-1.2,0.7-2,0.8c-2.2,0.4-4.3,1.1-6.4,1.6 c-1.5,0.3-3,0.8-4.5,1c-1.2,0.1-2.3,0.7-3.6,0.7c-0.3,0-0.3,0.4-0.4,0.6c-1.2,0-2.5-0.2-3.5,0.2c-1,0.4-1.9,0.4-2.9,0.5 c-0.4,0-0.8-0.1-1.1,0.1c-1.1,0.7-2.3,0.3-3.3,0.6c-1.7,0.6-3.4,0.5-5.1,0.6c-0.2,0-0.5,0.1-0.6,0.2c-0.5,0.5-1.1,0.4-1.6,0.4 c-1,0-1.9,0-2.9,0c-0.6,0-1.3-0.1-1.7,0.1c-0.8,0.6-1.7,0.5-2.6,0.5c-1.6,0-3.2,0-4.8,0c-4.8,0-9.6,0-14.4,0c-1.3,0-2.7,0-4,0 c-0.4,0-0.9,0.1-1.2-0.2c-0.6-0.6-1.3-0.5-1.9-0.4c-2.2,0.3-4.2-0.9-6.4-0.7c-0.4,0-0.6-0.4-0.9-0.6c-0.3,0-0.6,0-0.9,0 c-1.4-1.4-2.6-3-4.1-4.3c-1.1-1-1.7-2.4-2.7-3.5c-1.8-2-3.2-4.1-4.5-6.4c-0.2-0.4-0.6-0.4-0.9-0.6 C145.8,323.5,144.7,323,144.5,322.1z"></path> <path class="st4" d="M303.4,183.4c-1.1-2.6-2.2-5.1-3.2-7.7c-0.1-0.3-0.1-0.6-0.1-0.9c2-0.1,3.9-0.3,5.8,0.4 c0.5,0.2,1.1,0.1,1.6,0.1c1.4,0.1,2.8-0.1,4.1,0.5c0.4,0.2,0.8,0.1,1.3,0.1c1.1,0,2.2-0.1,3.3,0.5c0.1,0.1,0.3,0.1,0.5,0.1 c1.9-0.2,3.8,0.5,5.6,0.8c1.5,0.3,3,0.3,4.4,1c0.2,0.1,0.4,0.2,0.6,0.2c1.9,0.1,3.7,0.8,5.5,1.2c1.2,0.2,2.5,0.4,3.6,0.8 c1.3,0.5,2.8,0.3,4,1.3c0.6,0.5,1.6,0.5,2.4,0.7c1.7,0.4,3.4,1,5.1,1.5c2,0.6,4,1.4,6,2.2c1.4,0.5,2.8,1.1,4.2,1.6 c1.5,0.5,2.8,1.1,4.2,1.9c0.9,0.6,2,1,3.1,1.5c3.4,1.5,6.4,3.5,9.3,5.8c1,0.8,2,1.9,2,3.4c-0.5,0.1-1,0.2-1.2,0.7 c-1,2.5-2.5,4.8-3.8,7.2c-0.6,1-0.8,2.3-1.9,2.9c-0.2,0.1-0.3,0.3-0.4,0.5c-0.4,1.3-1.2,2.5-2,3.7c-1.6,2.2-2.7,4.8-4.4,7 c-0.2,0.2-0.1,0.5-0.4,0.7c-1.5,1-2.2,2.6-3,3.9c-1.2,1.9-2.4,3.7-3.8,5.4c-1.7,2.1-3.3,4.3-4.9,6.4c-0.6,0.8-1.3,1.5-1.8,2.3 c-0.9,1.5-2.1,2.7-3.2,4c-0.7,0.8-1.5,1.4-2.1,2.3c-1,1.4-2.1,2.8-3.3,4c-1.2,1.2-2.6,2.3-3.5,3.8c-0.7,1.1-1.9,1.9-2.8,2.9 c0,0,0,0,0,0c0-0.4-0.2-0.6-0.6-0.7c-0.3-1.5-0.9-2.8-1.6-4.1c-0.4-0.7-0.2-1.5-0.8-2.2c-1.2-1.4-1.6-3.3-2.3-5 c-0.7-1.9-1.4-3.8-2.1-5.7c-0.7-1.8-1.4-3.6-2.2-5.3c-0.6-1.3-1.2-2.7-1.5-4.1c-0.2-0.8-0.8-1.1-1-1.7c-1-2.6-1.9-5.3-3.1-8 c-0.9-2.1-1.7-4.2-2.6-6.3c-0.5-1.2-0.6-2.7-1.4-3.8c-1.2-1.8-1.4-4-2.7-5.7c-0.1-1.6-1.1-2.9-1.6-4.4c-0.6-1.8-1.4-3.6-2.1-5.4 c-0.5-1.3-1-2.7-1.6-4c-0.3-0.6-1.1-1-1-1.8c0.5,0,1-0.3,1.5-0.2c2,0.3,4,0.5,6,0.8c3.2,0.4,6.3,1.1,9.4,1.5 c2.9,0.4,5.7,1.5,8.6,1.8c0.2,0,0.4,0,0.4,0.1c0.5,0.5,1.1,0.5,1.8,0.5c0.3,0,0.5,0,0.8,0.1c1.3,0.6,2.6,1.2,4.2,1.1 c0.2,0,0.5,0,0.6,0.1c0.8,0.8,1.7,0.5,2.6,0.5c1-0.1,1.6-0.7,2.1-1.5c0.4-0.7,0.1-2.3-0.6-2.6c-0.7-0.3-1.3-0.8-2.1-1 c-1.1-0.2-2.1-0.5-3.2-0.8c-0.8-0.2-1.8-0.1-2.4-0.8c-0.8-0.9-2-1-3-1.2c-1.5-0.3-3-1.1-4.6-0.8c-0.2,0-0.4-0.1-0.6-0.2 c-0.4-0.5-1-0.4-1.5-0.4c-0.3,0-0.7,0-0.9-0.1c-1.2-0.8-2.8-0.3-4-1.1c-1.8,0.1-3.5-0.7-5.2-1c-1.7-0.3-3.5-0.2-5.1-0.9 c-0.2-0.1-0.4,0-0.6,0c-1.2,0-2.3,0-3.5-0.3C305.5,183.4,304.4,183.4,303.4,183.4z"></path> <path class="st4" d="M151.8,348.7c1.4-0.8,3-1.3,4.2-2.3c0.1,0.3,0,0.7,0.4,0.9c1.9,0.9,3.7,1.8,5.6,2.6c2.5,1.1,5.1,2.1,7.7,2.9 c0.8,0.3,1.5,0.9,2.3,1.1c1.2,0.3,2.3,1.1,3.6,0.8c0.3-0.1,0.5,0,0.7,0.2c0.9,0.7,2.1,0.7,3.1,0.9c1.5,0.3,3.1,1.1,4.8,0.8 c0.2,0,0.5,0,0.6,0.1c0.7,0.7,1.5,0.5,2.3,0.5c1.2,0,2.5,0,3.7,0c2.6,0,5.2,0.1,7.8,0c2.6-0.1,5.1,0.3,7.7-0.6 c1.1-0.4,2.3-0.3,3.5-0.6c1.9-0.4,3.5-1.6,5.5-1.5c0.4,0,0.5-0.4,0.8-0.5c0.3-0.2,0.5-0.7,1-0.7c0.2,1.5-0.5,2.9-0.8,4.4 c-0.3,1.6-0.9,3.2-1.5,4.8c-0.9,2-1.8,4-2.9,5.9c-1.2,2.2-2.9,4.1-4.7,5.8c-2.1,2.1-4.5,3.8-7.2,5.1c-1.8,0.8-3.7,1.4-5.5,2.1 c-2.1,0.8-4.2,1.1-6.4,1.5c-5.2,1-10.3,0.6-15.5,0.3c-3-0.2-6.1-0.2-9.1-0.5c-2.7-0.3-5.5-0.1-8.1-0.7c-2.7-0.6-5.5-0.3-8.2-1.2 c0,0-0.1,0-0.2,0c-2.5,0.2-4.8-0.6-7.3-0.8c-2.1-0.2-4.2-0.3-6.2-1c-0.2-0.1-0.5-0.1-0.8-0.1c-1.8,0.1-3.6-0.4-5.3-0.8 c-2.7-0.7-5.4-1.1-8-1.7c-2.4-0.5-4.9-1-7.3-1.6c-1.3-0.3-2.8-0.3-4-1.2c-0.8-0.5-1.9-0.3-2.9-0.7c-0.8-0.3-1.8-0.6-2.7-0.7 c-0.8-0.1-1.3-0.3-1.4-1.2c-0.1-1,0.2-1.7,1.1-2.1c1-0.4,1.9-0.9,2.9-1.2c1.7-0.6,3.3-1.3,4.9-2.1c1.6-0.8,3.4-1.4,5.1-2 c1.9-0.6,3.6-1.5,5.5-2.2c2.6-1,5.2-2,7.8-3.1c1.4-0.6,2.8-1.3,4.3-1.8c1.5-0.5,2.9-1.4,4.5-1.7c0.9,0,1.7-0.2,2.4-0.7 c1.8-1.2,3.9-1.6,5.9-2.5C147.6,350.7,149.8,350,151.8,348.7z"></path> <path class="st4" d="M120.5,250.1c-0.7,0-1.1-0.6-1.8-0.8c-2.5-0.9-4.8-0.5-7.2,0.6c-1.8,0.8-3.7,1.5-5.5,2.2 c-1.5,0.6-3.1,1-4.6,1.9c-1,0.6-2.2,1-3.3,1.4c-2.5,0.8-4.9,1.9-7.4,2.9c-1.9,0.7-3.7,1.7-5.7,2.3c-2,0.7-3.9,1.8-5.9,2.5 c-2,0.7-3.9,1.5-5.8,2.3c-2,0.8-4,1.8-6,2.5c-1.3,0.5-2.5,1-3.8,1.4c-0.3,0.1-0.7,0.2-1,0.5c-0.7,0.6-2.1,0.6-2.5,0.1 c-0.8-1-1-1.3-0.3-2.6c1.8-3.4,3.8-6.6,5.9-9.8c1.5-2.3,2.9-4.7,4.6-7c1.2-1.6,2.4-3.4,3.5-5.2c0.6-0.9,1.4-1.8,2.1-2.7 c0.8-1.3,1.7-2.5,2.7-3.7c0.8-1,1.5-2.1,2.3-3.1c1.3-1.5,2.5-3.1,3.6-4.7c1.4-2,3.2-3.6,4.4-5.7c0.5-0.8,1.3-1.2,1.8-1.9 c1.4-1.7,2.9-3.3,4.3-5c2-2.4,4.2-4.6,6.2-7c2.1-2.4,4.3-4.7,6.6-6.9c2.5-2.3,5.1-4.5,8-6.3c2-1.3,4.1-2.5,6.3-3.2 c2.1-0.7,4.2-1.6,6.5-1.8c1.6-0.1,3.3-0.5,4.9-0.4c1.9,0,3.9,0.3,5.7,0.7c2.3,0.6,4.6,1.4,6.8,2.3c3.3,1.4,6.1,3.5,9.2,5.2 c0.1,0,0.1,0.2,0.1,0.3c-1.2-0.2-2.2,0-3.3,0.6c-2.7,1.4-5.7,2.6-8.1,4.6c-0.8,0.6-1.7,1-2.5,1.7c-1.3,1.2-3.1,1.8-4,3.6 c-0.1,0.1-0.3,0.2-0.4,0.2c-0.8,0.1-1.2,0.8-1.7,1.4c-0.8,0.9-1.6,1.8-2.5,2.5c-1.1,0.9-1.8,2.4-3.1,3.1c-0.4,1.5-1.8,2.3-2.6,3.5 c-1.2,1.7-2.7,3.3-3.7,5.1c-0.9,1.7-2,3.3-2.9,5c-1,1.9-2,3.9-2.9,5.9c-0.6,1.4-1,2.8-1.7,4.2c-0.3,0.7-0.5,1.5-0.9,2.1 c-0.5,1-0.1,2.3-1.2,3c-0.4,0.2-0.2,0.7,0.3,0.8c0.7,0.1,1.5,0.1,2.2,0c1.2-0.1,2.3,0.2,3.4,0.7 C120.4,249.3,120.5,249.6,120.5,250.1z"></path> <path class="st5" d="M268.8,134.5c-0.6,0.7-1.3,1.4-2.3,1.5c-0.5,0.1-0.8,0.5-1.2,0.7c-2,1.1-4.2,1.8-6.1,3 c-0.4,0.3-0.9,0.2-1.4,0.2c-0.4,0.1-0.8-0.1-1.2,0.2c-1,0.6-2,0.9-3.2,1.2c-0.9,0.2-2.1,0.4-2.7,1.3c-0.3,0-0.6,0-0.9,0 c-0.7-0.2-1.3-0.3-1.6,0.5c-0.3,0-0.6,0.1-0.9,0.1c-0.6-0.2-1.1,0-1.4,0.6c-0.4,0-0.8,0-1.1,0.1c-0.8-0.3-1.5-0.2-2,0.6 c-0.5,0-1,0.1-1.5,0.1c-0.3-0.2-0.7-0.3-0.9-0.1c-1.2,0.6-2.5,0.6-3.7,0.7c-1.5,0.1-2.7,1-4.3,0.8c-1.8-0.2-3.6,0-5.4,0 c-0.5,0-1-0.1-1.2,0.6c-3.2-0.2-6.4,0.3-9.7-0.5c-2-0.5-4.1-0.2-6.2-0.7c-3.4-0.8-6.9-1.2-10.3-2.2c-0.7-0.2-1.5-0.6-2.3-0.4 c-1.4-1.4-2.8-2.7-4.1-4.1c-2.2-2.4-4.4-4.8-6.2-7.5c-1.2-1.9-2.4-3.7-2.7-5.9c-0.3-2.6,0.4-4.8,2.1-6.7c0.6-0.7,1.1-1.4,1.7-2.2 c0.7-0.1,1.1,0.4,1.5,0.8c1.7,2,4.1,3.2,6.3,4.5c2.4,1.4,5.3,2,8,2.6c1.8,0.4,3.8,0.4,5.7,0.3c1.9,0,3.8-0.1,5.7-0.3 c1.7,0.1,3.2,0.9,4.9,0.8c0.1,0,0.1,0,0.2,0c1,0.8,2.2,0.6,3.3,0.7c0.6,1.2,1.3,2.3,2.8,2.4c1.7,0.1,2.9,0.8,3.6,2.4 c0.1,0.4,0.5,0.5,0.7,0.8c1.3,1.8,3.9,2.2,5.7,0.9c0.5-0.3,0.7-0.8,0.9-1.3c0.8-1.6,1.9-2.8,3.9-3c1.7-0.2,2.6-1.4,2.7-3.2 c0-0.2,0-0.3,0-0.5c0.3,0,0.7,0,0.9-0.1c1.4-0.7,3-0.7,4.5-1.2c0.2,0,0.3,0,0.5,0.1c1.6,0.9,3,1.9,4.9,1.9c0.3,0,0.5,0,0.7,0.2 c0.4,0.5,0.9,0.5,1.5,0.5c2.3,0.1,4.7,0.2,7-0.1c0.5,0,1,0,1.3-0.4c0.3-0.3,0.7-0.3,1-0.3c1.5,0.1,2.7-0.8,4.1-0.9 c0.2,0,0.4-0.3,0.7-0.4c0.1,2.1-0.1,4.1-0.8,6.1C269.7,131.5,268.9,132.9,268.8,134.5z"></path> <path class="st6" d="M144.5,322.1c0.2,1,1.3,1.4,1.2,2.5c-0.6,0.1-0.9,0.7-1.2,1.1c-0.5,1-1.1,1.8-1.8,2.5c-0.9,0.9-1.4,2-2.3,2.9 c-0.2,0.2-0.3,0.2-0.5,0.3c-1,0-1.8,0.6-2.8,1c-1.6,0.5-3,1.3-4.6,1.9c-2.9,1-5.8,1.5-8.8,2c-4.4,0.8-8.8,0.8-13.2,0.6 c-2.6-0.1-5.2-0.5-7.7-1c-2.6-0.5-5.3-1.1-7.8-1.9c-2.4-0.8-4.7-1.3-7.2-1.2c-0.2,0-0.5,0.1-0.6,0c-2-1.1-4.2-0.4-6.2-0.6 c-1.2-0.1-2.3,0-3.5,0c-0.8,0-1.7-0.2-2.4,0.5c-0.2,0.2-0.7,0.1-1.1,0.1c-1.2,0-2.5,0-3.7,0c-0.6,0-1.3-0.1-1.8,0.4 c-0.1,0.1-0.3,0.2-0.4,0.2c-2.1-0.4-4,0.9-6,1c-1.1,0.1-2.1,0.5-3.1,0.7c-1.2,0.3-2.5,0.5-3.7,0.8c-0.3-0.4,0-0.6,0.1-0.9 c1.1-1.5,2-3.2,3.6-4.3c0.7-0.5,1-1.5,1.6-2.1c1.5-1.7,2.9-3.5,4.7-5c1.4-1.2,2.4-2.7,3.8-3.7c2-1.4,3.9-2.9,6.2-3.9 c1.8-0.7,3.6-1.3,5.3-2.1c1.4-0.6,2.9-0.6,4.2-1.3c0.3-0.2,0.7,0,1.1,0c-0.1,0.6-1,0.7-0.8,1.4c-2.2,1.8-4.3,3.6-6,5.8 c-0.9,1.1-0.6,1.9,0.8,2.2c0.3,0.1,0.5,0,0.8,0c1.9,0,3.8-0.1,5.8,0c2.2,0.1,4.4-0.7,6.6-0.7c2.8-0.1,5.5-0.5,8.2-0.9 c3.4-0.5,6.8-1,10.2-1.5c2.9-0.4,5.6-1.3,8.5-1.8c1-0.2,2.1-0.2,3.1-0.6c1.2-0.6,2.5-0.7,3.8-1c1.3-0.3,2.7-0.6,4-0.9 c2.2-0.6,4.5-1.4,6.7-2.1c0.7-0.2,1.2-0.1,1.7,0.3c0.9,2.4,2.2,4.6,3.6,6.7C143.5,320.4,143.7,321.4,144.5,322.1z"></path> <path class="st1" d="M265.2,151.4c1.3,1.7,2.7,3.4,4,5.1c1.3,1.5,2.8,2.8,4.4,4c0.6,0.4,1.2,0.7,1.9,0.6c0.5,0,1-0.2,1.5,0.3 c-0.3,0-0.6,0-0.9,0c-1.2,0-1.2,0.1-1.2,1.2c0,2.3,0,4.5-0.8,6.8c-0.9,2.4-2,4.6-3.4,6.7c-0.5-0.1-1-0.1-1.4-0.5 c-0.6-0.5-1.3-0.9-2.1-1.1c-1.5-0.4-3.1-0.5-4.6-1.1c-0.1-0.1-0.3,0-0.4,0.1c-0.6,0.5-1.3,0.3-2,0.3c-1.3,0.1-2.5,0.4-3.5,1.3 c-0.2,0-0.4,0.1-0.6,0.1c-0.7-0.1-0.6,0.4-0.8,0.8c-0.3,0-0.5,0.1-0.5,0.4c-0.7,0-1.1,0.6-1.5,1.1c-0.8,1.2-1.8,2.3-2.6,3.5 c-0.7,1-1.5,1.9-2,3c-0.8,1.6-1.3,3.3-2.3,4.7c-0.5,0.7,0,1.1,0.5,1.4c-0.8,0.7-1.8,1.2-2.3,2.2c-0.1,0.3-0.5,0.4-0.8,0.4 c-0.4-0.6-0.9-0.9-1.5-1.1c-1.5-0.5-2.9-1-4.4-1.1c-1.6-0.1-3.3-0.3-4.9,0.1c-2.4,0.7-4.8,1.7-6.6,3.5c-0.7,0.7-1.6,0.9-2.1,1.7 c-0.4,0.4-0.9,0.9-1.3,1.3c-0.6,0-0.7,0.4-0.7,0.9l0,0c-0.4,0-0.6,0.3-0.6,0.7c0,0.1,0,0.2-0.1,0.3c-1.1,1-2.1,2.1-3,3.3 c-0.4,0.5-0.7,1.3-1.6,1.3c-0.8,0-1.7-0.1-2.4-0.5c-0.3-0.2-0.5-0.3-1-0.2c-0.7,0.3-0.9-0.6-1.4-0.8c-0.4-0.2-0.5-0.7-1.3-0.4 c-0.7,0.3-1.9,0.3-2.6-0.6c-0.4-0.5-0.7-1.3-1.6-0.6c-0.2,0.1-0.3-0.1-0.4-0.4c-0.1-0.4-0.2-1.1-0.7-0.2c-0.1,0.2-0.4,0.4-0.5,0.2 c-0.4-1.2-1.8-0.3-2.4-1.2c0-0.1-0.3,0-0.4,0c-0.3,0.1-0.4,0.6-0.8,0.2c-0.2-0.3,0-0.6,0.2-0.9c0.3-0.5,0.7-0.9,1-1.3 c1.1-1.3,2.8-1.9,3.9-3.2c0.6-0.7,1.3-1.2,2.1-1.7c0-0.3,0.1-0.5,0.4-0.6c1-0.4,2.1-0.8,3.1-1.1c1-0.3,1.8-1.1,2.9-1.4 c2.1-0.7,3.9-1.9,6-2.5c0.8-0.2,1.9-0.4,2.2-1.6c-0.6-0.5-1.4-0.8-1.7-1.5c0.6-0.1,1-0.6,1.5-0.7c0.6-0.2,1.3-0.4,1.6-1.1 c0.3-0.6,0.8-0.3,1.3-0.4c0.4,0,0.8,0.1,1.3,0c1.3-0.1,1.7-0.8,1.3-2.1c1.7-1,3.5-1.7,5.3-2.3c1.4-0.5,2.8-1.1,4.3-1.7 c-0.4-0.5-0.6-1.1-1.3-1.2c-0.3-0.6-0.5-1.3-0.9-1.8c-0.5-0.7-1-1.5-2-1.6c-0.1-0.5-0.8-0.8-0.6-1.5c0-0.3-0.1-0.5-0.2-0.7 c-1.5-2.4-2-4.9-1.7-7.7c0.1-1.4,0.2-2.7,0.7-4c0.7-1.8,0.8-3.8,2.9-4.6c0.2,0,0.4,0,0.5,0c0.2,0.1,0.3,0,0.5-0.1 c0.7-0.1,1.3-0.3,2-0.4c0.9,0,1.4,0.6,1.4,1.4c0.1,2,1,3.8,0.7,5.8c0,0.1,0,0.3,0.1,0.5c0.6,1.3,0.5,2.6,0.5,3.9c0,2.8,0,5.5,0,8.3 c0,1.1,0.2,2.1,0.5,3.2c0.9,3,2.7,5.5,4.4,8c0.2,0.3,0.5,1,1.1,0.8c0.6-0.2,0.8-0.8,0.8-1.4c0-0.3,0-0.6,0-1 c0.1-0.8-0.2-1.6,0.2-2.4c0.6-1.3,0.5-2.8,0.9-4.1c0.3-1,0.4-2.2,0.8-3.2c0.6,0,1.1-0.1,1.7-0.3c1.2-0.4,2.5-0.7,3.7-1 c0.8,0,1.7,0,2.5,0c0.2,0,0.4,0,0.6,0c0.5,0,0.9,0,1-0.7c0.1-0.7-0.3-0.9-0.9-0.9c-0.3-1.1-1.2-1.8-2-2.5c0-0.7,0.2-1.7-0.1-2.2 c-0.6-0.9-0.4-1.7-0.5-2.6c-0.1-0.9,0.3-1.4,1.1-1.7c0.4-0.1,0.7-0.2,1.1-0.3c1-0.4,1.9-0.8,2.7-1.5c0.6-0.5,0.8-1.5,1.7-1.7 c0,0.8,0.1,1.4,1.1,1.3c0.4,0,0.7,0.2,1,0.4c0.7,0.4,1.4,0.1,1.3-0.7c-0.3-1.4,0.2-3-0.8-4.3C264.6,152.1,264.4,151.4,265.2,151.4z M270.6,167.8c-0.4-1.3-0.9-2.8-2.4-3.7c-0.6-0.3-1.3-0.6-2-0.8c-1.3-0.4-1.7,0-1.7,1.4c0,0.4,0.1,0.8,0.3,1.2c0.9,2,2.6,3,4.7,3.1 C270.6,169.2,270.6,169.2,270.6,167.8z M261.3,165.7c0.3-1.5-0.2-2.6-1.3-3.5c-0.2-0.2-0.4-0.3-0.5-0.6c-0.2-0.6-0.7-0.9-1.2-0.9 c-0.6,0-0.7,0.7-0.9,1.2c-0.1,0.3-0.1,0.6-0.2,0.9c-0.4,2.5,1,4,2.8,5.2c0.7,0.5,1.2,0.2,1.3-0.7 C261.4,166.9,261.3,166.3,261.3,165.7z"></path> <path class="st7" d="M161.8,70.7c-2,1.8-4.2,1.8-6.5,0.7c-0.3-0.1-0.6-0.1-0.9-0.2c-1.7-1.3-3.4-2.5-5-3.8 c-2.4-2.1-4.4-4.5-6.1-7.2c-1.5-2.4-2.9-4.9-3.9-7.6c-0.3-0.9-0.6-1.8-1.2-2.5c-0.5-0.7-0.6-1.6-0.8-2.3c-0.3-1-0.8-2-0.9-3.2 c-0.1-0.7-0.3-1.5-0.6-2.2c-0.5-1.4-0.7-2.8-0.9-4.2c-0.4-2.3-1.2-4.5-1-6.9c0-0.6-0.1-1.2,0.4-1.8c1.3,1.2,3,1.6,4.6,2.2 c1,0.4,1.2,0.1,1.2-0.9c-0.2-3.1,0.2-6.1,1.1-9.1c0.2-0.5,0.1-1.1,0.3-1.6c0.9,0.2,1.1,1,1.5,1.7c1.6,2.9,3.8,5.4,6.5,7.4 c2.2,1.6,4.7,2.7,7.1,3.9c2,0.9,4.2,1.6,6.4,2.1c1.5,0.3,3,0.7,4.5,0.9c1.6,0.2,3.2,0.5,4.7,1c2.3,0.7,4.3,1.8,6.5,2.8 c0.8,0.3,1.5,0.8,2.1,1.4c1.2,1.1,2.6,2,3.7,3.2c0.6,0.7,1.3,1.4,1.8,2.2c-0.2,1.1-0.8,1.9-1.8,2.4c-2.1,1.2-4.3,2.2-6.6,3 c-2.2,0.9-4.6,1-6.9,1.6c-1,0.3-2.2,0.3-3.3-0.2c-0.5-0.3-1.1-0.3-1.7-0.3c-0.8,0-1.5-0.3-2.1-1.1c1.6-0.5,3.2-1.3,4.6-2.2 c1.1-0.7,2.1-1.5,3.2-2.3c0.5-0.4,0.5-0.7,0-1.2c-1.3-1.2-2.8-2-4.4-2.6c-2.1-0.9-4.2-1.7-6.3-2.5c-0.7-0.3-1.4-0.3-2.2-0.5 c-3-1-6.1-1.1-9.3-0.9c-0.7,0.1-1.3,0.4-1.5,1.2c-0.3,0.1-0.6,0.2-0.6,0.6c0,0.6-0.1,1.3-0.1,1.9c0,2.8,1.1,5.2,2.3,7.6 c1.5,3.1,3.2,6.2,5.3,9c0.7,1,1.3,2,2,2.9c1.7,2,3.3,4,5,5.9C161.8,69.6,161.8,70.2,161.8,70.7z"></path> <path class="st8" d="M120.5,250.1c0-0.4-0.1-0.8-0.6-1c-1.1-0.5-2.2-0.8-3.4-0.7c-0.7,0-1.5,0-2.2,0c-0.5,0-0.7-0.5-0.3-0.8 c1.1-0.7,0.7-2,1.2-3c0.3-0.6,0.5-1.5,0.9-2.1c0.7-1.3,1.1-2.8,1.7-4.2c0.9-2,1.9-3.9,2.9-5.9c0.9-1.7,2-3.3,2.9-5 c1-1.8,2.5-3.4,3.7-5.1c0.8-1.2,2.2-2,2.6-3.5c1.4-0.7,2-2.2,3.1-3.1c0.9-0.8,1.7-1.6,2.5-2.5c0.5-0.5,0.9-1.2,1.7-1.4 c0.1,0,0.4-0.1,0.4-0.2c0.8-1.7,2.6-2.4,4-3.6c0.7-0.7,1.7-1.1,2.5-1.7c2.4-2,5.4-3.1,8.1-4.6c1.1-0.6,2.1-0.8,3.3-0.6 c1.8,1.5,3.7,2.8,5.4,4.5c1.6,1.7,3.2,3.4,5,4.9c0,0.5,0.8,0.6,0.7,1.2c-1.4-0.2-2.4,0.8-3.3,1.6c-1.3,1-2.7,1.8-4,2.7 c-1.3,0.9-2.5,1.9-3.8,2.8c-0.9,0.6-1.9,0.9-2.6,1.7c-1.8,1.8-3.9,3.2-5.9,4.8c-1.6,1.3-3.2,2.6-4.7,3.9c-2.2,2-4.4,4-6.4,6.1 c-2,2.1-4.2,3.9-6,6.1c-2.1,2.6-4.5,5-6.1,8c-0.4,0.7-0.9,1.6-2,1.6C121.6,250.6,120.7,250.7,120.5,250.1z"></path> <path class="st9" d="M234.8,151.9c-2.2,0.8-2.3,2.8-2.9,4.6c-0.5,1.3-0.5,2.7-0.7,4c-0.3,2.8,0.2,5.3,1.7,7.7 c0.2,0.2,0.2,0.5,0.2,0.7c-0.8-0.1-1.2,0.8-2,0.9c-1.2,0.2-2.4,0.6-3.5,1.2c-0.2,0.1-0.5,0.1-0.7-0.1c1.6-3.5,2.3-9,1.3-10.4 c-0.2,0.2-0.2,0.4-0.2,0.6c0,1.4,0.1,2.8-0.6,4.2c-0.3,0.5-0.6,1.1-0.7,1.7c-0.3,1.6-0.7,1.8-2.3,2c-1.3,0.1-2.7,0-3.9,0.4 c-1.1,0.4-2,0.4-3.1,0.5c-1.3,0.2-2.3-0.3-3-1.5c-1-1.5-2-2.8-1.7-4.8c0.1-1.1-0.8-1.8-1-2.8c-0.2,1.2-0.5,2.3,0,3.4 c0.3,0.7,0.5,1.1,0,1.7c-0.3,0.4-0.2,0.7,0.1,1.1c0.7,1.2,1.7,2.2,2.4,3.3c0.6,1,1.6,1.6,3,1.4c1.6-0.2,3.3,0,5,0 c0.5,0,1-0.1,1.1,0.6c-0.6,0-0.8,0.6-1.3,0.7c-0.2,0-0.4,0-0.6,0c-2.8,1.4-5.8,2.4-8.7,3.5c-0.4,0-0.6,0.2-0.7,0.6 c-0.2,0-0.4,0-0.6,0c-0.8-0.5-0.9,0.1-1,0.6c-0.2,0-0.4,0-0.6,0c-0.3-0.1-0.6,0-0.8-0.2c-0.6-0.9-1.4-1.8-1.1-3 c0.1-0.4,0.3-0.9-0.1-1.2c-0.6-0.5-0.4-1.1-0.4-1.7c0.1-1.5,0-3.1,0.9-4.5c0.1-0.2,0.1-0.6,0.1-0.9c0.1-1-0.3-2,0.5-2.9 c0.1-0.1,0.1-0.3,0-0.5c-1-1.4-0.4-2.9-0.5-4.3c-0.1-0.5,0.1-1-0.3-1.6c-0.5,0.6-0.3,1.2-0.3,1.8c-0.1,0.5,0.1,1.1-0.1,1.4 c-0.6,0.8-0.4,1.6-0.5,2.4c0,0.5,0.1,1-0.2,1.5c-1-0.3-1.1-1-1.1-1.9c0.1-0.8-0.3-1.3-1.4-1.7c1,1.7,0.8,3.3,0.8,4.9 c0,0.4-0.1,0.8,0.1,1.1c0.9,1.5,0.4,3.1,0.6,4.7c0,0.3,0,0.7-0.1,0.9c-0.9,1.9-1.8,3.7-2.8,5.7c-0.4-0.6-0.2-1.1-0.3-1.6 c0-0.7,0-1.4,0-2.2c0.1-0.7-0.1-1.1-0.8-1c0-0.9-0.4-1.8-1-2.5c-1.6-1.7-3.5-2.9-5.7-3.6c-2.5-0.8-5.1-1.1-7.7-0.9 c-1.9,0.1-3.8,0.4-5.1,2.1c-0.1,0.1-0.3,0.1-0.5,0.1c0-1-0.1-2,0.5-2.9c0.3-0.5,0.1-1.2,0.2-1.9c0-0.4,0-0.9,0.6-1 c0.5,0.7,0.9,0.1,1.2-0.2c1.4-1.5,3.3-1.9,5.2-2.4c1.5-0.3,2.9,0.2,4.4,0c0.6-0.1,1.2,0.1,1.9,0.3c0.8,0.3,1.6,0.7,2.5,0.4 c-1-0.4-1.7-1.3-2.7-1.6c-3.1-1.1-6.1-1-9.1,0.1c-0.9,0.3-1.7,1-2.6,1c-0.1-2,0.9-3.8,1.5-5.6c0.9-2.6,2.2-5,3.3-7.5 c0.4-0.9,0.9-1.9,1.3-2.8c0.1-0.3,0.3-0.4,0.6-0.4c0.4,0.4,0.8,0.8,1.3,1.2c1.1,0.7,2.3,1,3.3,1.6c2.1,1.3,4.5,1.5,6.7,2.2 c0.7,0.2,1.4,0.7,2.2,0.7c2,0.1,3.9,1.3,6.1,0.7c1.9,0.5,3.8,0.2,5.7,0.2c2,0,4,0.1,6,0.3c2.6,0.2,5.2,0.1,7.8,0.1 c1.3,0,1.3,0,1.7-1.3c0.6,0.1,0.5,0.6,0.5,1c0.1,1.1,0.4,1.3,1.5,1.2C233.9,151.9,234.4,151.5,234.8,151.9z M211.6,155.9 c-0.2,0.9-0.4,1.6,0,2.2c1.2,1.4,2.2,2.9,3.6,4.1c0.2,0.1,0.3,0.4,0.5,0.2c1.4-0.8,2.9-0.2,4.4-0.4c0.4-0.1,0.8,0.1,1.1-0.2 c0.5-0.5,1.1-0.5,1.6-0.4c0.9,0,1.5-0.3,2-1.2c0.6-1.1,1-2.4,1.9-3.4c0.7-0.8,1.3-2,0.5-3.2c-0.4,0.3-1,0.4-1.1,0.8 c-0.4,1.1-1,2-1.5,3.1c-1,2.4-0.6,2.3-3,2.4c-1.3,0-2.5,0.3-3.8,0.5c-0.7,0.1-1.7,0.4-2.2,0c-0.8-0.7-1.8-1.3-2.2-2.3 C213,157.1,212.4,156.7,211.6,155.9z M219.4,155.9c-1.4,0-1.8,0.3-1.8,1.4c0,1.1,0.4,1.5,1.6,1.5c1,0,2-0.8,1.9-1.6 C221.1,156.5,220.3,155.9,219.4,155.9z"></path> <path class="st8" d="M217.1,353.5c-0.5,0-0.7,0.5-1,0.7c-0.3,0.2-0.4,0.5-0.8,0.5c-2-0.1-3.7,1.1-5.5,1.5c-1.2,0.2-2.4,0.2-3.5,0.6 c-2.5,0.9-5.1,0.5-7.7,0.6c-2.6,0.1-5.2,0-7.8,0c-1.2,0-2.5,0-3.7,0c-0.8,0-1.6,0.2-2.3-0.5c-0.1-0.1-0.4-0.2-0.6-0.1 c-1.7,0.4-3.2-0.4-4.8-0.8c-1-0.2-2.2-0.2-3.1-0.9c-0.2-0.2-0.5-0.3-0.7-0.2c-1.3,0.3-2.5-0.4-3.6-0.8c-0.8-0.2-1.4-0.8-2.3-1.1 c-2.6-0.9-5.1-1.9-7.7-2.9c-1.9-0.8-3.8-1.8-5.6-2.6c-0.5-0.2-0.3-0.6-0.4-0.9c0,0,0,0,0,0c0.7,0,0.7-0.4,0.6-1 c0-0.6,0.7-0.8,0.7-1.3c0.6,0,0.6-0.5,0.5-0.9c0-0.1,0-0.3,0.1-0.4c0.4,0,0.6-0.2,0.6-0.6c0.1-0.9,0.3-1.9,0.3-2.8 c0.3,0.2,0.5,0.6,0.9,0.6c2.2-0.2,4.2,1,6.4,0.7c0.7-0.1,1.4-0.1,1.9,0.4c0.3,0.3,0.8,0.2,1.2,0.2c1.3,0,2.7,0,4,0 c0.1,0.5,0.3,0.6,0.8,0.6c1,0.1,2.1,0.1,3.1,0.2c3.3,0.3,6.6-0.2,9.9,0c0.4,0,0.6-0.4,0.6-0.8c1.6,0,3.2,0,4.8,0 c0.9,0,1.8,0.1,2.6-0.5c0.4-0.3,1.1-0.1,1.7-0.1c1,0,1.9,0,2.9,0c0.6,0,1.2,0.1,1.6-0.4c0.1-0.1,0.4-0.2,0.6-0.2 c1.7-0.1,3.4,0,5.1-0.6c1-0.4,2.3,0.1,3.3-0.6c0.3-0.2,0.7,0,1.1-0.1c1-0.1,1.9-0.1,2.9-0.5c1-0.4,2.3-0.1,3.5-0.2 C217.8,343.2,218.3,348.4,217.1,353.5z"></path> <path class="st6" d="M113.1,293.6c-0.3-1.4-1.5-2.1-2.6-2.8c-1.4-1-3-0.6-4.5-0.6c-0.3,0-0.5,0.2-0.7,0.3c-1.5,1-2.7,2.2-3.6,3.7 c-0.3,0.5-0.7,0.9-1.1,1.3c-2.4,2.4-5.4,3.7-8.3,5c-0.8,0.4-1.8,0.9-2.8,0.9c-0.2,0-0.3,0-0.5,0.1c-2.1,1.5-4.6,1.3-6.9,2.1 c-0.5,0.2-1,0.2-1.5,0.3c-0.3,0.1-0.8,0.2-1-0.2c-0.1-0.3,0.1-0.6,0.3-0.8c1-0.9,1.8-2.1,2.8-3.1c1.9-1.9,3.2-4.2,4.6-6.6 c0.9-1.5,1.9-3,2.8-4.6c1.6-2.8,4-5,6.1-7.5c0.5-0.6,1.1-1.3,1.9-1.6c0.3-0.2,0.7-0.4,0.9-0.7c0.8-1.1,2.1-1.7,3-2.6 c0.9-0.9,2-1.4,3.1-2.1c0.6-0.4,1.2-0.7,1.5-1.3c0.7-0.3,1.3-0.7,2-1c1.6-0.8,3-1.9,4.6-2.8c2-1.3,4.1-2.5,6.5-2.8 c1-1,2.2-0.7,3.4-0.8c-0.2,2,0.9,3.8,0.8,5.8c0.8,1.3,0.5,2.8,1,4.2c0.4,1.1,0.6,2.3,0.8,3.5c0.2,1.2,0.9,2.3,1.1,3.5 c0.1,0.5,0.4,1,0.4,1.5c-0.1,0.7,0.6,1,0.7,1.5c-0.1,0.6-0.6,0.8-1.1,1c-3.1,1.5-6,3.2-9,4.8C116.2,291.9,114.9,293.1,113.1,293.6z "></path> <path class="st8" d="M334,258c1-0.9,2.1-1.8,2.8-2.9c1-1.5,2.3-2.5,3.5-3.8c1.2-1.2,2.4-2.6,3.3-4c0.6-0.9,1.4-1.5,2.1-2.3 c1.1-1.3,2.3-2.5,3.2-4c0.5-0.9,1.2-1.6,1.8-2.3c1.7-2.1,3.3-4.3,4.9-6.4c1.3-1.7,2.6-3.5,3.8-5.4c0.8-1.4,1.6-3,3-3.9 c0.3-0.2,0.2-0.5,0.4-0.7c1.7-2.2,2.8-4.8,4.4-7c0.8-1.1,1.5-2.3,2-3.7c0.1-0.2,0.2-0.4,0.4-0.5c1.1-0.7,1.4-1.9,1.9-2.9 c1.3-2.4,2.8-4.7,3.8-7.2c0.2-0.5,0.7-0.6,1.2-0.7c0,2.1,0.2,4.2-0.4,6.3c-0.3,1.2-0.8,2.4-0.8,3.7c0,0.6-0.5,1-0.6,1.6 c-0.9,0.1-0.6,0.8-0.6,1.3c0.2,1.1-0.5,2-0.8,3c-0.6,1.9-1.4,3.8-2.2,5.6c-1.1,2.3-2.1,4.6-3.3,6.9c-1.6,3.2-3.1,6.5-5,9.5 c-1.5,2.4-2.8,4.9-4.5,7.2c-1.1,1.5-2.2,3-2.9,4.8c-0.3,0.8-1.1,1.2-1.5,1.9c-1.3,2-2.6,4-4.1,5.8c-2.1,2.6-4,5.3-6,7.9 c-0.7,0.9-1.8,1.6-2.4,2.6c-0.3,0-0.5,0.1-0.5,0.5c0,0.1,0,0.1-0.1,0.2c-0.6,0-0.7,0.5-0.6,0.9c0,0,0,0,0,0 c-0.6,0.2-1.1,0.4-1.5-0.5c-0.5-1-1.1-1.9-1.4-3.1c-0.3-1.3-1.1-2.5-1.5-3.8c-0.5-1.4-1.4-2.6-1.7-4.1C334,258.5,334,258.2,334,258 z"></path> <path class="st7" d="M166.5,211.9c0.1-0.6-0.7-0.7-0.7-1.2c-0.2-1.1-0.5-2.3-0.6-3.4c-0.2-3.2,0.7-6.1,2.3-8.8 c1.8-3.1,4.2-5.6,7-7.8c0.5-0.4,1-0.9,1.5-1.4c3-0.2,5.8,0.3,8.6,1.3c2.9,1,5.7,2.3,8,4.3c1.3,1.2,2.8,2.3,3.5,4 c1.3,2,2,4.2,1.9,6.6c0,0.5,0,0.9,0,1.4c-0.3,2.2-1.1,4.2-3.1,5.4c-0.4,0.2-0.7,0.1-1,0.3c-1.1,0-2.1,0-3.2,0 c-1.3-0.3-2.2-1.4-3.4-2.1c-1.3-0.7-2.4-0.6-3.7-0.1c-1.6,0.6-2.8,1.8-3.9,2.9c-1,1.1-2.3,1.6-3.5,1.9c-1.8,0.5-3.6,0.7-5.5,0.3 C168.4,215,167.2,213.9,166.5,211.9z"></path> <path class="st7" d="M289.7,62.1c-1.2-1-2.2-2.2-3.1-3.5c0.1-0.3,0.4-0.5,0.5-0.8c1.3-3.3,2.8-6.5,3.7-9.9c1-3.4,1.4-6.9,1.3-10.5 c-0.1-1.4-0.4-2.8-0.9-4.2c-0.4-1-1-1.7-2-2c-1.2-1.1-2.6-0.7-3.8-0.4c-2.5,0.5-4.9,1.5-7.2,2.5c-2.2,1-4.3,2.3-6.5,3.5 c-1.2,0.7-2.3,1.4-3.4,2.1c-0.3,0.2-1,0.3-0.8,0.8c0.2,0.6,0.8,0.3,1.2,0.3c1.4,0,2.8-0.1,4.2-0.1c0.3,0,0.6-0.2,0.8,0.2 c0.1,0.3-0.1,0.5-0.2,0.7c-1.1,1.9-2.9,3-4.8,4c-0.2,0.1-0.4,0.1-0.6,0c-2-1.1-4.1-1.9-6.2-2.7c-2.3-0.9-4.5-1.9-6.9-2.5 c-2-0.5-4-0.9-6-1.6c-0.2-0.1-0.4-0.1-0.6-0.1c-0.9,0.2-1.3-0.4-1.9-0.9c0.2-0.2,0.4-0.6,0.7-0.5c1.7,0.1,3.3-0.6,5-0.8 c1.5-0.3,3.1-0.4,4.6-1c0.1-0.1,0.3-0.1,0.5-0.1c2.5,0,4.8-1.1,7.1-1.7c3.2-0.8,6.4-1.6,9.4-2.9c2.7-1.2,5.4-2.4,7.6-4.7 c1-1.1,2.4-1.8,3.6-2.8c2.3-2,4.4-4.1,6.3-6.5c1-1.3,1.7-2.8,2.4-4.2c0.3-0.7,0.8-1.3,1.3-1.9c0.3,1.5,0.2,3,0.3,4.5 c0.1,2.9,0,5.7-0.7,8.6c-0.2,1-0.6,2-1,2.9c-0.2,0.5-0.3,0.9-0.3,1.3c-0.5,0-0.5,0.4-0.6,0.7c0,0.3-0.1,0.5,0.3,0.5 c0.4,0,0.3-0.3,0.3-0.6c1.2-0.4,2.1-1.2,2.8-2.3c0.4-0.6,0.8-1.4,1.6-1.7c0.3,4.9,0.4,9.7,0,14.5c-0.3,3.9-0.9,7.8-1.9,11.6 c-1,3.6-2.4,6.9-4.5,10c-0.3,0.5-0.5,1.1-1.2,1.2C289.7,61.2,290.1,61.9,289.7,62.1z"></path> <path class="st1" d="M196.1,198.8c-0.7-1.7-2.1-2.8-3.5-4c-2.3-2-5.1-3.4-8-4.3c-2.8-0.9-5.6-1.5-8.6-1.3c0.5-1,1.1-1.9,1.4-2.9 c0.4-1.4,1.1-2.7,1.4-4.1c0.4-2.6,1.2-5.2,1.6-7.9c0.2-1.5,0.8-2.8,0.9-4.3c0.8-0.2,0.6-0.8,0.5-1.4c0-0.1,0-0.2,0-0.3 c0.2,0,0.4,0,0.5-0.1c1.3-1.7,3.2-2,5.1-2.1c2.6-0.2,5.2,0.1,7.7,0.9c2.2,0.7,4.1,1.9,5.7,3.6c0.6,0.7,1,1.5,1,2.5 c-0.2,0.7,0.1,1,0.8,1c0,0.7,0,1.4,0,2.2c-1.2,0.7-1.3,2-0.3,3.4c0.5,0,0.1-0.8,0.7-0.9c0.3,0.1,0.2,0.4,0.4,0.6 c0.7,1.2,1.2,1.3,2.2,0.4c0.3-0.3,0.6-0.6,1.1-0.6c1,0.1,1.8-0.9,2.8-0.8c0.2,0,0.2-0.3,0.3-0.5c0.2,0,0.4,0,0.6,0 c0.5,0,0.9,0,1-0.6c0.2,0,0.4,0,0.6,0c0.5,0.1,0.7-0.1,0.7-0.6c2.9-1.1,5.8-2.1,8.7-3.5c0,1.7-0.1,1.6-1.7,2.3 c-1.5,0.6-3.1,1.1-4.4,2.1c-0.2,0.1-0.3,0.3-0.5,0.3c-2,0.3-3.7,1.7-5.6,2.4c-1.8,0.6-3.3,1.8-5,2.6c-0.9,0.4-1.7,0.8-2.6,1.2 c-0.7,0.3-1.3,0.8-1.4,1.4c-0.1,1-0.8,1.8-0.8,2.7c0,0.8-0.9,1.2-0.6,2.1c0,0.1-0.1,0.2-0.1,0.3c-0.7,0-0.7,0.4-0.6,0.9 c0,0.3,0,0.6,0,0.9c0,0.6,0.1,1.4-0.2,1.9c-0.6,0.9-0.5,1.8-0.5,2.7C197.3,197.8,196.9,198.5,196.1,198.8z M186.8,177.5 c0-1.2,0.1-2.3-0.9-3.3c-0.4-0.4-0.8-0.5-1.2-0.3c-2.3,1.4-3.7,3.5-3.9,6.2c0,0.2,0,0.4,0,0.6c0.3,0.8,0.5,1.6,0.6,2.4 c0.2,1,0.9,1.3,1.8,0.7C185.3,182.4,186.9,180.4,186.8,177.5z M197,171.2c0-0.4,0-0.5,0-0.6c-0.1-0.4-0.2-0.7-0.3-1.1 c-0.3-1.2-0.6-1.4-1.7-0.8c-1.9,1.1-3,3.7-2.4,5.8c0.2,0.9,0.9,1.2,1.8,0.8C195.9,174.8,196.9,172.6,197,171.2z M195.8,181.3 c-1.3,1-2.8,1.8-3.1,3.3c-0.3,1.5-0.5,3.2,0.8,4.5C197,187.3,197.5,184.4,195.8,181.3z"></path> <path class="st7" d="M156.6,128c0.2-2.3-0.5-4.5-1-6.7c-1.1-4.3-0.5-8.3,1.9-12c0.8-1.3,2-2.2,3.1-3.4c1.8-2,4.1-3.3,6.4-4.5 c1.5-0.8,3.1-1.3,4.8-1.7c2-0.5,4-0.5,6-0.6c1,0,1,0.6,0.9,1.4c-0.3,0-0.5,0-0.8,0.1c-0.8,0.5-1.6,1-2.4,1.6 c-1.1,0.8-2.4,1.4-3.5,2.4c-0.6,0.6-1.1,1.3-1.8,1.8c-1.1,0.8-1.8,1.9-2.3,3c-1.2,2.8-0.9,5.8-0.5,8.8c0.2,1.4,0.5,2.8,1,4.1 c0.6,1.5,0.9,3.2,1.9,4.6c0.4,0.6,0.9,1.4,1,2.3c0,0.4,0.2,0.6,0.6,0.6c0,0.2,0,0.4,0,0.7c-0.1,0.4,0,0.7,0.5,0.6 c0.7,1.1,1.1,2.3,2,3.3c0.4,0.4,0.6,1,0.9,1.5l0,0c-1.7-0.5-3-1.6-4.3-2.8c-1.1-1-2.5-1.7-3.6-2.8c-1.6-1.6-3.4-3-4.5-5.1 c-0.2-0.3-0.5-0.8-1-0.9c-0.4,0.4-0.3,0.8-0.3,1.2c-0.3,3-1.4,5.6-3.3,7.9c-0.4,0.5-0.6,0.3-0.8-0.1c-0.4-0.9-0.6-1.8-0.6-2.8 C157.2,129.8,157,128.9,156.6,128z"></path> <path class="st5" d="M172,130c-0.4,0-0.5-0.3-0.6-0.6c-0.1-0.9-0.5-1.6-1-2.3c-1-1.4-1.3-3.1-1.9-4.6c-0.5-1.3-0.8-2.7-1-4.1 c-0.4-2.9-0.7-5.9,0.5-8.8c0.5-1.1,1.2-2.3,2.3-3c0.7-0.5,1.2-1.2,1.8-1.8c1-1,2.3-1.6,3.5-2.4c0.8-0.6,1.6-1.1,2.4-1.6 c0.2-0.2,0.5-0.1,0.8-0.1c-0.1,0.5,0.5,0.8,0.6,1.3c0.3,1.5,1.2,2.9,1.8,4.3c1,2.2,2.5,4.1,3.7,6.2c0.3,0.5,0.9,0.9,1,1.6 c-0.1,0-0.2,0-0.3,0.1c-2.2,1.4-4.1,3.2-5.5,5.4c-0.9,1.4-1.5,3-2,4.6c-0.4,1.6-0.4,3.3,0.5,5.1c1.1,2.1,2.4,3.8,4.1,5.3 c2.2,2,4.6,3.8,7.3,5.1c0.1,0,0.1,0.3,0.1,0.5c-1.1,0.3-2-0.4-3-0.8c-3.4-1.3-6.4-3.3-9.4-5.3c-1.6-1.1-3.3-2.1-4.6-3.5 C172.7,130,172.4,130,172,130z"></path> <path class="st9" d="M265.2,151.4c-0.8,0.1-0.7,0.7-0.7,1.2c-0.8,0.1-0.4,1.1-1,1.5c-0.6,0.5-1.1,1.2-1.6,1.8 c-0.9,0.2-1.1,1.2-1.7,1.7c-0.9,0.7-1.8,1.1-2.7,1.5c-0.3,0.1-0.7,0.2-1.1,0.3c-0.8,0.3-1.3,0.7-1.1,1.7c0.1,0.9-0.1,1.7,0.5,2.6 c0.3,0.5,0.1,1.5,0.1,2.2c-0.4,0-0.8,0.1-1.2,0.1c-1.2,0.1-2.3,0-3.3,0.7c-0.3,0-0.6,0-0.8,0.1c-0.1-0.1-0.2-0.2-0.3-0.2 c-0.2-0.6-0.4-1.1,0-1.7c0.5-0.8,0.4-1.6,0-2.4c-0.2-0.4-0.3-0.8-0.3-1.2c0-2.7-1.1-4.9-2.4-7.2c-0.9-1.7-2.4-3-3.5-4.5 c-0.7-1-0.7-1.5,0.3-2c2.2-1.1,4-2.8,6.1-4.2c0.2-0.2,0.3-0.4,0.4-0.7c0.6-1,1.8-1.1,2.7-1.3c1.1-0.3,2.2-0.5,3.2-1.2 c0.4-0.3,0.8-0.2,1.2-0.2c0,0.1,0,0.1,0,0.2c1.9,1.8,3.2,4.2,5.1,6c0.3,0.3,0.6,0.7,0.9,1.1C265,148.4,265.3,149.8,265.2,151.4z M254,155.2c-0.2,1.4,0.6,2.5,1.1,3.7c0.3-1.1,0.2-2.1,0.2-3.2c0-0.7,0.1-1.2,0.9-1.1c0.9,0,1.7-0.5,2.3-1c1.3-1,2.6-2,3.7-3.2 c0.6-0.6,1.2-1.4,0.9-2.5c-0.5,0.3-0.9,0.6-1.1,1.1c-0.2,0.7-0.8,1.2-1.3,1.5c-1.5,0.7-2.7,1.8-4.2,2.5c-0.8,0.4-1.1,0.2-1.2-0.7 c0-0.6,0-1.2-0.5-1.6c-0.3-0.2-0.6-0.4-1-0.2c-0.4,0.1-0.4,0.5-0.4,0.8c0,0.5,0,1,0,1.4c-0.6-0.1-0.9-0.5-1.3-0.9 c-0.4-0.4-0.9-0.8-1.3-1.1c-0.5-0.4-0.8-0.2-0.9,0.3c0,0.4-0.1,0.9,0.3,1.2C251.4,153.2,252.5,154.4,254,155.2z"></path> <path class="st7" d="M270.6,176.1c1.4-2.1,2.5-4.3,3.4-6.7c0.9-2.3,0.8-4.5,0.8-6.8c0-1.1,0.1-1.3,1.2-1.2c0.3,0,0.6,0,0.9,0 c3.2,0.5,6.5,1,9.2,3.1c1.5,1.1,2.6,2.5,3.6,4c1,1.5,1.5,3.1,1.9,4.9c-0.2,0.1-0.2,0.2-0.1,0.3c0,0.1,0.1,0.1,0.2,0 c0.1,0.1,0.2,0.3,0.2,0.4c0,0.5,0,1.1,0,1.6c0.2,1.7-0.3,3.3-1.2,4.8c-0.4,0-1,0.1-1.2-0.1c-0.8-0.7-1.8-0.5-2.7-0.6 c-0.3,0-0.6,0-0.8-0.2c-0.6-0.5-1.3-0.4-2-0.4c-0.1-0.4-0.3-0.6-0.8-0.6c-0.7-0.1-1.5,0-2.2,0.1c-0.3,0-0.6-0.1-0.9-0.1 c0.5-0.7,1.3-1.1,2-1.7c0.6-0.7,0.6-1.6-0.1-2.2c-1.1-1-2.7-0.9-4.3-0.1c-1.7,0.9-2.9,2.4-4.4,3.5c-0.6-0.7-1.2-1.4-2.3-1.5 C271,176.6,270.8,176.3,270.6,176.1z"></path> <path class="st7" d="M288,110c2.2,1.7,3.5,3.9,4.2,6.6c0.8,3,0.9,5.9,0.6,8.9c-0.2,1.6-0.1,3.3-0.1,4.9c0,0,0,0,0,0 c-0.8,0.2-0.6,0.7-0.5,1.3c-0.1,1.3-0.9,2.4-0.8,3.7c-0.4,0-0.6-0.2-0.7-0.6c-0.1-0.4-0.1-0.9-0.7-1c0.1-2.3-0.9-4.4-1.5-6.6 c-0.6-0.1-0.8,0.3-1,0.7c-0.8,1.7-2,3.2-3.2,4.6c-1,1.2-2,2.5-3.5,3.4c0.3-1.8,1.2-3.2,1.2-4.8c0.5-0.3,0.9-0.7,0.7-1.4 c0.1-0.4,0.2-0.9,0.3-1.3c0.9-0.3,0.6-0.9,0.5-1.5c0-1.1,0.2-2.2,0-3.2c0.2-1.3,0-2.6,0-3.8c0.1-0.6,0.4-1.3-0.5-1.6 c-0.1-0.6-0.2-1.2-0.2-1.8c1.4-2,2.9-4,4.3-5.9C287.2,110.3,287.5,110.1,288,110z"></path> <path class="st7" d="M190,139.9c0-0.2,0-0.4-0.1-0.5c-2.7-1.3-5.1-3.1-7.3-5.1c-1.7-1.5-3-3.3-4.1-5.3c-0.9-1.8-0.9-3.5-0.5-5.1 c0.4-1.5,1-3.1,2-4.6c1.5-2.2,3.4-4,5.5-5.4c0.1-0.1,0.2,0,0.3-0.1c1.3,0.4,2.2,1.2,2.3,2.6c-0.6,0.7-1.1,1.5-1.7,2.2 c-1.8,1.9-2.5,4.1-2.1,6.7c0.3,2.3,1.5,4.1,2.7,5.9c1.8,2.7,4,5.1,6.2,7.5c1.3,1.4,2.7,2.7,4.1,4.1c-1.4-0.1-2.5-0.6-3.6-1.4 c-0.7-0.5-1.5-1-2.4-1C191,139.8,190.5,139.9,190,139.9z"></path> <path class="st2" d="M191.3,140.4c0.9,0,1.7,0.5,2.4,1c1.1,0.8,2.3,1.3,3.6,1.4c0.8-0.2,1.6,0.2,2.3,0.4c3.4,1,6.9,1.4,10.3,2.2 c2.1,0.5,4.2,0.2,6.2,0.7c3.2,0.8,6.4,0.3,9.7,0.5c1.2,0,2.4,0,3.7,0c2.1,0,2.1,0,2,2c0,0.4,0,0.8,0,1.2c-0.4,1.3-0.4,1.3-1.7,1.3 c-2.6,0-5.2,0.1-7.8-0.1c-2-0.2-4-0.3-6-0.3c-0.2-0.7-0.8-0.6-1.3-0.6c-2,0-3.8-1.3-5.8-1.1c-0.4,0-0.9-0.5-1.4-0.5 c-1.3,0-2.4-0.6-3.6-0.8c-1.3-0.3-2.6-0.6-3.8-1.1c-0.9-0.5-2.1-0.3-2.8-0.7c-1.2-0.8-2.6-1-3.8-1.5c-0.8-0.4-1.6-1.1-2.6-0.9 c-0.7-0.6-0.9-1.4-0.7-2.3C190.2,140.4,190.8,140.5,191.3,140.4z"></path> <path class="st5" d="M282.6,116.6c0.1,0.6,0.2,1.2,0.2,1.8c-0.1,0.6-0.2,1.2,0.5,1.6c0,1.3,0.2,2.6,0,3.8c-2,1.4-3.6,3.1-5.4,4.6 c-1,0.8-2,1.4-3.1,2.1c-0.2-0.4,0-0.8,0-1.2c0.1-2.3,0.3-4.5,0.2-6.8c0.9-0.7,1.8-1.5,2.8-2.1c1.4-0.9,2.9-1.7,3.8-3.2 C281.6,117,282,116.5,282.6,116.6z"></path> <path class="st7" d="M274.9,122.6c0.1,2.3-0.1,4.5-0.2,6.8c0,0.4-0.1,0.8,0,1.2c-0.8,1.3-2.3,1.6-3.4,2.4c-0.8,0.6-1.7,1-2.5,1.5 c0.1-1.6,0.9-3,1.4-4.5c0.6-2,0.9-4,0.8-6.1c0.4,0,0.7-0.2,1-0.3C272.9,123.1,273.7,122.4,274.9,122.6z"></path> <path class="st10" d="M190.7,143.4c1-0.1,1.8,0.6,2.6,0.9c1.3,0.5,2.6,0.7,3.8,1.5c0.7,0.5,1.9,0.3,2.8,0.7 c1.2,0.6,2.5,0.9,3.8,1.1c1.2,0.3,2.4,0.8,3.6,0.8c0.6,0,1.1,0.5,1.4,0.5c2.1-0.1,3.8,1.1,5.8,1.1c0.5,0,1.1-0.1,1.3,0.6 c-1.9,0-3.8,0.3-5.7-0.2c-2.1,0.7-4-0.6-6.1-0.7c-0.8,0-1.5-0.5-2.2-0.7c-2.2-0.7-4.6-1-6.7-2.2c-1-0.6-2.3-1-3.3-1.6 c-0.5-0.3-0.9-0.8-1.3-1.2C190.6,143.8,190.6,143.6,190.7,143.4z"></path> <path class="st10" d="M183.8,160.4c1-0.1,1.8-0.7,2.6-1c3.1-1.1,6.1-1.2,9.1-0.1c1,0.4,1.7,1.2,2.7,1.6c-0.9,0.2-1.7-0.1-2.5-0.4 c-0.6-0.3-1.2-0.4-1.9-0.3c-1.5,0.1-2.9-0.4-4.4,0c-1.9,0.4-3.8,0.8-5.2,2.4c-0.3,0.4-0.7,0.9-1.2,0.2c0-0.4,0.1-0.8,0.1-1.3 C183.9,161.2,183.9,160.8,183.8,160.4L183.8,160.4z"></path> <path class="st0" d="M151.8,348.7c-1.9,1.3-4.2,1.9-6.3,2.9c-1.9,0.8-4,1.3-5.9,2.5c-0.7,0.5-1.6,0.6-2.4,0.7 c0.1-0.1,0.1-0.4,0.2-0.4c3.4-1.4,6.9-2.8,10.3-4.2c1-0.4,2-0.8,3-1.3C151.1,348.7,151.4,348.7,151.8,348.7z"></path> <path class="st9" d="M306.8,108.5c-0.1-0.2-0.2-0.4-0.2-0.6c0-2.5,0-5,0-7.5c0-0.2,0.1-0.4,0.2-0.6c0.5,0.3,0.6,0.9,0.6,1.4 c0,2.1,0,4.1,0,6.2C307.3,107.9,307.3,108.3,306.8,108.5z"></path> <path class="st9" d="M289.9,133.9c0.6,0.1,0.6,0.6,0.7,1c0.1,0.4,0.3,0.6,0.7,0.6c0.3,1-0.6,1.6-0.9,2.4 C289.8,136.9,289.8,136.4,289.9,133.9z"></path> <path class="st9" d="M305.3,111.7c0.6,0,0.8-0.7,1.4-0.6c0,0.4,0.1,0.7,0,1.1c0,0.4,0.1,1-0.5,1c-0.5,0-0.9-0.3-1-0.8 C305.3,112.1,305.3,111.9,305.3,111.7z"></path> <path class="st0" d="M158.9,339.4c0,1-0.2,1.9-0.3,2.8c-0.1,0.4-0.3,0.6-0.6,0.6c0-1.1,0-2.3,0.1-3.4 C158.3,339.4,158.6,339.4,158.9,339.4z"></path> <path class="st9" d="M306.7,97.3c-0.5,0-0.8-0.2-0.8-0.8c0-0.7-0.1-1.5,0-2.2C307.2,95.1,306.7,96.3,306.7,97.3z"></path> <path class="st9" d="M47.8,327.6c0,0.5-0.5,0.7-0.8,0.9c-0.8,0.6-1.6,1-2.5,1.5c0-0.2,0-0.5,0.1-0.6 C45.7,328.8,46.6,328,47.8,327.6z"></path> <path class="st9" d="M50.6,325.3c-0.3,1.2-1.2,1.5-2.2,1.9C49,326.4,49.5,325.5,50.6,325.3z"></path> <path class="st5" d="M297.9,72.9c-0.9-0.7-1.5-1.7-1.9-2.8C297.3,70.6,297.5,71.8,297.9,72.9z"></path> <path class="st9" d="M305.9,93.1c-1.1-0.4-0.5-1.3-0.6-2C306,91.7,306,92.4,305.9,93.1z"></path> <path class="st5" d="M296,70c-0.7-0.3-0.9-0.9-1.1-1.5C295.8,68.5,295.9,69.3,296,70z"></path> <path class="st9" d="M304.7,109.7c0.6,0.3,0.9,0.6,0.6,1.3C304.6,110.8,304.6,110.3,304.7,109.7z"></path> <path class="st5" d="M282.6,129.9c0.2,0.7-0.2,1-0.7,1.4C281.9,130.7,281.5,130,282.6,129.9z"></path> <path class="st9" d="M304,107.8c0.6,0.3,0.9,0.6,0.6,1.3C303.9,108.9,303.9,108.4,304,107.8z"></path> <path class="st11" d="M283.3,127.1c0.1,0.6,0.4,1.2-0.5,1.5C282.8,128.1,282.6,127.5,283.3,127.1z"></path> <path class="st5" d="M298.8,74c-0.7,0-1-0.4-0.8-1.1C298.7,72.9,298.9,73.3,298.8,74z"></path> <path class="st1" d="M292.2,131.8c-0.1-0.5-0.2-1.1,0.5-1.3C292.6,131,293,131.7,292.2,131.8z"></path> <path class="st9" d="M181.9,168.6c0.1,0.5,0.3,1.2-0.5,1.4C181.3,169.4,181.2,168.9,181.9,168.6z"></path> <path class="st5" d="M293.4,27.8c0,0.3,0,0.5-0.3,0.6c-0.4,0-0.3-0.3-0.3-0.5c0-0.4,0.1-0.7,0.6-0.7 C293.4,27.4,293.4,27.6,293.4,27.8z"></path> <path class="st3" d="M374.1,213.2c0-0.5-0.2-1.2,0.6-1.3C374.7,212.5,375,213.2,374.1,213.2z"></path> <path class="st9" d="M183.8,160.4c0,0.4,0.1,0.9-0.5,1C183.2,160.9,183.2,160.5,183.8,160.4z"></path> <path class="st4" d="M156.6,345.4c0.1,0.5,0,0.9-0.6,1C156,346,156.1,345.6,156.6,345.4z"></path> <path class="st0" d="M157.8,343.2c0.1,0.5,0.1,0.9-0.5,0.9C157.2,343.7,157.4,343.4,157.8,343.2z"></path> <path class="st3" d="M340.1,270.1c0-0.5,0-0.9,0.6-0.9C340.7,269.7,340.6,270.1,340.1,270.1z"></path> <path class="st0" d="M291.8,173.7c-0.1,0.1-0.2,0.1-0.2,0c0-0.1-0.1-0.3,0.1-0.3c0.1-0.1,0.2-0.1,0.2,0 C292,173.5,292,173.7,291.8,173.7z"></path> <path class="st11" d="M172.6,131.2c-0.5,0-0.6-0.2-0.5-0.6C172.4,130.6,172.6,130.8,172.6,131.2z"></path> <path class="st3" d="M340.8,269.1c-0.1-0.4,0.2-0.5,0.5-0.5C341.3,268.9,341.1,269,340.8,269.1z"></path> <path class="st7" d="M175.5,136.1L175.5,136.1C175.6,136.1,175.5,136.1,175.5,136.1C175.6,136.1,175.5,136.1,175.5,136.1z"></path> <path class="st4" d="M113.1,293.6c1.7-0.5,3.1-1.6,4.6-2.5c3-1.6,6-3.3,9-4.8c0.5-0.2,1-0.4,1.1-1c1.3-0.1,2.4-0.9,3.6-1.3 c1.5-0.6,3-1.1,4.4-1.9c2.9-1.7,6.1-2.4,9.2-3.7c1.2-0.5,2.4-1.3,3.7-1.5c1-0.2,1.9-0.6,2.8-0.9c1.1-0.4,2.3-0.7,3.4-1 c1.1-0.3,2.1-0.9,3.3-0.9c0.8,0,1.6-0.5,2.4-0.7c2.2-0.6,4.3-1,6.5-1.5c2.3-0.5,4.6-0.9,6.9-1.1c2.3-0.2,4.6-0.7,7-0.5 c2.6,0.2,5.2,0.5,7.6,1.5c2.4,1,3.8,2.9,3.8,5.4c0,2-0.7,4.1-2.2,5.6c-0.9,0.9-1.3,2-2.2,2.9c-1,1-2,2-3.2,2.9 c-0.9,0.7-1.7,1.6-2.6,2.1c-1.5,0.8-2.5,2.4-4.2,2.9c-0.6,0.2-1.2,0.9-1.8,1.4c-1.1,0.8-2.3,1.4-3.4,2c-0.7,0.4-1.5,0.7-1.9,1.4 c-0.5,0.7-1.2,0.5-1.8,0.8c-2.5,1.4-5.1,2.8-7.8,4.1c-1.4,0.6-2.7,1.4-4.2,1.7c-0.3,0.1-0.5,0.2-0.7,0.3c-1.5,1-3.4,1.4-4.9,2.4 c-0.8,0.5-1.9,0.2-2.6,1c-1.9,0.1-3.4,1.5-5.2,1.9c-1.1,0.3-2.1,0.7-3.2,1c-0.7,0.2-1.2,0.4-1.2,1.2c-0.5-0.4-1-0.5-1.7-0.3 c-2.2,0.7-4.4,1.5-6.7,2.1c-1.3,0.3-2.7,0.6-4,0.9c-1.2,0.3-2.6,0.4-3.8,1c-0.9,0.4-2.1,0.5-3.1,0.6c-2.9,0.5-5.6,1.4-8.5,1.8 c-3.4,0.5-6.8,1.1-10.2,1.5c-2.7,0.4-5.5,0.8-8.2,0.9c-2.2,0.1-4.3,0.9-6.6,0.7c-1.9-0.1-3.8,0-5.8,0c-0.3,0-0.5,0-0.8,0 c-1.4-0.3-1.6-1.1-0.8-2.2c1.7-2.2,3.8-4,6-5.8c0.8-0.5,1.6-0.9,2-1.8c0,0,0,0,0,0c1.4-0.4,2.4-1.5,3.4-2.4c0.7-0.6,1.7-0.9,2-1.8 c2-1.5,3.8-3.1,5.9-4.4c0.9-0.6,1.7-1.2,2.6-1.8c1.7-1.2,3.4-2.5,5.2-3.5c0.8-0.4,1.4-1,2.2-1.5c1.4-0.9,2.9-1.6,4.3-2.5 C113,294,113.2,293.9,113.1,293.6z"></path> <path class="st12" d="M284.2,179.3c0.7,0,1.4-0.1,2,0.4c0.2,0.2,0.5,0.1,0.8,0.2c0.9,0.1,1.9-0.1,2.7,0.6c0.3,0.2,0.8,0.1,1.2,0.1 c0.6,0.2,0.9,0.8,1.6,0.8c0.3,0,0.2,0.3,0.2,0.5c-0.4,0.3-0.9,0.3-1.4,0.3c-2.1,0-3.8,0.8-5.3,2.2c-0.8,0.8-1.4,1.7-2,2.6 c-1.9,2.7-3.1,5.8-4.1,8.9c-0.3,0.8-0.5,1.7-0.8,2.5c-0.7,1.7-1.7,3.4-3.1,4.7c-0.5,0.5-1.1,0.9-1.2,1.6c0,0.1-0.2,0.4-0.3,0.4 c-1-0.2-1.3,0.8-1.9,1.2c-1.6,1.2-3.2,2.4-4.5,3.9c-1.1,1.3-2.3,2.5-2.5,4.2c-0.4-0.2-0.7-0.6-0.9-1c-0.2-0.3-0.4-0.2-0.7-0.2 c0-0.3,0.1-0.5,0.2-0.7c0.5-0.9,0.8-1.9,1.1-2.9c0.4-1.3,0.4-2.6,0.9-3.8c0.6-1.6,0.9-3.3-0.1-4.9c-0.2-0.3-0.2-0.7-0.3-1.1 c-0.7-1.7-1.7-3.3-3.8-3.4c-0.1-0.6-0.5-0.6-0.9-0.6c-1,0-2.1,0.2-3,0c-1.7-0.3-2.6,1.1-4,1.6c-1.6,2.2-3.5,4.1-4.7,6.5 c-1.7,3.5-3.1,7.1-2.8,11.1c0.1,2,0,3.9,0,5.9c0,0.4,0.1,0.8-0.2,1.3c-0.7,1.3-1.4,2.6-1.8,4c-0.5,1.4-1.5,2.4-2.1,3.8 c-0.6,1.3-0.8,2.7-1.3,4c-2.1,0.2-3.7-1-5.4-1.8c-3.6-1.5-6.4-4.2-9.5-6.3c-0.4-0.3-0.7-0.8-1.1-1.3c0.1-1.2,0.4-2.3,0.5-3.4 c0.2-1.6,0.8-2.9,1.3-4.3c0.9-2.5,2.2-4.7,4.2-6.6c1.9-1.9,4-3.5,6.1-5.2c0.9-0.1,1.2-1.2,2.1-1.2c0.9,0,1.4-0.5,1.7-1.3 c0.5-1.3,1.3-2.3,1.6-3.7c0.1-0.5,0.4-0.9,1-1c0.5,0.3,0,1,0.6,1.4c0.5-0.5,1.1-1,1.5-1.6c0.3-0.5,0.9-0.7,1.3-1.1 c0.3-0.3,0.7-0.2,0.6,0.5c0,0.2-0.3,0.5,0.2,0.6c0.2,0,0.4-0.1,0.5-0.3c0.6-1.4,1.7-2.3,3.1-2.8c0.3-0.1,0.4-0.3,0.5-0.6 c0.9,0.2,1.8-0.1,2.6,0.4c1,0.5,1.3,0.4,1.9-0.7c0.4-0.7,0.8-1.5,1.5-2c1.7-1.1,3.2-2.7,5.1-3.5c1.4-0.5,2.7-1.4,4.2-1.6 c0.5,0,1.2,0.3,1.2-0.7c0-0.3,0-0.6,0-0.9c2-0.6,3.5-2,4.4-3.9c0.2-0.5,0.6-0.8,0.9-1.1c0.7-0.5,1.4-0.1,1.4,0.8 c0,0.5-0.2,1,0.3,1.4c1-2,2.4-3.3,4.6-3.7c0.3,0,0.6,0.1,0.9,0.1c-1.2,1.2-1.4,2.7-1.7,4.2c0.8-0.1,1.1-0.7,1.4-1.2 C281.7,180.4,282.9,179.8,284.2,179.3z"></path> <path class="st7" d="M262,196.6c2.1,0.2,3.1,1.7,3.8,3.4c0.1,0.3,0.1,0.7,0.3,1.1c1,1.6,0.7,3.3,0.1,4.9c-0.5,1.2-0.5,2.6-0.9,3.8 c-0.3,1-0.6,2-1.1,2.9c-0.1,0.2-0.2,0.5-0.2,0.7c0.1,0.4-0.1,0.8-0.3,1.2c-1.2,2.5-3.1,4.6-5,6.6c-0.8,0.8-1.3,1.8-1.4,2.9 c-0.3,3-1.9,5.2-4.1,7.1c-1.4,1.2-3.3,1.8-4.9,2.8c-0.7,0.5-1.9,0.2-2.8,0.2c-1.3-0.1-1.8-0.6-1.3-1.8c0.2-0.5,0.3-1.2,0.6-1.6 c0.5-0.9,0.7-1.9,1.4-2.8c0.6-0.8,1.5-1.6,1.7-2.6c0.2-0.9,0.6-1.7,0.9-2.5c0.5-1.8,0.6-3.9,0-5.7c-0.3-1-0.4-2.1,0-3 c0.4-0.8,0.4-1.6,0.5-2.4c0-0.4-0.1-0.9,0.1-1.3c0.6-1.4,1.2-2.8,1.8-4.2c0.4-1,1.1-1.9,1.6-2.8c0.7-1.4,1.4-2.6,2.6-3.6 c0.6-0.5,1.2-1.1,1.7-1.7c0.9-1.1,2.1-1.4,3.4-1.6C260.8,196.5,261.4,196.6,262,196.6z"></path> <path class="st7" d="M296.1,183.8c1.1,0.4,1.5,1.5,1.8,2.5c0.1,0.3,0.1,0.7,0.2,1.1c0.1,1.2,0.2,2.4-0.1,3.6c0,0.2,0.1,0.4,0.1,0.6 c0,0.2-0.1,0.4-0.1,0.6c-0.1,0.1-0.1,0.2,0,0.2c-0.7,3.7-2,7-4.5,9.8c-1.7,1.9-3.5,3.6-5.6,5c-1.1,0.7-2.4,0.9-3.5,1.4 c-1.1,0.5-2,1.2-2.5,2.4c-0.4,0.9-1,1.7-1.3,2.7c-0.3,0.9-1.1,1.5-1.8,1.9c-1.3,0.8-2.6,1.9-4.1,2.2c-2.3,0.5-4.9,0.8-6.6-1.6 c-0.1-2,0.5-3.7,2.2-4.8c0.9-0.5,1.6-1.2,2.3-1.9c0.5-0.5,0.9-1.1,1.5-1.4c1.9-1,3.3-2.6,4.7-4.2c0.6-0.7,1.2-1.6,1.7-2.4 c0.6-1.3,1.1-2.7,1.3-4.1c0.1-0.8,0.9-0.8,1-1.5c0.3-1.9,1.3-3.6,2-5.4c0.6-1.8,2-3,2.9-4.6c1.3-2,5.5-3.5,7.8-2.1 C295.7,184,295.9,183.9,296.1,183.8z"></path> <path class="st12" d="M196.1,198.8c0.8-0.4,1.2-1,1.2-1.9c0-0.9-0.1-1.9,0.5-2.7c0.3-0.5,0.1-1.2,0.2-1.9c1.8-0.6,3.5-1.3,5.1-2.3 c1.3-0.8,2.7-1.5,4.2-2.1c3.4-1.4,6.7-3.1,10.1-4.6c0.2,0.9,0,1.7-0.9,2.2c-0.6,0.3-1.2,0.8-1.8,0.9c-1.7,0.3-3.1,1.4-4.8,1.8 c-1.1,0.2-2.1,0.9-3.3,1c-0.5-0.1-0.7,0.1-0.7,0.6c-0.2,0-0.5,0.1-0.7,0.1c-0.1-0.2-0.2-0.4-0.4-0.3c-0.2,0.1-0.2,0.3-0.2,0.5 c-0.3,0.4-0.9,0.4-1.2,0.9c0.7,0.3,1.3,0.8,2,1.1c1.1,0.4,1.9-0.2,2.9-0.1c-0.7,0.5-1.5,1-2.1,1.7c-1.1,1.3-2.8,1.9-3.9,3.2 c-0.4,0.4-0.7,0.8-1,1.3c-0.2,0.3-0.5,0.6-0.2,0.9c0.3,0.4,0.5-0.1,0.8-0.2c0.1-0.1,0.4-0.1,0.4,0c0.5,0.9,2,0,2.4,1.2 c0.1,0.2,0.4,0.1,0.5-0.2c0.4-0.9,0.5-0.3,0.7,0.2c0.1,0.2,0.2,0.5,0.4,0.4c0.9-0.7,1.2,0.1,1.6,0.6c0.7,0.9,1.9,0.9,2.6,0.6 c0.8-0.3,0.9,0.2,1.3,0.4c0.5,0.3,0.7,1.1,1.4,0.8c0.5-0.2,0.6,0,1,0.2c0.8,0.4,1.6,0.5,2.4,0.5c0.9,0,1.3-0.8,1.6-1.3 c0.8-1.3,1.9-2.3,3-3.3c0.5,0.6,1.1,0.7,1.8,0.7c1.5,0,2.9-0.2,4.3-0.7l0.1,0.1c0,0.3-0.2,0.5-0.4,0.7c-1.9,2-3.3,4.3-4.5,6.8 c-0.3,0.6-0.5,1.4-1.2,1.8c-0.2-1.5-1.4-1.8-2.6-1.9c-0.7-0.1-1.4,0-2.1,0c-0.4,0-1.1-0.2-1.2,0.4c-0.2,0.7-0.7,1.4-0.1,2.1 c0.7,0.8,1.3,1.9,2.7,1.7c0.2,0,0.5,0,0.6,0.1c0.8,0.9,1.4,0.2,2.1-0.2c0.1,0.4,0,0.7-0.2,1.1c-0.5,1.1-0.9,2.3-1,3.4 c-0.1,1.4-0.2,2.8-0.7,4.2c-0.4,0-0.8-0.1-1.2-0.3c-1.9-1.2-3.8-2.3-5.7-3.4c-0.5-0.3-0.8-0.2-1.2,0.2c-1.1,1.1-1.2,1.1-2.6,0.3 c-1.7-0.9-3.2-2.1-4.7-3.4c-2-1.7-3.5-3.6-4.9-5.8c-0.1-0.1-0.3-0.1-0.4-0.1c0-0.5,0-0.9,0-1.4 C198.1,203.1,197.3,200.9,196.1,198.8z"></path> <path class="st9" d="M218.7,219.3c0.5-1.4,0.6-2.8,0.7-4.2c0.1-1.2,0.5-2.3,1-3.4c0.2-0.3,0.3-0.7,0.2-1.1c0-0.2,0.1-0.4,0.1-0.6 c0.5-0.1,0.6-0.5,0.5-1c0-0.2,0.1-0.4,0.1-0.6c0.7-0.4,0.9-1.2,1.2-1.8c1.2-2.5,2.7-4.7,4.5-6.8c0.2-0.2,0.3-0.4,0.4-0.7 c0.2-0.2,0.5-0.4,0.7-0.6c1.8-1.8,3.7-3.4,6.3-4c0.3-0.1,0.2-0.3,0.3-0.5c0.2,0,0.4,0,0.6-0.1c0.5,0.1,0.9,0.3,0.5,0.8 c-0.6,0.8-0.5,1.8-0.5,2.7c0,0.5,0,1.1,0,1.6c0,0.8,0.1,1.7,0,2.5c-0.2,1.2,0.5,2,1.5,2.2c1.1,0.3,0.5,0.8,0.5,1.3 c-2.1,1.7-4.2,3.3-6.1,5.2c-2,1.9-3.3,4.1-4.2,6.6c-0.5,1.4-1.1,2.8-1.3,4.3c-0.2,1.1-0.5,2.3-0.5,3.4c-2-1.3-3.8-2.7-5.7-4.2 C219.2,220.2,218.7,219.9,218.7,219.3z"></path> <path class="st3" d="M303.4,183.4c1.1,0,2.1,0,3.2,0.3c1.1,0.3,2.3,0.4,3.5,0.3c0.2,0,0.5-0.1,0.6,0c1.6,0.8,3.4,0.6,5.1,0.9 c1.7,0.3,3.4,1.1,5.2,1c1.2,0.9,2.8,0.3,4,1.1c0.2,0.2,0.6,0.1,0.9,0.1c0.5,0,1.1-0.1,1.5,0.4c0.1,0.1,0.4,0.2,0.6,0.2 c1.6-0.4,3.1,0.5,4.6,0.8c1,0.2,2.1,0.3,3,1.2c0.6,0.6,1.6,0.5,2.4,0.8c1,0.3,2.1,0.6,3.2,0.8c0.8,0.2,1.4,0.6,2.1,1 c0.7,0.4,1,1.9,0.6,2.6c-0.4,0.8-1.1,1.5-2.1,1.5c-0.9,0-1.8,0.3-2.6-0.5c-0.1-0.1-0.4-0.1-0.6-0.1c-1.5,0.1-2.8-0.6-4.2-1.1 c-0.2-0.1-0.5-0.1-0.8-0.1c-0.6,0-1.3,0-1.8-0.5c-0.1-0.1-0.3-0.1-0.4-0.1c-2.9-0.3-5.7-1.4-8.6-1.8c-3.1-0.4-6.2-1.1-9.4-1.5 c-2-0.2-4-0.5-6-0.8c-0.6-0.1-1,0.2-1.5,0.2c-0.2-1.5-1.3-2.7-1.6-4.2C304.1,185.1,303.3,184.4,303.4,183.4z"></path> <path class="st13" d="M296.1,183.8c-0.2,0.1-0.4,0.3-0.6,0.2c-2.3-1.4-6.5,0.2-7.8,2.1c-1,1.5-2.3,2.8-2.9,4.6 c-0.6,1.8-1.7,3.5-2,5.4c-0.1,0.7-0.9,0.7-1,1.5c-0.2,1.4-0.7,2.8-1.3,4.1c-0.4,0.9-1,1.7-1.7,2.4c-1.4,1.6-2.8,3.2-4.7,4.2 c-0.6,0.3-1,0.9-1.5,1.4c-0.7,0.7-1.4,1.3-2.3,1.9c-1.7,1-2.3,2.8-2.2,4.8c-0.8-0.7-1.9-0.9-2.5-1.8c0.2-1.8,1.4-2.9,2.5-4.2 c1.3-1.6,2.9-2.7,4.5-3.9c0.6-0.4,0.9-1.4,1.9-1.2c0.1,0,0.2-0.2,0.3-0.4c0.1-0.8,0.7-1.2,1.2-1.6c1.4-1.3,2.4-3,3.1-4.7 c0.3-0.8,0.5-1.7,0.8-2.5c1-3.1,2.2-6.2,4.1-8.9c0.6-0.9,1.2-1.8,2-2.6c1.5-1.4,3.2-2.2,5.3-2.2c0.5,0,1-0.1,1.4-0.3 C293.8,182.4,295.3,182.5,296.1,183.8z"></path> <path class="st13" d="M262,196.6c-0.6,0-1.2,0-1.8,0c-1.3,0.1-2.5,0.4-3.4,1.6c-0.5,0.6-1.1,1.2-1.7,1.7c-1.1,1-1.9,2.2-2.6,3.6 c-0.5,1-1.2,1.8-1.6,2.8c-0.5,1.4-1.2,2.8-1.8,4.2c-0.1,0.4,0,0.8-0.1,1.3c-0.1,0.8,0,1.6-0.5,2.4c-0.4,0.9-0.4,2,0,3 c0.6,1.7,0.5,3.8,0,5.7c-0.2,0.9-0.7,1.6-0.9,2.5c-0.2,1-1.1,1.8-1.7,2.6c-0.7,0.9-0.9,1.9-1.4,2.8c-0.3,0.4-0.4,1.1-0.6,1.6 c-0.5,1.1-0.1,1.6,1.3,1.8c-1.3,0.8-3.3,0.8-4.3,0c0.5-1.3,0.8-2.7,1.3-4c0.6-1.4,1.6-2.4,2.1-3.8c0.5-1.4,1.2-2.7,1.8-4 c0.2-0.4,0.2-0.8,0.2-1.3c0-2,0.1-4,0-5.9c-0.3-4,1.1-7.6,2.8-11.1c1.2-2.4,3.1-4.4,4.7-6.5c1.3-0.5,2.2-1.9,4-1.6c1,0.2,2,0,3,0 C261.5,195.9,261.9,196,262,196.6z"></path> <path class="st4" d="M298.1,191.5c0-0.2-0.2-0.4-0.1-0.6c0.3-1.2,0.2-2.4,0.1-3.6c0.3,0,0.7,0.1,0.7,0.5c0,1.1,0,2.1,0,3.2 C298.8,191.3,298.5,191.4,298.1,191.5z"></path> <path class="st4" d="M190.6,212.6c1.1,0,2.1,0,3.2,0c-0.8,1.1-1.9,0.5-2.9,0.5C190.7,213.1,190.6,212.8,190.6,212.6z"></path> <path class="st3" d="M333.4,257.4c0.4,0,0.6,0.2,0.6,0.7C333.6,258,333.4,257.8,333.4,257.4z"></path> <path class="st4" d="M298,192.4c-0.1-0.1-0.1-0.2,0-0.2C298,192.2,298.1,192.2,298,192.4C298.1,192.3,298,192.3,298,192.4z"></path> <path class="st7" d="M177.9,98.5c-0.7-1-1.3-2-2.1-2.9c-0.5-0.6-0.6-1.2-0.6-1.9c0-1.6,0.1-1.4,1.6-1.9c1.7-0.6,3.5-0.2,5.1-1.1 c0.3-0.1,0.6-0.1,0.9-0.1c5-0.1,9.9-0.4,14.9,0.1c2,0.2,4.1,0.1,6,1c0.2,0.1,0.4,0.1,0.6,0.1c1.7-0.2,3.2,0.5,4.8,0.8 c2.6,0.5,5.1,1.4,7.7,2.2c2.4,0.7,4.8,1.5,7.1,2.4c0.5,0.2,1.1,0.3,1.6,0.1c1.6-0.4,3.3-0.4,4.9-0.5c2.6-0.1,5.3,0,7.8,0.9 c1.1,0.4,2.3,0.5,3.5,0.8c1.2,0.3,2.4-0.1,3.3-0.7c1.7-1.2,3.7-1.6,5.5-2.5c1.7-0.8,3.5-1.1,5.2-2c0.8-0.4,1.8-0.7,2.8-0.9 c1.2-0.2,2.3-0.7,3.5-1c1.2-0.3,2.4-0.7,3.6-1c1.6-0.4,3.3-0.4,4.9-1.1c0.9-0.4,1.9-0.4,2.8-0.5c0.3,0,0.5,0,0.8,0 c3.3-0.5,6.6-0.9,9.9-1c0.7,0,1.4,0.1,2.1-0.1c0.2,0,0.4,0,0.6,0c0,0,0.1,0.1,0.1,0.1l0.1,0c2.4,0.4,4.9,0.3,7.2,0.9 c1.7,0.4,1.7,0.4,1.8,1.9c-0.4,0.3-0.6,0.7-0.4,1.2c-0.3,1.2-1.1,2.2-1.8,3.2c-0.2,0.3-0.3,0.5-0.4,0.8c-1.5-0.3-3.1-0.6-4.6-0.9 c-1.2-0.6-2.5-1-3.9-1c-2.1-0.9-4.2-1-6.5-1c-2,0.1-4,0.1-6,0c-1.5,0-2.9,0.2-4.2,0.9l0,0c-1.9-0.3-3.7,0.6-5.5,0.9 c-0.6-0.3-1,0.2-1.5,0.3c-2.1,0.3-4.2,1.1-6.2,1.8c-1.2,0.4-2.3,1.1-3.6,1.5c-2.1,0.6-4.1,1.6-6,2.6c-0.4,0-0.7,0.3-1,0.5 c-1,0.6-1.9,1.2-3.1,1.2c-1.5-0.6-3.2-0.5-4.6-1.5c-0.2-0.1-0.5-0.1-0.8-0.1c-2.8,0-5.8-0.5-8.5,0.9c-1.2-0.5-2.3-1-3.5-1.5 c-0.2,0-0.4-0.1-0.5-0.1c-0.1-0.2-0.1-0.4-0.2-0.4c-2-0.7-4-1.5-6-2c-0.8-0.2-1.4-0.7-2.2-0.8c-1.4-0.3-2.8-0.7-4.2-1 c-1.8-0.3-3.6-0.9-5.5-0.9c-0.4-0.2-0.9-0.1-1.3-0.1c-0.4-0.2-0.8-0.3-1.3-0.1c-0.2,0-0.3,0-0.5,0c-0.2-0.4-0.6-0.4-1-0.4 c-2.4,0-4.8,0-7.1,0c-0.4,0-0.9,0-1.1,0.5c-0.4,0-0.8,0-1.2,0.1c-0.2-0.1-0.4-0.1-0.6-0.1c-1.6,0.1-3.2,0.5-4.9,0.7 c-1.2,0.2-2.3,0.8-3.5,0.9c-0.1,0-0.3,0.3-0.4,0.5c-0.7,0-1.4,0.1-2.1,0.5C179.7,98.1,178.9,98.7,177.9,98.5z"></path> <path class="st14" d="M289.2,31.3c1,0.3,1.7,1,2,2c0.5,1.3,0.8,2.7,0.9,4.2c0.1,3.6-0.3,7.1-1.3,10.5c-1,3.4-2.5,6.6-3.7,9.9 c-0.1,0.2-0.4,0.5-0.5,0.8c-1.2-0.5-1.7-1.7-2.6-2.4c-1.9-1.7-3.7-3.5-5.9-5c-0.8-0.5-1.6-1-2.2-1.7c-0.7-0.8-1.7-1-2.6-1.5 c-0.5-0.4-0.8-0.5-0.4-1.3c1.1-2.3,2.8-4.3,4.1-6.4c0.4-0.6,1.2-1.1,1.7-1.7C281.4,35.5,285.2,32.9,289.2,31.3z"></path> <path class="st13" d="M288.6,95c1.5,0.3,3.1,0.6,4.6,0.9c0.2,1.2,0.1,2.4,0.6,3.6c0.3,0.6,0.2,1.4-0.2,2.5c-0.4-1.2-0.6-2-1.3-2.7 c-0.7,1.2-0.9,2.6-1.5,3.8c-0.9,1.8-1.7,3.7-2.6,5.5c-0.2,0.5-0.5,0.9-0.4,1.5c-0.5,0-0.8,0.3-1,0.6c-1.4,2-2.9,4-4.3,5.9 c-0.6-0.1-1,0.4-1.1,0.7c-1,1.5-2.5,2.2-3.8,3.2c-1,0.7-1.8,1.4-2.8,2.1c-1.2-0.2-2.1,0.5-3,1c-0.3,0.2-0.6,0.4-1,0.3 c-0.2,0.1-0.4,0.4-0.7,0.4c-1.4,0.1-2.7,1-4.1,0.9c-0.3,0-0.7-0.1-1,0.3c-0.4,0.4-0.9,0.4-1.3,0.4c-2.3,0.2-4.7,0.2-7,0.1 c-0.5,0-1.1,0-1.5-0.5c-0.2-0.3-0.5-0.2-0.7-0.2c-1.9-0.1-3.4-1.1-4.9-1.9c-0.1-0.1-0.3-0.1-0.5-0.1c-0.9-0.8-1.8-1.6-2.6-2.5 c-1.5-1.7-2.5-3.6-3.3-5.8c-0.4-1.2-0.4-2.4-1.1-3.5c-0.3-0.5-0.4-1.1-0.4-1.7c-0.1-1.2,0.3-2.4-0.5-3.5c-0.1-0.1,0-0.4,0.1-0.6 c0.3-1,0.1-1.9-0.2-2.8c1.2,0,2.2-0.6,3.1-1.2c0.3-0.2,0.5-0.5,1-0.5c0,0.9,0,1.7,0,2.6c0,1.1-0.3,2.3,0.2,3.3c0.8,1.9,0.4,4,1,6 c0.8,2.9,1.8,5.4,4.2,7.3c0.9,0.7,1.8,1.6,3.1,1.9c1.3,0.3,2.6,0.8,3.9,0.9c1.6,0.2,3.3,0,5,0c0.4,0,0.8,0.1,1.1-0.2 c0.5-0.5,1.2-0.5,1.8-0.4c1.4,0.2,2.6-0.4,3.8-0.8c1.9-0.7,3.6-1.8,5.4-2.7c1.7-0.9,2.6-2.7,4.4-3.6c0.5-1.3,1.6-2.1,2.4-3.1 c1.5-2,2.8-4.1,3.7-6.5c0-0.2,0-0.4,0.1-0.6c0.4-0.2,0.7-0.5,0.6-1c-0.1-0.8,0.7-1.2,0.7-1.9c0.1-0.6,0.2-1.1,0.4-1.7 c0.4-1,0.7-2.1,0.9-3.1C288,96.7,288.2,95.8,288.6,95z"></path> <path class="st13" d="M223.9,100.5c1.2,0.5,2.3,1,3.5,1.5c0.2,4,0.2,8-1.4,11.9c-1,2.4-1.9,4.7-3.9,6.5c-1.9,1.7-3.8,3-6.3,3.5 c-0.3,0.1-0.4,0.3-0.5,0.5c-1.9,0.2-3.8,0.3-5.7,0.3c-1.9,0-3.8,0.1-5.7-0.3c-2.7-0.6-5.6-1.2-8-2.6c-2.2-1.3-4.6-2.5-6.3-4.5 c-0.3-0.4-0.8-0.9-1.5-0.8c-0.2-1.4-1-2.2-2.3-2.6c0-0.7-0.6-1-1-1.6c-1.3-2.1-2.7-4-3.7-6.2c-0.6-1.4-1.5-2.7-1.8-4.3 c-0.1-0.5-0.7-0.7-0.6-1.3c0.1-0.7,0-1.4-0.9-1.4c0-0.2,0.1-0.4,0.1-0.6c1,0.2,1.8-0.4,2.5-0.8c0.7-0.4,1.4-0.5,2.1-0.5 c0,1.2,0.6,2.4,0.9,3.5c0.2,0.8,0.4,1.7,0.8,2.5c0.8,1.8,1.6,3.7,2.6,5.4c1.2,2,2.4,4.1,4.1,5.8c2.3,2.4,4.9,4.4,8.1,5.6 c2.8,1,5.5,2.1,8.6,1.9c1-0.1,1.9,0,2.9,0c1.8-0.1,3.5,0,5.2-0.8c2.3-1,4.4-2.1,5.7-4.3c1-1.6,1.7-3.3,2-5.2 c0.1-1.7,0.2-3.4,0.4-5.1C224,104.6,223.8,102.6,223.9,100.5z"></path> <path class="st14" d="M161.9,69.1c-1.7-1.9-3.4-4-5-5.9c-0.8-0.9-1.3-2-2-2.9c-2.1-2.8-3.7-5.9-5.3-9c-1.2-2.4-2.3-4.8-2.3-7.6 c0-0.6,0.1-1.3,0.1-1.9c0-0.4,0.3-0.6,0.6-0.6c0.1,0.8,0.6,1.5,1.1,2c2.7,3.2,5.6,6.2,8.9,8.8c2.8,2.2,5.9,4.1,9.3,5.3 c1.9,0.7,3.7,1.4,5.7,1.3c0.4,0,0.9-0.1,1,0.5c0.1,0.5-0.3,0.5-0.6,0.8c-2.7,2-5.9,3.5-8.3,6c-0.9,1-1.5,2.1-2.3,3.2 C162.4,69.1,162.2,69.1,161.9,69.1z"></path> <path class="st13" d="M237.4,66.8c-0.2,2.5,0.2,4.2-0.6,5.9c-0.3,0.6-0.1,1.4-0.1,2.1c-0.1,1.2,0.2,2.4-0.5,3.6 c-0.2,0.4-0.1,1-0.1,1.6c0,0.5-0.1,0.8-0.5,1.1c-0.3,0.2-0.5,0.3-0.7-0.1c-1-1.7-1.7-3.6-2.1-5.5c-0.3-1.4-0.7-2.9-0.9-4.3 c-0.3-1.7-0.2-3.5-0.7-5.1c-0.8-2.7-0.6-5.4-0.4-8c0.2-2.2,0.2-4.4,0.6-6.6c0.2-1.1,0.5-2.1,0.5-3.2c0-0.5,0.4-0.8,0.8-0.9 c0.4-0.1,0.4,0.4,0.5,0.7c0.5,1.3,1,2.8,1.6,4c0.6,1.2,0.2,2.6,1,3.8c0.2,0.3,0.1,0.9,0.1,1.4c0,0.6-0.1,1.2,0.4,1.7 c0.1,0.1,0.2,0.4,0.2,0.6C236.4,62.1,237.8,64.8,237.4,66.8z"></path> <path class="st13" d="M225.9,80.9c-0.6-1.8-1.2-3.6-1.7-5.4c-0.4-1.5-1-3-1-4.6c0-0.8-0.1-1.6-0.4-2.3c-0.5-1.1-0.2-2.3-0.3-3.5 c-0.1-0.9,0.1-1.9-0.5-2.8c-0.2-0.3-0.2-1.1,0-1.4c0.8-1.1,0.5-2.3,0.5-3.4c0.1-1,0-2,0-3c0-0.6,0-1.3,0.4-1.9 c0.3-0.5,0.3-1,0.3-1.6c-0.1-1.3,0.4-2.4,0.9-3.7c0.9,0.9,0.9,2.1,1.4,3c0.4,0.8,0.1,1.7,1,2.4c0.5,0.5,0.3,1.7,0.7,2.5 c0.4,1,0.5,2.3,0.6,3.4c0.2,1.9,0.9,3.8,0.9,5.8c-0.1,2.3,0,4.7,0,7c0,1.3,0.2,2.7-0.5,3.9c0,0,0,0.1,0,0.2 c0.2,1.9-0.6,3.7-0.8,5.6C226.9,81.2,226.4,81,225.9,80.9z"></path> <path class="st13" d="M157.5,89.9c-0.7-1.8,0.1-3.1,0.5-4.4c0.6-1.8,1.3-3.6,2.6-5.1c1.4-1.8,3.2-3.1,5.4-4c2.4-1,4.9-1.4,7.5-1.2 c0.7,0,1.4-0.1,2,0.4c0.2,0.2,0.7,0.2,1.1,0.2c1.7-0.2,3,0.9,4.4,1.4c0.5,0.2,0.3,0.6,0,0.9c-0.4,0.3-0.9,0.3-1.4,0.3 c-1.8-0.1-3.6,0.1-5.4,0.4c-2,0.3-3.9,0.9-5.8,1.4c-2.3,0.6-4.2,2.1-6.3,3.2c-0.8,0.4-1.5,1.1-1.9,1.9 C159.3,86.8,158,87.9,157.5,89.9z"></path> <path class="st13" d="M295.9,90.7c-0.1-1.5-0.1-1.5-1.8-1.9c-0.1-0.5-0.4-1-0.8-1.4c-1.6-1.9-3.7-3.2-5.9-4.3 c-3.4-1.6-7-2.5-10.6-3.2c-0.7-0.1-1.5,0-2.2-0.1c-0.3,0-0.6-0.2-0.6-0.6c0-0.3,0.2-0.5,0.5-0.5c1.6-0.4,3.1-1,4.8-1 c2.7,0,5.3-0.3,7.9,0.6c2.9,1,5.3,2.4,7,5.1c0.9,1.3,1.6,2.7,2.1,4.2c0.5,1.7,0.8,3.4,1,5.4c-0.8-0.3-0.5-1.3-1.3-1.2 C295.9,91.5,295.9,91.1,295.9,90.7z"></path> <path class="st13" d="M162.1,94.4c-0.1,0.1-0.2,0.2-0.3,0.4c-0.4,0-0.6,0.2-0.6,0.7c0,0.1,0,0.2,0,0.3c-0.9-0.1-0.5-0.8-0.6-1.3 c0-0.4,0.1-0.8,0.1-1.3c0.4-0.1,0.5-0.3,0.5-0.7c0.8-2.7,2.7-4.5,4.8-6.2c1.6-1.3,3.5-1.7,5.4-2.4c0.2-0.1,0.5-0.1,0.8-0.1 c1.8,0,3.6-0.2,5.3,0.1c2.1,0.3,4.3,0.6,6.1,2c0.1,0.1,0.2,0.2,0.3,0.4c-0.5,0.6-1.2,0.3-1.8,0.4c-0.6,0.1-1.2,0.3-1.9,0.3 c-3.8,0.2-7.5,0.8-11,2.3c-1.4,0.6-2.8,1.1-3.9,2.2c-0.2,0.3-0.6,0.4-0.9,0.6c-1.3,0.8-1.3,0.8-1.9,1.9 C162.3,94.2,162.2,94.3,162.1,94.4z"></path> <path class="st13" d="M259.4,74.7c-0.1,2.8-1.6,4.6-3.9,6c-2.3,1.3-2.4,0.3-2.4-1.6c-0.1-3.1,1.3-5.4,4.3-6.6 c1.2-0.5,1.9-0.2,2.1,1.1C259.4,73.9,259.4,74.3,259.4,74.7z"></path> <path class="st13" d="M251.3,72c0.4,1.3-0.1,2.5-0.7,3.3c-0.9,1.2-2,2.3-3.4,3c-0.6,0.2-1.2-0.2-1.2-0.8c0-0.8-0.3-1.6-0.3-2.4 c-0.1-1.3,0.2-2.5,0.9-3.6c0.7-1.1,1.7-1.9,2.6-2.7c0.7-0.6,1.3-0.3,1.5,0.5C251.1,70.2,251.8,71,251.3,72z"></path> <path class="st13" d="M215.6,78c0,0.9,0.1,2-0.6,2.5c-0.8,0.6-1.7-0.3-2.4-0.8c-1.9-1.2-2.8-3.1-3.3-5.2c-0.2-1,0.5-1.9,0.7-2.9 c0.1-0.3,0.4-0.3,0.7-0.1C213.7,72.8,215.6,74.5,215.6,78z"></path> <path class="st13" d="M208.8,83.1c0,1.3-0.7,1.8-1.9,1.3c-0.9-0.4-1.8-0.9-2.7-1.3c-0.2-0.1-0.3-0.3-0.5-0.4 c-1.1-1.7-2.3-3.3-2-5.5c0.1-1,0.2-0.9,1.2-0.8c1.1,0.2,2,0.6,3,1.2C208.1,78.8,208.7,80.8,208.8,83.1z"></path> <path class="st13" d="M215.3,88.3c-0.2-1.2,0.2-2.2,0.6-3.2c0.2-0.7,0.6-0.7,1.1-0.4c3,1.4,4.5,5.2,3.3,8.3c0,0.1-0.1,0.2-0.1,0.3 c-0.2,0.4,0,1.1-0.6,1.1c-0.6,0.1-1.1-0.2-1.4-0.6c-0.8-1-1.9-1.8-2.5-3.1C215.3,89.9,215.4,89.1,215.3,88.3z"></path> <path class="st13" d="M217.1,62.7c0.4,1.3-0.4,2.4-0.8,3.6c-0.3,1.1-1.2,1.2-2,0.3c-2.8-2.9-3-5.8-1.1-9c0.5-0.8,1-0.9,1.6-0.1 c0.4,0.7,1,1.2,1.5,1.8C217.1,60.2,217.3,61.4,217.1,62.7z"></path> <path class="st13" d="M246.9,60.2c-0.1,1.8-0.9,3.3-2.1,4.7c-0.3,0.4-0.6,0.2-0.9,0c-2.2-1.9-2.8-5.1-1.4-7.7 c0.5-0.9,0.9-2.1,1.7-2.1c1,0,1.4,1.2,1.9,2.1C246.4,57.7,246.9,59.4,246.9,60.2z"></path> <path class="st13" d="M246.6,86.8c0.3,2.5-1.1,4-2.6,5.5c-0.4,0.4-0.9,0.4-1.1,0c-0.4-0.7-1.2-1.2-1.1-2.2c0.1-1-0.2-1.9-0.1-3 c0.1-1.7,1.3-2.7,2.2-3.8c0.7-1,1.5-0.8,2.1,0.3C246.4,84.6,247,85.7,246.6,86.8z"></path> <path class="st13" d="M286.1,87.9c-0.7,0.2-1.4,0.1-2.1,0.1c-3.3,0-6.7,0.4-9.9,1c-0.3,0-0.5,0-0.8,0c-0.4-1.2-1.6-0.7-2.6-1.2 c0.6-0.8,1.4-1.1,2.1-1.3c3.6-0.9,7.2-1,10.8,0C284.5,86.7,285.5,87,286.1,87.9z"></path> <path class="st12" d="M160.5,94.4c0.1,0.5-0.2,1.2,0.6,1.3c-0.5,0.9-0.5,2.1-1.6,2.7c-0.1-0.1-0.3-0.2-0.3-0.2 c0.2-1.2,0.7-2.3,0.7-3.5C160,94.5,160.3,94.5,160.5,94.4z"></path> <path class="st12" d="M225.9,80.9c0.5,0.1,1,0.2,1.4,0.3c0.1,0.4,0.1,0.7-0.2,1.2C226.7,82,225.6,82.1,225.9,80.9z"></path> <path class="st11" d="M161.9,69.1c0.3,0,0.5,0,0.8,0c0,1.4,0,1.4-0.9,1.6C161.8,70.2,161.8,69.6,161.9,69.1z"></path> <path class="st11" d="M295.9,90.7c0,0.4,0,0.8,0,1.1c-0.1,0-0.3,0-0.4,0C295.3,91.4,295.6,91,295.9,90.7z"></path> <path class="st12" d="M161.1,92.5c0,0.4-0.2,0.6-0.5,0.7C160.5,92.7,160.7,92.5,161.1,92.5z"></path> <path class="st12" d="M161.2,95.4c0-0.4,0.2-0.7,0.6-0.7C161.8,95.1,161.5,95.3,161.2,95.4z"></path> <path class="st13" d="M286.9,87.9l-0.1,0c0,0-0.1-0.1-0.1-0.1C286.8,87.8,286.8,87.8,286.9,87.9z"></path> <path class="st12" d="M162.1,94.4c0.1-0.1,0.2-0.2,0.3-0.3C162.4,94.3,162.3,94.4,162.1,94.4z"></path> <path class="st11" d="M92.5,308c-0.3,1-1.3,1.3-2,1.8c-1,0.9-2,1.9-3.4,2.4c0.8-1.2,2-2,3.2-2.9C91,308.8,91.5,307.9,92.5,308z"></path> <path class="st11" d="M87.1,312.2c-0.4,0.9-1.2,1.4-2,1.8c-0.2-0.7,0.7-0.9,0.8-1.4C86.4,312.6,86.7,312,87.1,312.2z"></path> <path class="st4" d="M187.7,341.3c0,0.4-0.2,0.9-0.6,0.8c-3.3-0.2-6.6,0.3-9.9,0c-1-0.1-2.1-0.2-3.1-0.2c-0.4,0-0.7-0.2-0.8-0.6 C178.1,341.3,182.9,341.3,187.7,341.3z"></path> <path class="st1" d="M215.2,124.5c0.1-0.3,0.2-0.5,0.5-0.5c2.5-0.4,4.4-1.8,6.3-3.5c2.1-1.8,3-4.1,3.9-6.5 c1.6-3.8,1.6-7.8,1.4-11.9c2.7-1.4,5.6-0.9,8.5-0.9c0.3,0,0.6,0,0.8,0.1c1.4,1,3.1,0.9,4.6,1.5c0.2,0.9,0.5,1.9,0.2,2.8 c-0.1,0.2-0.1,0.5-0.1,0.6c0.8,1.1,0.4,2.4,0.5,3.5c0,0.6,0.1,1.1,0.4,1.7c0.6,1.1,0.6,2.3,1.1,3.5c0.8,2.1,1.8,4,3.3,5.8 c0.8,0.9,1.7,1.7,2.6,2.5c-1.5,0.5-3.1,0.5-4.5,1.2c-0.3,0.1-0.6,0.1-0.9,0.1c-0.8-2-2.4-3-4.3-3.2c-3.9-0.2-7.8-0.2-11.6,0 c-1.4,0.1-2.7,0.7-3.5,2.2c-0.4,0.8-0.2,1.7-0.8,2.4c-1.1-0.1-2.3,0.1-3.3-0.7c0,0-0.1,0-0.2,0 C218.4,125.4,216.9,124.6,215.2,124.5z"></path> <path class="st2" d="M250.8,142.6c-0.1,0.3-0.2,0.5-0.4,0.7c-2.1,1.3-3.9,3-6.1,4.2c-1,0.5-1,1-0.3,2c1.1,1.5,2.6,2.8,3.5,4.5 c1.2,2.3,2.4,4.5,2.4,7.2c0,0.4,0.1,0.8,0.3,1.2c0.4,0.8,0.5,1.6,0,2.4c-0.4,0.6-0.1,1.1,0,1.7c-0.3,0.2-0.4,0.4-0.3,0.7 c0,0.3-0.1,0.7-0.1,1c-0.3,0-0.6,0.2-0.6,0.6c0,0.4,0,0.9,0,1.3c0,0.4,0,0.8,0,1.2c-0.4,1.1-0.5,2.2-0.8,3.2 c-0.4,1.4-0.3,2.8-0.9,4.1c-0.4,0.7-0.2,1.6-0.2,2.4c0,0.3,0,0.6,0,1c0,0.6-0.2,1.2-0.8,1.4c-0.6,0.2-0.8-0.4-1.1-0.8 c-1.7-2.5-3.4-5-4.4-8c-0.4-1.1-0.5-2.1-0.5-3.2c0-2.8,0-5.5,0-8.3c0-1.3,0.1-2.7-0.5-3.9c-0.1-0.1-0.1-0.3-0.1-0.5 c0.3-2-0.6-3.9-0.7-5.8c0-0.9-0.4-1.4-1.4-1.4c1.5-0.5,3-1.2,4.2-2.3c1.1-0.9,1.1-1.6,0-2.6c-0.3-0.3-0.9-0.5-0.9-1.2 c0.1-0.3,0.1-0.5,0.2-0.8c0.5,0,1-0.1,1.5-0.1c0.8,0.4,1.4,0.1,2-0.6c0.4,0,0.8,0,1.1-0.1c0.6,0.2,1.1-0.1,1.4-0.6 c0.3,0,0.6-0.1,0.9-0.1c0.7,0.4,1.2,0,1.6-0.5C250.2,142.6,250.5,142.6,250.8,142.6z"></path> <path class="st14" d="M223.6,125.9c0.6-0.7,0.3-1.6,0.8-2.4c0.8-1.5,2.1-2.2,3.5-2.2c3.9-0.2,7.8-0.2,11.6,0 c1.9,0.1,3.5,1.2,4.3,3.2c0,0.2,0,0.3,0,0.5c0,1.8-1,3-2.7,3.2c-2,0.2-3.1,1.4-3.9,3c-0.2,0.5-0.5,0.9-0.9,1.3 c-1.8,1.3-4.4,0.9-5.7-0.9c-0.2-0.3-0.6-0.5-0.7-0.8c-0.6-1.6-1.9-2.3-3.6-2.4C224.9,128.2,224.2,127.1,223.6,125.9z"></path> <path class="st9" d="M241.3,144.6c-0.1,0.3-0.1,0.5-0.2,0.8c-0.4,0.1-0.8,0.1-1.2,0.3c-0.7,0.4-1.3,1-2.1,0.9c-1.1-0.1-2,0.5-2.9,1 c-0.5,0.2-1,0.4-1.5,0.4c-0.8-0.1-1.4,0.3-2,0.7c0.1-2,0.1-2-2-2c-1.2,0-2.4,0-3.7,0c0.2-0.7,0.7-0.6,1.2-0.6c1.8,0,3.6-0.2,5.4,0 c1.5,0.1,2.8-0.7,4.3-0.8c1.3-0.1,2.5-0.1,3.7-0.7C240.6,144.3,241,144.4,241.3,144.6z"></path> <path class="st9" d="M244.8,143.9c-0.5,0.6-1.1,0.9-2,0.6C243.3,143.8,244,143.7,244.8,143.9z"></path> <path class="st9" d="M249.9,142.6c-0.4,0.5-0.9,1-1.6,0.5C248.6,142.4,249.2,142.4,249.9,142.6z"></path> <path class="st9" d="M247.3,143.3c-0.3,0.5-0.8,0.8-1.4,0.6C246.3,143.3,246.7,143.1,247.3,143.3z"></path> <path class="st12" d="M246.6,190.2c-0.5-0.4-0.9-0.8-0.5-1.4c1-1.5,1.5-3.2,2.3-4.7c0.6-1.1,1.4-2,2-3c0.8-1.2,1.8-2.3,2.6-3.5 c0.4-0.5,0.7-1.1,1.5-1.1c-0.1,0.8,0,1.7,0.8,2.1c0.9,0.5,1.8,1,3,0.9c1.2-0.1,2.3,0,3.5,0c-0.7,1-1.9,1.5-2.7,2.4 c-1.3,1.3-2.6,2.6-3.9,3.8c-0.1-0.4-0.2-0.7-0.7-0.7c-1.5-0.1-2.9,0.1-4.2,0.6c-0.6,0.2-0.9,1.4-0.4,1.7c1,0.7,1.7,2,3.3,1.5 c-0.6,1.4-1.4,2.6-1.9,4.1c-0.3,0.2-0.6,0.4-0.9,0.6c-0.2,0.1-0.5,0.2-0.7,0c-0.3-0.2-0.1-0.5,0-0.7c0.2-0.6,0.1-1.1,0.1-1.7 c0-0.4-0.2-0.6-0.6-0.6c-0.2,0-0.4-0.1-0.6-0.1c-0.1-0.4-0.1-0.8-0.7-0.8c-0.6,0-0.6,0.4-0.7,0.8 C247,190.1,246.8,190.1,246.6,190.2z"></path> <path class="st12" d="M235.4,199.1c0-0.5,0-1.1,0-1.6c0-0.9-0.1-1.9,0.5-2.7c0.4-0.5,0-0.7-0.5-0.8c0.2-0.8,0.8-0.9,1.5-0.9 c0.8,0,1.5-0.3,2.2-0.8c-0.3-0.9-1.1-0.8-1.7-1c-1.4-0.3-2.8-0.5-4.2,0.3c-0.7,0.4-0.8,1-0.3,1.7c0.5,0.7,1.3,0.7,2,0.7 c-0.1,0.2-0.1,0.4-0.3,0.5c-2.6,0.6-4.5,2.2-6.3,4c-0.2,0.2-0.5,0.4-0.7,0.6c0,0-0.1-0.1-0.1-0.1c0.3-1.3-0.2-2-1.3-2.7 c-0.7-0.5-1.4-0.4-2.1-0.4c0.4-0.9,1.4-1.1,2.1-1.7c1.8-1.8,4.2-2.8,6.6-3.5c1.6-0.4,3.3-0.3,4.9-0.1c1.5,0.1,3,0.6,4.4,1.1 c0.6,0.2,1.2,0.5,1.5,1.1c0,0.4-0.1,0.8-0.1,1.2c-0.4,0.1-0.6,0.3-0.6,0.7c-0.3,1-0.8,1.6-1.8,2c-1.5,0.5-2.8,1.4-4,2.3 C236.4,199.3,236,199.3,235.4,199.1z"></path> <path class="st10" d="M243.4,194c0-0.4,0.1-0.8,0.1-1.2c0.3,0,0.7-0.2,0.8-0.4c0.5-1,1.5-1.5,2.3-2.2c0.2,0,0.4-0.1,0.6-0.1 c0.5,0.1,0.9,0.1,1.4,0c0.2,0,0.4,0.1,0.6,0.1c0,0.4,0.2,0.6,0.6,0.6c0,0.6,0.1,1.1-0.1,1.7c-0.1,0.2-0.3,0.5,0,0.7 c0.2,0.2,0.5,0.1,0.7,0c0.3-0.2,0.6-0.4,0.9-0.6c0,0.6,0.7,0.8,0.7,1.4c-0.1,0.3-0.2,0.5-0.5,0.6c-1.4,0.5-2.5,1.4-3.1,2.8 c-0.1,0.2-0.2,0.4-0.5,0.3c-0.4-0.1-0.2-0.4-0.2-0.6c0.1-0.6-0.3-0.7-0.6-0.5c-0.4,0.4-1,0.5-1.3,1.1c-0.4,0.6-1,1.1-1.5,1.6 c-0.6-0.4-0.1-1-0.6-1.4c-0.6,0-0.9,0.5-1,1c-0.3,1.3-1.1,2.4-1.6,3.7c-0.3,0.8-0.8,1.4-1.7,1.3c-1,0-1.3,1.1-2.1,1.2 c0-0.5,0.6-1-0.5-1.3c-1-0.2-1.7-1-1.5-2.2c0.1-0.8,0-1.7,0-2.5c0.6,0.2,1,0.2,1.6-0.2c1.3-0.9,2.5-1.8,4-2.3c1-0.3,1.6-1,1.8-2 C243.3,194.6,243.4,194.4,243.4,194z M245.2,194c-0.7,0.2-0.7,0.8-1,1.3c-0.1,0.2-0.2,0.4,0,0.5c0.2,0.1,0.4,0.2,0.6,0.1 c0.5-0.2,1-0.6,1.1-1.2c1.2-0.2,1.5-1.4,2.2-2.1c0.3-0.3,0.4-0.6,0-1c-0.3-0.3-0.7-0.3-1-0.1C246.4,192.3,245.4,192.8,245.2,194z M241.3,198.9c-0.4,0.1-0.5,0-0.6,0.1c-1.2,0.6-2.2,1.5-3,2.5c-0.3,0.3-0.5,0.9,0.1,1.1c0.6,0.2,1.5,0.3,2-0.2 C240.5,201.5,240.9,200.3,241.3,198.9z"></path> <path class="st10" d="M223.2,172.5c-0.1-0.7-0.6-0.6-1.1-0.6c-1.7,0-3.3-0.1-5,0c-1.4,0.1-2.3-0.5-3-1.4c-0.8-1.2-1.7-2.2-2.4-3.3 c-0.3-0.4-0.4-0.7-0.1-1.1c0.5-0.6,0.3-1.1,0-1.7c-0.5-1-0.2-2.2,0-3.4c0.3,1,1.2,1.8,1,2.8c-0.2,1.9,0.8,3.3,1.7,4.8 c0.8,1.2,1.7,1.6,3,1.5c1-0.1,2-0.1,3.1-0.5c1.2-0.4,2.6-0.3,3.9-0.4c1.7-0.2,2-0.4,2.3-2c0.1-0.6,0.5-1.2,0.7-1.7 c0.7-1.4,0.5-2.8,0.6-4.2c0-0.2,0-0.4,0.2-0.6c1,1.4,0.3,6.9-1.3,10.4c0.2,0.2,0.5,0.3,0.7,0.1c1.1-0.6,2.3-0.9,3.5-1.2 c0.8-0.1,1.1-1,2-0.9c-0.2,0.6,0.5,1,0.6,1.5c-1.5-0.2-2.8,0.4-4.1,0.9c-1.8,0.7-3.7,1.1-5.5,1.8 C223.9,172.9,223.8,172.4,223.2,172.5z M224.7,171.6c0-0.3-0.3-0.3-0.5-0.3c-0.2,0-0.5,0-0.5,0.3c0,0.3,0.2,0.3,0.5,0.3 C224.4,171.9,224.6,171.9,224.7,171.6z"></path> <path class="st2" d="M206.6,189.3c1.2,0,2.2-0.7,3.3-1c1.7-0.4,3.1-1.4,4.8-1.8c0.6-0.1,1.2-0.6,1.8-0.9c0.9-0.5,1-1.3,0.9-2.2 c0.6-0.1,1.2-0.4,1.7-0.7l0.2,0l0.1-0.1c0.2,0,0.4,0,0.6-0.1c0.5,0.3,0.9,0.5,1.4,0.8c0.4,0.7,1.2,1,1.7,1.5 c-0.3,1.2-1.5,1.4-2.2,1.6c-2.1,0.6-4,1.8-6,2.5c-1.1,0.3-1.8,1.1-2.9,1.4c-1,0.3-2.1,0.7-3.1,1.1c-0.3,0.1-0.4,0.3-0.4,0.6 c-1-0.1-1.9,0.5-2.9,0.1c-0.7-0.3-1.3-0.9-2-1.1c0.3-0.5,0.9-0.5,1.2-0.9c0.2,0,0.5,0,0.6-0.2c0.2,0,0.5-0.1,0.7-0.1 C206.4,189.9,206.6,189.7,206.6,189.3z"></path> <path class="st5" d="M231.4,148.6c0.6-0.4,1.2-0.8,2-0.7c0.5,0.1,1-0.1,1.5-0.4c0.9-0.4,1.8-1,2.9-1c0.8,0.1,1.4-0.6,2.1-0.9 c0.4-0.2,0.8-0.2,1.2-0.3c0,0.6,0.6,0.8,0.9,1.2c1.1,1,1.1,1.7,0,2.6c-1.3,1.1-2.7,1.7-4.2,2.3c-0.7,0.1-1.3,0.3-2,0.4 c-0.2-0.1-0.3,0-0.5,0.1c-0.2,0-0.4,0-0.5,0c-0.4-0.4-0.9-0.1-1.3,0c-1.1,0.2-1.4,0-1.5-1.2c0-0.4,0.1-0.9-0.5-1 C231.4,149.4,231.4,149,231.4,148.6z"></path> <path class="st12" d="M224.2,173.2c1.8-0.7,3.7-1.1,5.5-1.8c1.3-0.5,2.6-1.1,4.1-0.9c1,0.1,1.5,0.9,2,1.6c0.4,0.5,0.6,1.2,0.9,1.8 c-1.5,0.6-3.1,1-4.6,1.6c-1.5,0.6-3,1.3-4.6,1.6c-0.5-0.1-1.2-0.2-1.4-0.7C225.6,175.2,224.6,174.4,224.2,173.2z"></path> <path class="st12" d="M270.6,176.1c0.2,0.2,0.4,0.5,0.6,0.5c1.1,0,1.7,0.7,2.3,1.5c-0.2,0.9-0.9,0.5-1.4,0.6 c-1.3,0.1-2.8-0.2-4,0.6c0-0.6,0-1.3,0-1.9c0.3-0.1,0.5-0.1,0.5-0.5c-0.1-0.3-0.3-0.4-0.6-0.4c-0.8,0.1-1.5,0.5-2.2,0.8l0,0 c-0.5,0-0.6,0.3-0.7,0.6c-0.9-0.2-1.5,0.9-2.4,0.8c-0.1-0.5,0-0.9-0.3-1.3c-1.4-1.5-2.9-2.8-5.2-2.1c-0.2,0.1-0.4,0-0.6-0.2 c1-0.9,2.2-1.2,3.5-1.3c0.7,0,1.4,0.2,2-0.3c0.1-0.1,0.3-0.1,0.4-0.1c1.5,0.6,3.1,0.7,4.6,1.1c0.8,0.2,1.5,0.6,2.1,1.1 C269.6,176,270.1,176,270.6,176.1z"></path> <path class="st13" d="M256.6,175.1c0.2,0.2,0.3,0.2,0.6,0.2c2.3-0.7,3.8,0.6,5.2,2.1c0.4,0.4,0.2,0.9,0.3,1.3 c0,0.5-0.4,0.5-0.7,0.5c-1.2,0-2.4-0.1-3.5,0c-1.1,0.1-2.1-0.4-3-0.9c-0.8-0.4-0.9-1.2-0.8-2.1c0.1-0.2,0.3-0.4,0.5-0.4 c0.6,0.1,0.7-0.3,0.8-0.8C256.1,175.2,256.4,175.2,256.6,175.1z"></path> <path class="st13" d="M224.2,173.2c0.4,1.2,1.4,2,1.9,3.2c0.2,0.4,0.9,0.6,1.4,0.7c-0.5,1.1-0.5,1.1,0.9,2c0.4,1.3,0,2-1.3,2.1 c-0.4,0-0.8,0-1.3,0c0-0.5-0.7-0.7-0.7-1.3c-0.1-0.7-0.6-1-1.2-1.2c-0.1-0.6-0.2-1.1-0.5-1.6c-0.6-1.2-2-2.3-1.5-3.9 c0.5-0.1,0.7-0.7,1.3-0.7C223.8,172.4,223.9,172.9,224.2,173.2z"></path> <path class="st13" d="M270.6,167.8c0,1.4,0,1.3-1.1,1.3c-2.2-0.2-3.8-1.1-4.7-3.1c-0.2-0.4-0.3-0.8-0.3-1.2c0-1.4,0.4-1.8,1.7-1.4 c0.7,0.2,1.4,0.4,2,0.8C269.8,165,270.3,166.6,270.6,167.8z"></path> <path class="st13" d="M261.3,165.7c0,0.5,0.1,1.1,0,1.7c-0.1,0.9-0.6,1.1-1.3,0.7c-1.8-1.2-3.2-2.8-2.8-5.2 c0.1-0.3,0.1-0.6,0.2-0.9c0.2-0.5,0.3-1.1,0.9-1.2c0.5,0,1,0.3,1.2,0.9c0.1,0.2,0.3,0.4,0.5,0.6 C261.2,163.1,261.6,164.3,261.3,165.7z"></path> <path class="st7" d="M228.4,179.1c-1.3-0.8-1.3-0.8-0.9-2c1.6-0.3,3.1-1,4.6-1.6c1.5-0.6,3.1-1,4.6-1.6c0.7,0.1,0.9,0.7,1.3,1.2 c-1.5,0.6-2.9,1.1-4.3,1.7C231.9,177.4,230,178.1,228.4,179.1z"></path> <path class="st13" d="M223.9,195.9c0.7,0,1.4,0,2.1,0.4c1.1,0.7,1.6,1.4,1.3,2.7c-1.4,0.5-2.8,0.8-4.3,0.7c-0.7,0-1.3-0.2-1.8-0.7 c0-0.1,0-0.2,0.1-0.3c0.4,0,0.7-0.2,0.6-0.7c0,0,0,0,0,0c0.7,0,0.7-0.4,0.7-0.9C223,196.8,223.5,196.4,223.9,195.9z"></path> <path class="st13" d="M261.9,155.9c0.5-0.6,1-1.3,1.6-1.8c0.5-0.4,0.1-1.3,1-1.5c1,1.3,0.5,2.9,0.8,4.3c0.2,0.8-0.6,1.1-1.3,0.7 c-0.3-0.2-0.6-0.4-1-0.4C262.1,157.3,261.9,156.6,261.9,155.9z"></path> <path class="st7" d="M249.2,171.2c0-0.4,0-0.8,0-1.2c0.4,0,0.6-0.2,0.7-0.6c1.8-0.3,3.5-1.1,5.3-1c0,0.3,0.8,0.4,0.1,0.8 c-0.3,0.1-0.7,0.3-0.7,0.8c-1.2,0.3-2.5,0.6-3.7,1C250.4,171.1,249.8,171.2,249.2,171.2z"></path> <path class="st13" d="M254.7,169.9c0-0.5,0.3-0.6,0.7-0.8c0.7-0.3,0-0.5-0.1-0.8c-0.4-0.6-0.5-1.5-1.4-1.6c0-0.5,0.5-0.6,0.8-0.8 c0.4,0,0.8-0.1,1.2-0.1c0.8,0.7,1.6,1.4,2,2.5c0.2,0.7-0.6,1-0.7,1.6C256.3,169.9,255.5,169.9,254.7,169.9z"></path> <path class="st12" d="M225.2,179.9c-0.1,0.6,0.7,0.7,0.7,1.3c-0.4,0.1-1-0.2-1.3,0.4c-0.3,0.7-1.1,0.9-1.6,1.1 c-0.6,0.2-1,0.6-1.5,0.7c-0.5-0.3-0.9-0.5-1.4-0.8c0.4-0.7,1.1-1.2,1.8-1.3C223.1,181.1,224,180.3,225.2,179.9z"></path> <path class="st12" d="M257.2,169.9c0.1-0.6,0.9-0.9,0.7-1.6c0.6,0.1,1,0.2,0.9,0.9c-0.1,0.7-0.5,0.7-1,0.7 C257.6,170,257.4,170,257.2,169.9z"></path> <path class="st12" d="M222.6,197.2c0,0.5,0,0.9-0.7,0.9C222,197.7,222,197.2,222.6,197.2z"></path> <path class="st12" d="M255.9,175.2c0,0.5-0.1,0.9-0.8,0.8C255.3,175.6,255.3,175.1,255.9,175.2z"></path> <path class="st12" d="M221.9,198.1c0,0.5-0.2,0.7-0.6,0.7C221.3,198.4,221.5,198.2,221.9,198.1z"></path> <path class="st9" d="M235.3,151.9c0.1-0.2,0.3-0.2,0.5-0.1C235.7,152,235.5,152,235.3,151.9z"></path> <path class="st12" d="M222,173.2c-0.5,1.7,0.8,2.7,1.5,3.9c0.3,0.5,0.4,1,0.5,1.6c-0.2,0.9-1.1,0.3-1.6,0.7c-2,1.4-4.4,1.8-6.5,3 c-2.5,1.5-5.4,2.2-8,3.7c-2.9,1.6-6.1,2.7-9.1,4.2c-0.4-0.8,0.5-1.3,0.6-2.1c0-0.9,0.6-1.7,0.8-2.7c0.1-0.6,0.7-1.2,1.4-1.4 c0.9-0.4,1.8-0.8,2.6-1.2c1.7-0.8,3.2-2,5-2.6c1.9-0.7,3.5-2,5.6-2.4c0.2,0,0.4-0.2,0.5-0.3c1.3-1,2.9-1.5,4.4-2.1 c1.6-0.6,1.6-0.6,1.7-2.3C221.6,173.2,221.8,173.2,222,173.2z"></path> <path class="st10" d="M209.8,178c-0.1,0.2-0.1,0.5-0.3,0.5c-1-0.1-1.8,0.8-2.8,0.8c-0.5,0-0.7,0.4-1.1,0.6c-1,0.8-1.5,0.8-2.2-0.4 c-0.1-0.2,0-0.5-0.4-0.6c-0.5,0-0.1,0.8-0.7,0.9c-1-1.3-0.9-2.6,0.3-3.4c0.1,0.5-0.1,1,0.3,1.6c1-2,1.9-3.8,2.8-5.7 c0.1-0.3,0.1-0.6,0.1-0.9c-0.1-1.6,0.4-3.2-0.6-4.7c-0.2-0.3-0.1-0.7-0.1-1.1c0-1.6,0.2-3.1-0.8-4.9c1.2,0.4,1.5,0.9,1.4,1.7 c-0.1,0.8,0.1,1.6,1.1,1.9c0.4-0.5,0.2-1,0.2-1.5c0.1-0.8-0.1-1.7,0.5-2.4c0.2-0.3,0.1-0.9,0.1-1.4c0.1-0.5-0.2-1.1,0.3-1.8 c0.5,0.6,0.3,1.1,0.3,1.6c0.2,1.4-0.4,3,0.5,4.3c0.1,0.1,0.1,0.4,0,0.5c-0.8,0.8-0.4,1.9-0.5,2.9c0,0.3,0.1,0.7-0.1,0.9 c-0.9,1.4-0.8,2.9-0.9,4.5c0,0.6-0.2,1.2,0.4,1.7c0.4,0.3,0.1,0.8,0.1,1.2c-0.2,1.2,0.5,2.1,1.1,3C209.2,178,209.6,178,209.8,178z"></path> <path class="st2" d="M211.6,155.9c0.8,0.8,1.4,1.2,1.8,2.1c0.4,1,1.4,1.6,2.2,2.3c0.5,0.5,1.4,0.2,2.2,0c1.3-0.2,2.5-0.4,3.8-0.5 c2.5-0.1,2-0.1,3-2.4c0.5-1,1.1-2,1.5-3.1c0.1-0.3,0.7-0.5,1.1-0.8c0.8,1.2,0.2,2.4-0.5,3.2c-0.9,1-1.3,2.3-1.9,3.4 c-0.5,0.9-1,1.3-2,1.2c-0.6,0-1.2,0-1.6,0.4c-0.3,0.3-0.7,0.1-1.1,0.2c-1.5,0.2-3-0.4-4.4,0.4c-0.2,0.1-0.4-0.1-0.5-0.2 c-1.4-1.2-2.4-2.7-3.6-4.1C211.2,157.5,211.3,156.8,211.6,155.9z"></path> <path class="st12" d="M219.4,155.9c0.9,0,1.7,0.6,1.7,1.3c0.1,0.8-0.9,1.6-1.9,1.6c-1.2,0-1.6-0.4-1.6-1.5 C217.6,156.2,218,155.9,219.4,155.9z"></path> <path class="st10" d="M202.7,174.2c-0.7,0-1-0.3-0.8-1C202.6,173.1,202.8,173.5,202.7,174.2z"></path> <path class="st10" d="M211.4,177.3c0,0.7-0.5,0.7-1,0.6C210.5,177.4,210.6,176.9,211.4,177.3z"></path> <path class="st10" d="M212.7,176.7c0,0.4-0.2,0.7-0.7,0.6C212.1,176.9,212.3,176.7,212.7,176.7z"></path> <path class="st7" d="M198.7,190.2c3-1.5,6.2-2.6,9.1-4.2c2.6-1.4,5.5-2.2,8-3.7c2.1-1.2,4.5-1.5,6.5-3c0.5-0.3,1.4,0.2,1.6-0.7 c0.6,0.2,1.1,0.5,1.2,1.2c-1.1,0.4-2.1,1.2-3.4,1.4c-0.6,0.1-1.4,0.6-1.8,1.3c-0.2,0-0.4,0-0.6,0.1c-0.1-0.1-0.2-0.1-0.3,0.1 c-0.5,0.3-1.1,0.6-1.7,0.7c-3.4,1.5-6.7,3.2-10.1,4.6c-1.4,0.6-2.8,1.3-4.2,2.1c-1.6,1-3.4,1.7-5.1,2.3c0-0.3,0-0.6,0-0.9 c0.6,0,0.6-0.5,0.6-0.9C198.7,190.4,198.7,190.3,198.7,190.2z"></path> <path class="st13" d="M186.8,177.5c0.2,2.9-1.4,4.8-3.6,6.4c-0.8,0.6-1.6,0.3-1.8-0.7c-0.1-0.8-0.4-1.6-0.6-2.4 c-0.1-0.2-0.1-0.4,0-0.6c0.3-2.7,1.7-4.7,3.9-6.2c0.4-0.3,0.8-0.2,1.2,0.3C186.9,175.2,186.7,176.4,186.8,177.5z"></path> <path class="st13" d="M197,171.2c-0.1,1.4-1.1,3.6-2.6,4.2c-0.9,0.3-1.5,0.1-1.8-0.8c-0.6-2.2,0.5-4.7,2.4-5.8 c1.1-0.6,1.4-0.4,1.7,0.8c0.1,0.4,0.2,0.7,0.3,1.1C197,170.7,197,170.8,197,171.2z"></path> <path class="st13" d="M195.8,181.3c1.8,3.1,1.3,6.1-2.4,7.8c-1.3-1.3-1.1-3-0.8-4.5C192.9,183,194.5,182.2,195.8,181.3z"></path> <path class="st12" d="M198.6,190.5c0,0.4,0,0.9-0.6,0.9C197.9,191,197.9,190.5,198.6,190.5z"></path> <path class="st10" d="M253.3,152.8c0-0.5,0-1,0-1.4c0-0.3,0-0.7,0.4-0.8c0.4-0.1,0.7,0,1,0.2c0.5,0.4,0.5,1,0.5,1.6 c0.1,1,0.4,1.1,1.2,0.7c1.5-0.7,2.7-1.8,4.2-2.5c0.6-0.3,1.1-0.8,1.3-1.5c0.2-0.5,0.6-0.7,1.1-1.1c0.3,1.1-0.3,1.9-0.9,2.5 c-1.1,1.2-2.5,2.2-3.7,3.2c-0.6,0.5-1.4,1-2.3,1c-0.8,0-0.9,0.5-0.9,1.1c0,1,0.1,2.1-0.2,3.2c-0.4-1.2-1.2-2.3-1.1-3.7 c0-0.4,0.1-0.9-0.3-1.2C253.3,153.7,253.3,153.2,253.3,152.8z"></path> <path class="st12" d="M253.9,166.8c0.9,0.2,1,1,1.4,1.6c-1.9-0.1-3.6,0.8-5.3,1c0-0.4,0-0.9-0.1-1.3c0-0.3,0.1-0.7,0.1-1 c0.3-0.1,0.5-0.2,0.5-0.5c0.3,0,0.6,0,0.8-0.1C252.2,166.9,253,166.7,253.9,166.8z"></path> <path class="st2" d="M253.3,152.8c0,0.5-0.1,0.9,0.4,1.3c0.4,0.3,0.2,0.8,0.3,1.2c-1.4-0.8-2.5-2-3.8-2.9c-0.4-0.3-0.3-0.8-0.3-1.2 c0-0.6,0.4-0.7,0.9-0.3c0.5,0.3,0.9,0.7,1.3,1.1C252.4,152.3,252.8,152.7,253.3,152.8z"></path> <path class="st1" d="M253.9,166.8c-0.9-0.1-1.7,0.1-2.6-0.1c1-0.8,2.2-0.7,3.3-0.7C254.4,166.1,253.9,166.2,253.9,166.8z"></path> <path class="st1" d="M250.5,166.7c-0.1,0.3-0.3,0.4-0.5,0.5c-0.1-0.3,0-0.5,0.3-0.7C250.3,166.5,250.4,166.6,250.5,166.7z"></path> <path class="st10" d="M268.1,179.3c1.2-0.9,2.6-0.6,4-0.6c0.5,0,1.2,0.3,1.4-0.6c1.5-1.1,2.7-2.6,4.4-3.5c1.6-0.8,3.2-0.9,4.3,0.1 c0.7,0.6,0.7,1.5,0.1,2.2c-0.6,0.6-1.4,1-2,1.7c-2.2,0.4-3.6,1.7-4.6,3.7c-0.6-0.4-0.3-0.9-0.3-1.4c0-0.9-0.7-1.3-1.4-0.8 c-0.4,0.3-0.7,0.6-0.9,1.1c-0.9,1.9-2.4,3.2-4.4,3.9c-0.4-0.1-0.8-0.2-1.2-0.3c-1-0.5-2.1-1-2.2-2.3 C265,180.6,266.1,179.5,268.1,179.3z M276.4,178.6c0.5-0.1,0.9-0.7,1.6-0.6c1,0.2,1.6-0.7,2.3-1.1c0.4-0.3,0.5-0.7,0.2-1.1 c-0.2-0.4-0.6-0.3-1-0.1c-1.3,0.5-2.5,1.4-3.4,2.5c-0.1,0.1-0.2,0.3,0,0.4C276.2,178.6,276.3,178.6,276.4,178.6z M271.8,180.8 c-1.4-0.7-2.3,0.3-3.4,0.6c-0.5,0.1-0.4,1.1-0.2,1.6c0.2,0.6,0.8,0.4,1.2,0.2C270.6,182.8,271.3,181.9,271.8,180.8z"></path> <path class="st10" d="M284.2,179.3c-1.3,0.5-2.5,1.1-3.2,2.5c-0.3,0.5-0.6,1.2-1.4,1.2c0.2-1.6,0.5-3.1,1.7-4.2 c0.7-0.1,1.5-0.2,2.2-0.1C283.9,178.7,284.2,178.8,284.2,179.3z"></path> <path class="st11" d="M283.3,120.1c-0.6-0.4-0.5-1-0.5-1.6C283.8,118.8,283.4,119.5,283.3,120.1z"></path> <path class="st9" d="M268.1,179.3c-2,0.2-3.1,1.4-2.9,3.1c0.1,1.4,1.2,1.9,2.2,2.3c0.4,0.2,0.8,0.2,1.2,0.3c0,0.3,0,0.6,0,0.9 c-0.5,0.2-1.1-0.1-1.2,0.7c-1.5,0.2-2.8,1.1-4.2,1.6c-2,0.8-3.4,2.4-5.1,3.5c-0.7,0.5-1.1,1.3-1.5,2c-0.6,1-0.9,1.2-1.9,0.7 c-0.9-0.5-1.8-0.2-2.6-0.4c0-0.6-0.7-0.8-0.7-1.4c0.5-1.4,1.3-2.7,1.9-4.1c0.2-0.5,0.6-0.9,1-1.3c0.5-0.5,1-1,1.1-1.8 c1.3-1.2,2.6-2.5,3.9-3.8c0.9-0.9,2-1.4,2.7-2.4c0.4,0,0.7,0,0.7-0.5c0.9,0.1,1.5-1,2.4-0.8c0.5,0.1,0.7-0.1,0.7-0.6c0,0,0,0,0,0 c0.8,0,1.5,0,2.3,0C268.1,178,268.1,178.6,268.1,179.3z"></path> <path class="st1" d="M267.4,186.6c0.1-0.8,0.8-0.5,1.2-0.7C268.6,186.9,267.9,186.6,267.4,186.6z"></path> <path class="st13" d="M221.3,208.4c0,0.2-0.1,0.4-0.1,0.6c-0.5,0.1-1,0.3-0.5,1c0,0.2-0.1,0.4-0.1,0.6c-0.7,0.4-1.3,1.1-2.1,0.2 c-0.1-0.1-0.4-0.2-0.6-0.1c-1.4,0.2-1.9-0.9-2.7-1.7c-0.6-0.7-0.1-1.4,0.1-2.1c0.2-0.6,0.8-0.4,1.2-0.4c0.7,0,1.4,0,2.1,0 C219.9,206.6,221,206.9,221.3,208.4z"></path> <path class="st1" d="M205.3,189.9c-0.1,0.2-0.4,0.3-0.6,0.2c0-0.2,0-0.4,0.2-0.5C205.1,189.6,205.2,189.7,205.3,189.9z"></path> <path class="st1" d="M206.6,189.3c0,0.4-0.2,0.6-0.7,0.6C206,189.4,206.2,189.2,206.6,189.3z"></path> <path class="st13" d="M234.8,194c-0.7,0-1.5,0.1-2-0.7c-0.5-0.7-0.4-1.3,0.3-1.7c1.3-0.8,2.8-0.6,4.2-0.3c0.6,0.1,1.4,0.1,1.7,1 c-0.6,0.5-1.3,0.8-2.2,0.8c-0.7,0-1.3,0.1-1.5,0.9C235.2,194,235,194,234.8,194z"></path> <path class="st12" d="M220.7,210c-0.5-0.7,0-0.8,0.5-1C221.2,209.5,221.2,209.9,220.7,210z"></path> <path class="st1" d="M285.2,105.9c-0.9,2.4-2.2,4.5-3.7,6.5c-0.8,1.1-1.9,1.9-2.4,3.1c-1.8,0.8-2.7,2.7-4.4,3.6 c-1.8,0.9-3.5,2-5.4,2.7c-1.2,0.4-2.4,1-3.8,0.8c-0.6-0.1-1.3-0.1-1.8,0.4c-0.3,0.3-0.7,0.2-1.1,0.2c-1.7,0-3.3,0.2-5,0 c-1.3-0.2-2.6-0.6-3.9-0.9c-1.3-0.3-2.2-1.1-3.1-1.9c-2.3-1.9-3.4-4.4-4.2-7.3c-0.6-2-0.2-4.1-1-6c-0.4-1-0.1-2.2-0.2-3.3 c0-0.9,0-1.7,0-2.6c1.9-1,3.9-1.9,6-2.6c1.2-0.4,2.3-1.1,3.6-1.5c2.1-0.7,4.1-1.4,6.2-1.8c0.5-0.1,0.9-0.6,1.5-0.3 c0.1,0.4-0.6,0.4-0.4,0.9c1.5,0.5,1.6,0.5,1.7,2c-0.6,0.1-1.2,0.2-1.7,0.6c-1,0.7-1.2,1.3-0.3,1.9c1.1,0.6,1.9,1.6,2.5,2.5 c1.2,1.7,2.7,2.1,4.5,1.8c1.7-0.3,3.2-1.1,4.3-2.6c0.7,0.1,0.6-0.4,0.6-0.8c0.1-0.7,0.6-0.7,1.1-0.6c1,0.2,0.2,1.3,0.9,1.8 c0.5-0.8,0.9-0.4,1.3,0.1c0.2,0.2,0.3,0.5,0.7,0.5c1,0,1.9,0.3,2.2,1.5c0.1,0.4,0.6,0.6,0.9,0.9c0.4,0.4,0.7,0.7,1-0.1 c0.2-0.5,0.7-0.3,0.9,0C283.6,106.1,284.4,106,285.2,105.9z M256.6,109.7c0,0.6,0,0.9,0,1.2c-0.1,1.8,0.4,3.4,1.3,5 c0.9,1.6,3.1,1.7,4,0.6c0.9-1,1.3-2.2,1.7-3.5c0.7-2.1,0.5-4.2,0.2-6.3c-0.2-1-0.4-2.2-1.1-3.1c-1.1-1.6-2.5-1.9-4-0.6 c-0.7,0.6-1.3,1.2-1.4,2C256.9,106.6,256.2,108.2,256.6,109.7z"></path> <path class="st1" d="M223.2,111.7c-0.2,1.9-1,3.6-2,5.2c-1.3,2.2-3.4,3.3-5.7,4.3c-1.8,0.8-3.5,0.7-5.2,0.8c-1,0-1.9-0.1-2.9,0 c-3,0.2-5.8-0.8-8.6-1.9c-3.2-1.2-5.8-3.3-8.1-5.6c-1.7-1.7-2.9-3.7-4.1-5.8c-1-1.7-1.8-3.5-2.6-5.4c-0.4-0.8-0.5-1.7-0.8-2.5 c-0.3-1.1-0.9-2.3-0.9-3.5c0.1-0.2,0.2-0.5,0.4-0.5c1.2-0.1,2.3-0.7,3.5-0.9c1.6-0.3,3.2-0.7,4.9-0.7c0.2,0,0.4,0,0.6,0.1 c0.1,1.1,0.7,1.7,1.8,1.8c0.9,0.1,1.7,0.4,2.5,0.9c1.5,0.9,3.4,1.2,4.4,2.8c0.1,0.2,0.4,0.3,0.7,0.3c1,0.1,2.2-0.3,2.5,1.2 c0,0.2,0.4,0.3,0.7,0.3c0.5,0.1,0.9,0.3,1.2,0.7c0.2,0.3,0.7,0.3,1,0.3c0,0.6-0.6,0.8-0.7,1.3c-0.7,1.9-1.1,3.9-0.9,5.9 c0.1,1.3,0.2,2.7,0.8,4c0.4,0.8,1.3,1.3,1.5,2.1c1.3,1.3,1.4,1.3,2.5,0.1c0.5-0.6,1.2-1,1.5-1.7c0.7-1.7,1.2-3.5,1.3-5.4 c0.1-1.4-0.2-2.7-0.5-4c0.7-0.1,1.2,0.2,1.2,0.9c0,0.7,0.4,0.8,0.9,1.1c0.6,0.5,1.5,0.4,2.1,1.1c0.4,0.6,1.1,0.8,1.7,1 c0.9,0.4,2.1,0.5,2.8,1.4c0.6,0.7,1.3,0.8,2,0.3C222.9,111.7,223.1,111.7,223.2,111.7z M192.6,108.2c0.4,0.2,0.7,0.4,1.1,0.6 c1.7,1.1,3.5,1.6,5.5,1.3c0.5-0.1,0.9-0.2,1.3-0.7c1.3-1.4,2.5-2.9,3.6-4.6c0.6-0.9,0.6-1.1-0.3-1.7c-0.7-0.4-1.4-0.4-2.2-0.5 c-2.3,0-4.7,0.3-7-0.2c-1.2-0.2-2.3-0.6-3.3-1.1c2,2.8,5,4,7.8,5.5C197.2,108.3,194.8,107.7,192.6,108.2z"></path> <path class="st10" d="M223.2,111.7c-0.2,0-0.3,0-0.5,0.1c-0.8,0.6-1.5,0.4-2-0.3c-0.7-0.9-1.8-1-2.8-1.4c-0.7-0.3-1.3-0.5-1.7-1 c-0.5-0.7-1.4-0.6-2.1-1.1c-0.4-0.3-0.9-0.5-0.9-1.1c0-0.7-0.5-1-1.2-0.9c0-0.3-0.1-0.5-0.1-0.8c-0.7-2.7-2.6-3.6-4.7-2.4 c-0.4,0-0.7,0.2-0.6,0.7c0,0.1,0,0.2-0.1,0.3c-0.4,0-0.8,0-1-0.3c-0.3-0.4-0.7-0.6-1.2-0.7c-0.2,0-0.6-0.2-0.7-0.3 c-0.3-1.5-1.5-1.1-2.5-1.2c-0.3,0-0.5-0.1-0.7-0.3c-1-1.7-2.9-1.9-4.4-2.8c-0.7-0.5-1.6-0.8-2.5-0.9c-1.1-0.1-1.7-0.7-1.8-1.8 c0.4,0,0.8,0,1.2-0.1c1.7,0.3,3.4,0.1,5.1,0.1c1.4,0,2.8,0.2,4.1-0.1c0.2,0,0.3,0,0.5,0c0.4,0.2,0.9,0.2,1.3,0.1 c0.4,0,0.9,0,1.3,0.1c0,0.7,0,1.3,1,1.2c0.7-0.1,1.1,0.2,1.5,0.7c0.2,0.3,0.4,0.4,0.7,0.5c1,0.4,2,0.8,3,1.3c1.2,0.7,2.7,1,3.6,2.1 c0.4,0.5,0.9,0.6,1.5,0.8c1.2,0.4,2.6,0.8,3.6,1.6c1,0.8,1.9,1,3.2,1.1c0-1.5,0-3,0-4.4c0.2,0,0.4,0.1,0.5,0.1c0,2,0.1,4-0.2,6 C223.4,108.3,223.4,110,223.2,111.7z"></path> <path class="st9" d="M288.6,95c-0.4,0.8-0.6,1.6-0.7,2.6c-0.1,1.1-0.5,2.1-0.9,3.1c-0.2,0.6-0.3,1.1-0.4,1.7 c-0.8-0.8-2-0.9-2.8-1.8c-0.5-0.7-1.1-1.2-2-1c-0.5,0.1-0.6-0.3-0.7-0.7c-0.2-0.8-0.5-1-1.1-0.3c-0.4,0.5-0.9,0.4-1.3-0.1 c-0.8-0.8-1.5-1.9-2.8-1.8c-0.1,0-0.4-0.1-0.3-0.3c0.3-0.7-0.3-0.8-0.6-1.2c-0.9-1.1-0.8-1.1-1.8-0.3c-0.3,0.3-0.7,0.4-0.9,0.9 c-0.1,0.1-0.1,0.1-0.2,0c-0.4-0.1-0.7,0-0.8,0.5c-0.2,0-0.4,0.1-0.6,0.1c-0.1-0.8-0.8-1-1.4-1.3c-0.5-0.2-1.1-0.3-1.1-1 c0,0,0,0,0,0c1.4,0.2,2.8,0,4.1,0c0.3,0,0.7,0,0.9-0.2c0.4-0.5,1-0.4,1.5-0.4c1.8,0.1,3.6-0.1,5.4,0.5c1.4,0.5,3.1,0.1,4.7,0.1 C286.1,94.1,287.4,94.4,288.6,95z"></path> <path class="st9" d="M223.3,100.5c0,1.4,0,2.9,0,4.4c-1.3-0.1-2.3-0.3-3.2-1.1c-1-0.8-2.3-1.2-3.6-1.6c-0.6-0.2-1-0.3-1.5-0.8 c-1-1.1-2.4-1.4-3.6-2.1c-0.9-0.5-2-0.9-3-1.3c-0.3-0.1-0.6-0.3-0.7-0.5c-0.4-0.5-0.8-0.8-1.5-0.7c-1,0.1-1-0.6-1-1.2 c1.9-0.1,3.6,0.6,5.5,0.9c1.4,0.2,2.8,0.7,4.2,1c0.8,0.2,1.4,0.6,2.2,0.8c2,0.5,4,1.3,6,2C223.2,100.1,223.3,100.3,223.3,100.5z"></path> <path class="st10" d="M268.1,94.1c0.1,0.7,0.7,0.7,1.1,1c0.6,0.3,1.3,0.5,1.4,1.3c-0.8,0.8-1.8,0.6-2.8,0.7c-0.2-0.1-0.3,0-0.4,0.1 c-0.4,0.1-0.8,0.1-1.2,0.1c-0.8-0.5-1.3-0.2-1.7,0.5c-0.2,0-0.4,0-0.6,0c-0.1-1.5-0.2-1.5-1.7-2c-0.3-0.5,0.5-0.5,0.4-0.9 C264.4,94.7,266.2,93.8,268.1,94.1z"></path> <path class="st11" d="M284.8,94.1c-1.6,0-3.3,0.4-4.7-0.1c-1.8-0.6-3.6-0.4-5.4-0.5c-0.5,0-1.1-0.1-1.5,0.4 c-0.2,0.3-0.6,0.2-0.9,0.2c-1.4,0-2.8,0.2-4.1,0c1.3-0.8,2.7-1,4.2-0.9c2,0.1,4,0,6,0C280.5,93,282.7,93.2,284.8,94.1z"></path> <path class="st1" d="M202.2,95.2c-1.4,0.3-2.7,0.2-4.1,0.1c-1.7,0-3.4,0.2-5.1-0.1c0.2-0.5,0.7-0.5,1.1-0.5c2.4,0,4.8,0,7.1,0 C201.6,94.8,202,94.8,202.2,95.2z"></path> <path class="st1" d="M204,95.3c-0.4,0.1-0.9,0.1-1.3-0.1C203.1,94.9,203.6,95.1,204,95.3z"></path> <path class="st10" d="M272.2,95.7c0.1-0.5,0.5-0.6,0.9-0.9c1-0.9,1-0.8,1.8,0.3c0.3,0.4,0.9,0.5,0.6,1.2c-0.1,0.2,0.2,0.3,0.3,0.3 c1.4-0.1,2,1,2.8,1.8c0.5,0.5,0.9,0.6,1.3,0.1c0.6-0.8,0.9-0.5,1.1,0.3c0.1,0.4,0.2,0.8,0.7,0.7c0.9-0.1,1.5,0.4,2,1 c0.7,0.9,1.9,1.1,2.8,1.8c0,0.7-0.8,1.1-0.7,1.9c-0.4,0.2-1.1,0.3-0.6,1c0,0.2,0,0.4-0.1,0.6c-0.9,0.1-1.7,0.2-2.4-0.6 c-0.2-0.3-0.7-0.5-0.9,0c-0.3,0.7-0.6,0.5-1,0.1c-0.3-0.3-0.7-0.6-0.9-0.9c-0.4-1.1-1.2-1.4-2.2-1.5c-0.4,0-0.5-0.3-0.7-0.5 c-0.4-0.5-0.9-0.9-1.3-0.1c-0.8-0.5,0-1.6-0.9-1.8c-0.5-0.1-1-0.1-1.1,0.6c-0.2,0-0.4,0-0.6,0.1c-0.5-0.5-1.1-0.8-1.9-0.9 c0.2-0.9,0.4-1.6,0.5-2.4l0.1-0.1c0.4,0,0.5-0.3,0.5-0.6c0.2-0.2,0.3-0.6,0.6-0.7c0.5,0,0.7-0.2,0.6-0.7c0.1-0.4,0-0.6-0.5-0.5 C272.9,95.6,272.6,95.8,272.2,95.7z"></path> <path class="st1" d="M285.3,105.3c-0.5-0.7,0.1-0.8,0.6-1C286,104.8,285.7,105.1,285.3,105.3z"></path> <path class="st1" d="M249.8,168.1c0,0.4,0,0.9,0.1,1.3c0,0.4-0.3,0.6-0.7,0.6c0-0.4,0-0.9,0-1.3 C249.3,168.3,249.5,168.2,249.8,168.1z"></path> <path class="st13" d="M255.3,185.5c-0.1,0.8-0.6,1.3-1.1,1.8c-0.4,0.4-0.8,0.8-1,1.3c-1.5,0.4-2.3-0.8-3.3-1.5 c-0.5-0.3-0.2-1.5,0.4-1.7c1.4-0.5,2.8-0.7,4.2-0.6C255.1,184.8,255.2,185.1,255.3,185.5z"></path> <path class="st1" d="M248.6,190.1c-0.5,0.1-0.9,0.1-1.4,0c0.1-0.4,0.1-0.8,0.7-0.8C248.5,189.2,248.5,189.7,248.6,190.1z"></path> <path class="st1" d="M249.8,190.8c-0.4,0-0.6-0.2-0.6-0.6C249.6,190.2,249.8,190.4,249.8,190.8z"></path> <path class="st1" d="M243.4,194c0,0.4-0.1,0.7-0.6,0.7C242.8,194.2,243,194,243.4,194z"></path> <path class="st12" d="M241.3,198.9c-0.3,1.4-0.8,2.6-1.6,3.5c-0.4,0.5-1.3,0.4-2,0.2c-0.5-0.2-0.4-0.7-0.1-1.1c0.8-1,1.8-1.9,3-2.5 C240.7,198.9,240.8,199,241.3,198.9z"></path> <path class="st12" d="M245.2,194c0.2-1.2,1.2-1.7,2-2.4c0.3-0.3,0.7-0.2,1,0.1c0.4,0.3,0.3,0.7,0,1c-0.7,0.7-0.9,1.9-2.2,2.1 C245.5,194.7,245.3,194.4,245.2,194z"></path> <path class="st1" d="M245.2,194c0.1,0.4,0.3,0.7,0.8,0.8c-0.2,0.6-0.6,0.9-1.1,1.2c-0.2,0.1-0.4,0-0.6-0.1c-0.2-0.1-0.2-0.4,0-0.5 C244.5,194.8,244.6,194.1,245.2,194z"></path> <path class="st9" d="M224.7,171.6c0,0.3-0.3,0.3-0.5,0.3c-0.2,0-0.5,0-0.5-0.3c0-0.3,0.3-0.3,0.5-0.3 C224.4,171.3,224.6,171.3,224.7,171.6z"></path> <path class="st12" d="M219.1,182.8c0.1-0.2,0.1-0.2,0.3-0.1c0,0-0.1,0.1-0.1,0.1L219.1,182.8z"></path> <path class="st10" d="M268.1,177.4c-0.8,0-1.5,0-2.3,0c0.7-0.3,1.4-0.7,2.2-0.8c0.3,0,0.5,0.1,0.6,0.4 C268.7,177.2,268.4,177.3,268.1,177.4z"></path> <path class="st10" d="M265.8,177.3c0,0.5-0.2,0.7-0.7,0.6C265.2,177.6,265.4,177.3,265.8,177.3z"></path> <path class="st7" d="M276.4,178.6c-0.1-0.1-0.3-0.1-0.3-0.1c-0.1-0.1-0.1-0.3,0-0.4c0.9-1.1,2.1-1.9,3.4-2.5c0.3-0.1,0.8-0.3,1,0.1 c0.2,0.4,0.2,0.9-0.2,1.1c-0.7,0.5-1.3,1.3-2.3,1.1C277.3,177.9,276.9,178.5,276.4,178.6z"></path> <path class="st12" d="M271.8,180.8c-0.5,1.1-1.3,2-2.4,2.5c-0.4,0.2-1,0.3-1.2-0.2c-0.2-0.5-0.3-1.4,0.2-1.6 C269.5,181.1,270.5,180,271.8,180.8z"></path> <path class="st7" d="M256.6,109.7c-0.4-1.5,0.4-3.1,0.8-4.7c0.2-0.8,0.8-1.5,1.4-2c1.5-1.3,2.8-1,4,0.6c0.7,1,0.9,2.1,1.1,3.1 c0.3,2.1,0.4,4.2-0.2,6.3c-0.4,1.3-0.8,2.4-1.7,3.5c-0.9,1.1-3.1,1-4-0.6c-0.9-1.5-1.4-3.2-1.3-5 C256.6,110.6,256.6,110.3,256.6,109.7z"></path> <path class="st7" d="M273.1,96.6c-0.3,0.1-0.4,0.4-0.6,0.7c-0.4,0-0.5,0.3-0.5,0.6c0,0-0.1,0.1-0.1,0.1c-1.6,1.2-3.3,2.3-5.1,3.6 c1.9,0.7,3.7,0.6,5.4,0.3l0.1,0.1l0.1-0.1c0.2,0,0.5-0.1,0.7-0.1c0,0.1,0,0.1,0.1,0.2c-1,1.5-2.6,2.3-4.3,2.6 c-1.8,0.3-3.3-0.1-4.5-1.8c-0.7-0.9-1.4-1.9-2.5-2.5c-1-0.5-0.7-1.2,0.3-1.9c0.6-0.4,1.1-0.5,1.7-0.6c0.2,0,0.4,0,0.6,0 c0.6,0,1.4,0.5,1.7-0.5c0.4,0,0.8,0,1.2-0.1c0.2,0.1,0.3,0,0.4-0.1c1-0.1,2,0.1,2.8-0.7c0.2,0,0.4-0.1,0.6-0.1 c0.4,0.1,0.6-0.1,0.8-0.5c0.1,0,0.1,0,0.2,0c0.4,0.1,0.7-0.2,1-0.3c0.5-0.2,0.5,0.1,0.5,0.5C273.3,95.9,273.2,96.2,273.1,96.6z"></path> <path class="st13" d="M273.2,102c0,0-0.1-0.1-0.1-0.2c0-0.2,0-0.4,0-0.6c0.2,0,0.4,0,0.6-0.1C273.8,101.6,273.9,102.1,273.2,102z"></path> <path class="st7" d="M207.3,102.8c2.2-1.2,4.1-0.2,4.7,2.4c0.1,0.3,0.1,0.5,0.1,0.8c0.3,1.3,0.6,2.6,0.5,4 c-0.1,1.9-0.6,3.7-1.3,5.4c-0.3,0.7-1,1.2-1.5,1.7c-0.8,0-1.7,0-2.5-0.1c-0.3-0.9-1.2-1.3-1.5-2.1c-0.6-1.3-0.6-2.7-0.8-4 c-0.2-2,0.2-4,0.9-5.9c0.2-0.5,0.8-0.7,0.7-1.3c0.1-0.1,0.1-0.2,0.1-0.3C207,103.4,207.3,103.2,207.3,102.8z"></path> <path class="st7" d="M192.6,108.2c2.2-0.6,4.5,0.1,6.5-1.3c-2.8-1.5-5.9-2.8-7.8-5.5c1.1,0.5,2.2,0.8,3.3,1.1 c2.3,0.5,4.7,0.2,7,0.2c0.8,0,1.5,0,2.2,0.5c0.9,0.5,0.9,0.8,0.3,1.7c-1.1,1.6-2.3,3.1-3.6,4.6c-0.4,0.5-0.8,0.6-1.3,0.7 c-2,0.4-3.8-0.2-5.5-1.3C193.4,108.6,193,108.4,192.6,108.2z"></path> <path class="st11" d="M207.2,117.1c0.8,0,1.7,0,2.5,0.1C208.6,118.5,208.6,118.5,207.2,117.1z"></path> <path class="st11" d="M207.3,102.8c0,0.4-0.2,0.6-0.6,0.7C206.6,103,206.8,102.8,207.3,102.8z"></path> <path class="st10" d="M272.1,95.8c-0.1,0.4-0.3,0.6-0.8,0.5C271.3,95.8,271.6,95.7,272.1,95.8z"></path> <path class="st11" d="M266.2,97.3c-0.3,1-1.1,0.5-1.7,0.5C264.9,97.1,265.4,96.7,266.2,97.3z"></path> <path class="st11" d="M267.9,97.1c-0.1,0.1-0.3,0.2-0.4,0.1C267.5,97,267.7,97,267.9,97.1z"></path> <path class="st1" d="M273.2,101.2c0,0.2,0,0.4,0,0.6c-0.2,0-0.5,0.1-0.7,0.1c-0.1-0.1-0.2-0.1-0.3,0c-1.8,0.2-3.5,0.3-5.4-0.3 c1.8-1.3,3.4-2.4,5.1-3.6c-0.2,0.8-0.3,1.5-0.5,2.4C272.1,100.5,272.7,100.7,273.2,101.2z"></path> <path class="st11" d="M273.1,96.6c0.1-0.4,0.2-0.7,0.6-0.7C273.8,96.4,273.6,96.6,273.1,96.6z"></path> <path class="st1" d="M272,97.9c0-0.3,0-0.6,0.5-0.6C272.5,97.7,272.4,97.9,272,97.9z"></path> <path class="st13" d="M272.2,102c0.1-0.1,0.2-0.1,0.3,0c0,0-0.1,0.1-0.1,0.1L272.2,102z"></path> </g> </svg> 